G75*
G70*
%OFA0B0*%
%FSLAX24Y24*%
%IPPOS*%
%LPD*%
%AMOC8*
5,1,8,0,0,1.08239X$1,22.5*
%
%ADD10C,0.0040*%
%ADD11C,0.0060*%
%ADD12C,0.0160*%
%ADD13C,0.0000*%
%ADD14C,0.0100*%
%ADD15C,0.0050*%
%ADD16C,0.0020*%
%ADD17C,0.0070*%
%ADD18R,0.0200X0.0200*%
%ADD19C,0.0080*%
%ADD20R,0.0079X0.0079*%
%ADD21R,0.0500X0.1000*%
D10*
X001217Y004736D02*
X001217Y007766D01*
X001219Y007764D02*
X001811Y007764D01*
X001750Y007334D02*
X002834Y007416D01*
X002834Y007334D01*
X001893Y007232D01*
X001893Y007028D01*
X002834Y006926D01*
X002834Y006844D01*
X001750Y006946D01*
X001731Y006950D01*
X001712Y006956D01*
X001695Y006966D01*
X001679Y006978D01*
X001666Y006993D01*
X001655Y007010D01*
X001648Y007028D01*
X001648Y007253D02*
X001655Y007271D01*
X001666Y007288D01*
X001679Y007303D01*
X001695Y007315D01*
X001712Y007325D01*
X001731Y007331D01*
X001750Y007335D01*
X001649Y007252D02*
X001640Y007215D01*
X001634Y007178D01*
X001632Y007140D01*
X001634Y007102D01*
X001640Y007064D01*
X001649Y007028D01*
X001750Y006742D02*
X003345Y006660D01*
X003345Y006661D02*
X003363Y006658D01*
X003380Y006651D01*
X003395Y006642D01*
X003408Y006629D01*
X003417Y006614D01*
X003424Y006597D01*
X003427Y006579D01*
X003426Y006578D02*
X003426Y005924D01*
X003427Y005924D02*
X003424Y005906D01*
X003417Y005889D01*
X003408Y005874D01*
X003395Y005861D01*
X003380Y005852D01*
X003363Y005845D01*
X003345Y005842D01*
X001750Y005761D01*
X001750Y005760D02*
X001734Y005762D01*
X001719Y005766D01*
X001704Y005774D01*
X001692Y005784D01*
X001682Y005796D01*
X001674Y005811D01*
X001670Y005826D01*
X001668Y005842D01*
X001668Y005843D02*
X001670Y005859D01*
X001674Y005874D01*
X001682Y005889D01*
X001692Y005901D01*
X001704Y005911D01*
X001719Y005919D01*
X001734Y005923D01*
X001750Y005925D01*
X001750Y005924D02*
X003099Y006006D01*
X003099Y006497D01*
X003099Y006496D02*
X001750Y006578D01*
X001734Y006580D01*
X001719Y006584D01*
X001704Y006592D01*
X001692Y006602D01*
X001682Y006614D01*
X001674Y006629D01*
X001670Y006644D01*
X001668Y006660D01*
X001669Y006660D02*
X001669Y006660D01*
X001668Y006660D02*
X001670Y006676D01*
X001674Y006691D01*
X001682Y006706D01*
X001692Y006718D01*
X001704Y006728D01*
X001719Y006736D01*
X001734Y006740D01*
X001750Y006742D01*
X001219Y007764D02*
X001219Y004739D01*
X001811Y004739D01*
X001750Y005168D02*
X002834Y005086D01*
X002834Y005168D01*
X001893Y005270D01*
X001893Y005475D01*
X002834Y005577D01*
X002834Y005659D01*
X001750Y005556D01*
X001750Y005557D02*
X001731Y005553D01*
X001712Y005547D01*
X001695Y005537D01*
X001679Y005525D01*
X001666Y005510D01*
X001655Y005493D01*
X001648Y005475D01*
X001648Y005250D02*
X001655Y005232D01*
X001666Y005215D01*
X001679Y005200D01*
X001695Y005188D01*
X001712Y005178D01*
X001731Y005172D01*
X001750Y005168D01*
X001649Y005250D02*
X001640Y005286D01*
X001634Y005324D01*
X001632Y005362D01*
X001634Y005400D01*
X001640Y005437D01*
X001649Y005474D01*
X001219Y004739D02*
X001219Y004739D01*
X002918Y004737D02*
X003976Y004737D01*
X004261Y004942D02*
X004261Y005188D01*
X004713Y005188D01*
X004713Y004939D01*
X004707Y007274D02*
X004261Y007274D01*
X004262Y007560D01*
X003936Y007766D02*
X002938Y007766D01*
X002586Y008521D02*
X002279Y008521D01*
X002126Y008521D02*
X001819Y008982D01*
X002126Y008982D02*
X001819Y008521D01*
X002279Y008828D02*
X002433Y008982D01*
X002433Y008521D01*
X003695Y010221D02*
X003579Y010338D01*
X003695Y010455D01*
X003929Y010455D01*
X003929Y010580D02*
X003929Y010814D01*
X003929Y010697D02*
X003579Y010697D01*
X003695Y010580D01*
X003754Y010455D02*
X003754Y010221D01*
X003695Y010221D02*
X003929Y010221D01*
X003871Y010939D02*
X003929Y010998D01*
X003929Y011114D01*
X003871Y011173D01*
X003754Y011173D01*
X003695Y011114D01*
X003695Y011056D01*
X003754Y010939D01*
X003579Y010939D01*
X003579Y011173D01*
X003871Y011357D02*
X003929Y011357D01*
X003929Y011415D01*
X003871Y011415D01*
X003871Y011357D01*
X003929Y011415D02*
X004046Y011298D01*
X003929Y011538D02*
X003695Y011771D01*
X003637Y011771D01*
X003579Y011713D01*
X003579Y011596D01*
X003637Y011538D01*
X003929Y011538D02*
X003929Y011771D01*
X003929Y011897D02*
X003695Y011897D01*
X003695Y011955D01*
X003754Y012014D01*
X003695Y012072D01*
X003754Y012130D01*
X003929Y012130D01*
X003929Y012014D02*
X003754Y012014D01*
X003695Y012256D02*
X003695Y012314D01*
X003754Y012373D01*
X003695Y012431D01*
X003754Y012490D01*
X003929Y012490D01*
X003929Y012373D02*
X003754Y012373D01*
X003695Y012256D02*
X003929Y012256D01*
X008969Y016600D02*
X008969Y016831D01*
X009045Y016907D01*
X009199Y016907D01*
X009276Y016831D01*
X009276Y016600D01*
X009429Y016600D02*
X008969Y016600D01*
X009276Y016754D02*
X009429Y016907D01*
X009429Y017061D02*
X009429Y017368D01*
X009429Y017214D02*
X008969Y017214D01*
X009122Y017061D01*
X010373Y018482D02*
X010526Y018482D01*
X010603Y018559D01*
X010603Y018943D01*
X010757Y018866D02*
X010833Y018943D01*
X010987Y018943D01*
X011064Y018866D01*
X011217Y018943D02*
X011217Y018712D01*
X011370Y018789D01*
X011447Y018789D01*
X011524Y018712D01*
X011524Y018559D01*
X011447Y018482D01*
X011294Y018482D01*
X011217Y018559D01*
X011064Y018559D02*
X010987Y018482D01*
X010833Y018482D01*
X010757Y018559D01*
X010757Y018866D01*
X011217Y018943D02*
X011524Y018943D01*
X011677Y018866D02*
X011754Y018943D01*
X011907Y018943D01*
X011984Y018866D01*
X011984Y018789D01*
X011907Y018712D01*
X011984Y018636D01*
X011984Y018559D01*
X011907Y018482D01*
X011754Y018482D01*
X011677Y018559D01*
X011831Y018712D02*
X011907Y018712D01*
X012138Y018712D02*
X012291Y018789D01*
X012368Y018789D01*
X012445Y018712D01*
X012445Y018559D01*
X012368Y018482D01*
X012214Y018482D01*
X012138Y018559D01*
X012138Y018712D02*
X012138Y018943D01*
X012445Y018943D01*
X012598Y018866D02*
X012675Y018943D01*
X012828Y018943D01*
X012905Y018866D01*
X012598Y018559D01*
X012675Y018482D01*
X012828Y018482D01*
X012905Y018559D01*
X012905Y018866D01*
X013058Y018943D02*
X013058Y018482D01*
X013289Y018482D01*
X013365Y018559D01*
X013365Y018866D01*
X013289Y018943D01*
X013058Y018943D01*
X012598Y018866D02*
X012598Y018559D01*
X010373Y018482D02*
X010296Y018559D01*
X010296Y018943D01*
X012291Y016193D02*
X012445Y016193D01*
X012368Y016193D02*
X012368Y015732D01*
X012291Y015732D02*
X012445Y015732D01*
X012598Y015809D02*
X012675Y015732D01*
X012828Y015732D01*
X012905Y015809D01*
X013059Y015809D02*
X013135Y015732D01*
X013289Y015732D01*
X013365Y015809D01*
X013365Y015886D01*
X013289Y015962D01*
X013212Y015962D01*
X013289Y015962D02*
X013365Y016039D01*
X013365Y016116D01*
X013289Y016193D01*
X013135Y016193D01*
X013059Y016116D01*
X012905Y016116D02*
X012828Y016193D01*
X012675Y016193D01*
X012598Y016116D01*
X012598Y015809D01*
X016376Y016825D02*
X016453Y016748D01*
X016760Y016748D01*
X016837Y016825D01*
X016837Y016978D01*
X016760Y017055D01*
X016760Y017208D02*
X016837Y017285D01*
X016837Y017438D01*
X016760Y017515D01*
X016683Y017515D01*
X016606Y017438D01*
X016606Y017208D01*
X016760Y017208D01*
X016606Y017208D02*
X016453Y017362D01*
X016376Y017515D01*
X016453Y017055D02*
X016376Y016978D01*
X016376Y016825D01*
X015249Y012488D02*
X015249Y012182D01*
X015019Y012412D01*
X015479Y012412D01*
X015402Y012028D02*
X015479Y011951D01*
X015479Y011798D01*
X015402Y011721D01*
X015095Y011721D01*
X015019Y011798D01*
X015019Y011951D01*
X015095Y012028D01*
X013579Y011951D02*
X013579Y011798D01*
X013502Y011721D01*
X013195Y011721D01*
X013119Y011798D01*
X013119Y011951D01*
X013195Y012028D01*
X013119Y012182D02*
X013349Y012182D01*
X013272Y012335D01*
X013272Y012412D01*
X013349Y012488D01*
X013502Y012488D01*
X013579Y012412D01*
X013579Y012258D01*
X013502Y012182D01*
X013502Y012028D02*
X013579Y011951D01*
X013119Y012182D02*
X013119Y012488D01*
X004707Y007560D02*
X004707Y007274D01*
X007717Y004639D02*
X007794Y004639D01*
X008101Y004332D01*
X008177Y004332D01*
X008101Y004179D02*
X008177Y004102D01*
X008177Y003949D01*
X008101Y003872D01*
X007794Y003872D01*
X007717Y003949D01*
X007717Y004102D01*
X007794Y004179D01*
X007717Y004332D02*
X007717Y004639D01*
X026767Y002158D02*
X026921Y002312D01*
X026921Y001851D01*
X027074Y001851D02*
X026767Y001851D01*
X036374Y007850D02*
X036527Y007697D01*
X036681Y007697D01*
X036834Y007850D01*
X036758Y008004D02*
X036834Y008080D01*
X036834Y008234D01*
X036758Y008310D01*
X036834Y008464D02*
X036681Y008617D01*
X036527Y008617D01*
X036374Y008464D01*
X036451Y008310D02*
X036374Y008234D01*
X036374Y008080D01*
X036451Y008004D01*
X036758Y008004D01*
X036834Y009231D02*
X036374Y009231D01*
X036374Y009461D01*
X036451Y009538D01*
X036527Y009538D01*
X036604Y009461D01*
X036604Y009231D01*
X036834Y009231D02*
X036834Y009461D01*
X036758Y009538D01*
X036681Y009538D01*
X036604Y009461D01*
X036527Y009691D02*
X036834Y009691D01*
X036681Y009691D02*
X036527Y009845D01*
X036527Y009922D01*
X036527Y010152D02*
X036527Y010305D01*
X036604Y010382D01*
X036834Y010382D01*
X036834Y010152D01*
X036758Y010075D01*
X036681Y010152D01*
X036681Y010382D01*
X036834Y010535D02*
X036527Y010535D01*
X036527Y010766D01*
X036604Y010842D01*
X036834Y010842D01*
X036758Y010996D02*
X036604Y010996D01*
X036527Y011073D01*
X036527Y011303D01*
X036374Y011303D02*
X036834Y011303D01*
X036834Y011073D01*
X036758Y010996D01*
X036758Y011456D02*
X036604Y011456D01*
X036527Y011533D01*
X036527Y011686D01*
X036604Y011763D01*
X036758Y011763D01*
X036834Y011686D01*
X036834Y011533D01*
X036758Y011456D01*
X036834Y011917D02*
X036527Y011917D01*
X036527Y012147D01*
X036604Y012223D01*
X036834Y012223D01*
X036834Y012837D02*
X036374Y012837D01*
X036374Y013144D01*
X036604Y012991D02*
X036604Y012837D01*
X036604Y013298D02*
X036758Y013298D01*
X036834Y013374D01*
X036834Y013528D01*
X036758Y013604D01*
X036604Y013604D01*
X036527Y013528D01*
X036527Y013374D01*
X036604Y013298D01*
X036604Y013758D02*
X036527Y013835D01*
X036527Y014065D01*
X036604Y014218D02*
X036527Y014295D01*
X036527Y014525D01*
X036374Y014525D02*
X036834Y014525D01*
X036834Y014295D01*
X036758Y014218D01*
X036604Y014218D01*
X036758Y014065D02*
X036681Y013988D01*
X036681Y013835D01*
X036604Y013758D01*
X036834Y013758D02*
X036834Y013988D01*
X036758Y014065D01*
X036834Y014679D02*
X036834Y014832D01*
X036834Y014755D02*
X036527Y014755D01*
X036527Y014679D01*
X036374Y014755D02*
X036297Y014755D01*
X036604Y014986D02*
X036758Y014986D01*
X036834Y015062D01*
X036834Y015292D01*
X036834Y015446D02*
X036374Y015446D01*
X036527Y015292D02*
X036527Y015062D01*
X036604Y014986D01*
X036681Y015446D02*
X036527Y015676D01*
X036681Y015446D02*
X036834Y015676D01*
X036834Y016290D02*
X036527Y016597D01*
X036451Y016597D01*
X036374Y016520D01*
X036374Y016367D01*
X036451Y016290D01*
X036834Y016290D02*
X036834Y016597D01*
X036758Y016750D02*
X036451Y016750D01*
X036374Y016827D01*
X036374Y016980D01*
X036451Y017057D01*
X036758Y016750D01*
X036834Y016827D01*
X036834Y016980D01*
X036758Y017057D01*
X036451Y017057D01*
X036451Y017211D02*
X036374Y017287D01*
X036374Y017441D01*
X036451Y017517D01*
X036758Y017211D01*
X036834Y017287D01*
X036834Y017441D01*
X036758Y017517D01*
X036451Y017517D01*
X036374Y017671D02*
X036374Y017978D01*
X036451Y017978D01*
X036758Y017671D01*
X036834Y017671D01*
X036758Y017211D02*
X036451Y017211D01*
X038174Y015998D02*
X038174Y015844D01*
X038251Y015767D01*
X038327Y015614D02*
X038634Y015461D01*
X038327Y015307D01*
X038634Y015767D02*
X038327Y016074D01*
X038251Y016074D01*
X038174Y015998D01*
X038634Y016074D02*
X038634Y015767D01*
X038481Y014693D02*
X038481Y014386D01*
X038558Y014386D02*
X038404Y014386D01*
X038327Y014463D01*
X038327Y014617D01*
X038404Y014693D01*
X038481Y014693D01*
X038634Y014617D02*
X038634Y014463D01*
X038558Y014386D01*
X038634Y014233D02*
X038634Y014003D01*
X038558Y013926D01*
X038404Y013926D01*
X038327Y014003D01*
X038327Y014233D01*
X038174Y014233D02*
X038634Y014233D01*
X038558Y013773D02*
X038404Y013773D01*
X038327Y013696D01*
X038327Y013542D01*
X038404Y013466D01*
X038558Y013466D01*
X038634Y013542D01*
X038634Y013696D01*
X038558Y013773D01*
X038634Y013312D02*
X038174Y013312D01*
X038174Y013005D02*
X038634Y013312D01*
X038634Y013005D02*
X038174Y013005D01*
X038327Y012391D02*
X038711Y012391D01*
X038788Y012315D01*
X038788Y012238D01*
X038634Y012161D02*
X038634Y012391D01*
X038634Y012161D02*
X038558Y012085D01*
X038327Y012085D01*
X038404Y011931D02*
X038327Y011854D01*
X038327Y011701D01*
X038481Y011701D02*
X038481Y011931D01*
X038404Y011931D02*
X038634Y011931D01*
X038634Y011701D01*
X038558Y011624D01*
X038481Y011701D01*
X038634Y011471D02*
X038634Y011317D01*
X038634Y011394D02*
X038174Y011394D01*
X038174Y011317D01*
X038327Y011087D02*
X038404Y011164D01*
X038481Y011164D01*
X038481Y010857D01*
X038558Y010857D02*
X038404Y010857D01*
X038327Y010934D01*
X038327Y011087D01*
X038634Y011087D02*
X038634Y010934D01*
X038558Y010857D01*
X038634Y010704D02*
X038481Y010550D01*
X038481Y010627D02*
X038481Y010397D01*
X038634Y010397D02*
X038174Y010397D01*
X038174Y010627D01*
X038251Y010704D01*
X038404Y010704D01*
X038481Y010627D01*
X032191Y012866D02*
X032191Y013019D01*
X032191Y012942D02*
X031731Y012942D01*
X031731Y012866D02*
X031731Y013019D01*
X031808Y013172D02*
X032115Y013172D01*
X032191Y013249D01*
X032191Y013403D01*
X032115Y013479D01*
X032115Y013633D02*
X032191Y013710D01*
X032191Y013863D01*
X032115Y013940D01*
X032038Y013940D01*
X031961Y013863D01*
X031961Y013710D01*
X031884Y013633D01*
X031808Y013633D01*
X031731Y013710D01*
X031731Y013863D01*
X031808Y013940D01*
X031731Y014093D02*
X031731Y014323D01*
X031808Y014400D01*
X031961Y014400D01*
X032038Y014323D01*
X032038Y014093D01*
X032191Y014093D02*
X031731Y014093D01*
X031808Y013479D02*
X031731Y013403D01*
X031731Y013249D01*
X031808Y013172D01*
X031109Y011332D02*
X030956Y011332D01*
X030879Y011255D01*
X030726Y011255D02*
X030726Y011101D01*
X030649Y011025D01*
X030419Y011025D01*
X030572Y011025D02*
X030726Y010871D01*
X030879Y010871D02*
X031186Y011178D01*
X031186Y011255D01*
X031109Y011332D01*
X030726Y011255D02*
X030649Y011332D01*
X030419Y011332D01*
X030419Y010871D01*
X030879Y010871D02*
X031186Y010871D01*
X029771Y010864D02*
X029465Y010864D01*
X029618Y010864D02*
X029618Y011324D01*
X029465Y011171D01*
X029311Y011247D02*
X029311Y010940D01*
X029234Y010864D01*
X029004Y010864D01*
X029004Y011324D01*
X029234Y011324D01*
X029311Y011247D01*
X028851Y011324D02*
X028544Y011324D01*
X028544Y010864D01*
X028851Y010864D01*
X028697Y011094D02*
X028544Y011094D01*
X028390Y010864D02*
X028084Y010864D01*
X028084Y011324D01*
X029719Y016221D02*
X029949Y016221D01*
X030026Y016298D01*
X030026Y016605D01*
X029949Y016682D01*
X029719Y016682D01*
X029719Y016221D01*
X030179Y016221D02*
X030486Y016528D01*
X030486Y016605D01*
X030409Y016682D01*
X030256Y016682D01*
X030179Y016605D01*
X030179Y016221D02*
X030486Y016221D01*
X028707Y023486D02*
X028400Y023486D01*
X028553Y023486D02*
X028553Y023946D01*
X028400Y023793D01*
X016107Y023486D02*
X015800Y023486D01*
X015953Y023486D02*
X015953Y023946D01*
X015800Y023793D01*
X039378Y002163D02*
X039531Y002317D01*
X039531Y001856D01*
X039378Y001856D02*
X039685Y001856D01*
D11*
X039444Y001022D02*
X039230Y001022D01*
X039124Y000915D01*
X039337Y000701D02*
X039444Y000701D01*
X039551Y000595D01*
X039551Y000488D01*
X039444Y000381D01*
X039230Y000381D01*
X039124Y000488D01*
X038906Y000381D02*
X038479Y000381D01*
X038692Y000381D02*
X038692Y001022D01*
X038479Y000808D01*
X037651Y000701D02*
X037224Y000701D01*
X037544Y001022D01*
X037544Y000381D01*
X037006Y000381D02*
X036579Y000381D01*
X036792Y000381D02*
X036792Y001022D01*
X036579Y000808D01*
X035551Y000701D02*
X035551Y000488D01*
X035444Y000381D01*
X035230Y000381D01*
X035124Y000488D01*
X035124Y000701D02*
X035337Y000808D01*
X035444Y000808D01*
X035551Y000701D01*
X035551Y001022D02*
X035124Y001022D01*
X035124Y000701D01*
X034906Y000381D02*
X034479Y000381D01*
X034692Y000381D02*
X034692Y001022D01*
X034479Y000808D01*
X033551Y000595D02*
X033444Y000701D01*
X033124Y000701D01*
X033124Y000488D01*
X033230Y000381D01*
X033444Y000381D01*
X033551Y000488D01*
X033551Y000595D01*
X033337Y000915D02*
X033124Y000701D01*
X033337Y000915D02*
X033551Y001022D01*
X032692Y001022D02*
X032692Y000381D01*
X032479Y000381D02*
X032906Y000381D01*
X032479Y000808D02*
X032692Y001022D01*
X031551Y001022D02*
X031551Y000915D01*
X031124Y000488D01*
X031124Y000381D01*
X030906Y000381D02*
X030479Y000381D01*
X030692Y000381D02*
X030692Y001022D01*
X030479Y000808D01*
X031124Y001022D02*
X031551Y001022D01*
X029551Y000915D02*
X029551Y000808D01*
X029444Y000701D01*
X029230Y000701D01*
X029124Y000808D01*
X029124Y000915D01*
X029230Y001022D01*
X029444Y001022D01*
X029551Y000915D01*
X029444Y000701D02*
X029551Y000595D01*
X029551Y000488D01*
X029444Y000381D01*
X029230Y000381D01*
X029124Y000488D01*
X029124Y000595D01*
X029230Y000701D01*
X028906Y000381D02*
X028479Y000381D01*
X028692Y000381D02*
X028692Y001022D01*
X028479Y000808D01*
X026951Y000915D02*
X026951Y000488D01*
X026844Y000381D01*
X026630Y000381D01*
X026524Y000488D01*
X026630Y000701D02*
X026524Y000808D01*
X026524Y000915D01*
X026630Y001022D01*
X026844Y001022D01*
X026951Y000915D01*
X026951Y000701D02*
X026630Y000701D01*
X026306Y000381D02*
X025879Y000381D01*
X026092Y000381D02*
X026092Y001022D01*
X025879Y000808D01*
X024951Y000915D02*
X024951Y000488D01*
X024844Y000381D01*
X024630Y000381D01*
X024524Y000488D01*
X024951Y000915D01*
X024844Y001022D01*
X024630Y001022D01*
X024524Y000915D01*
X024524Y000488D01*
X024306Y000381D02*
X023879Y000381D01*
X024306Y000808D01*
X024306Y000915D01*
X024199Y001022D01*
X023986Y001022D01*
X023879Y000915D01*
X022951Y000381D02*
X022524Y000381D01*
X022737Y000381D02*
X022737Y001022D01*
X022524Y000808D01*
X022306Y000808D02*
X022306Y000915D01*
X022199Y001022D01*
X021986Y001022D01*
X021879Y000915D01*
X022306Y000808D02*
X021879Y000381D01*
X022306Y000381D01*
X020951Y000381D02*
X020524Y000381D01*
X020951Y000808D01*
X020951Y000915D01*
X020844Y001022D01*
X020630Y001022D01*
X020524Y000915D01*
X020306Y000915D02*
X020199Y001022D01*
X019986Y001022D01*
X019879Y000915D01*
X020306Y000915D02*
X020306Y000808D01*
X019879Y000381D01*
X020306Y000381D01*
X019051Y000488D02*
X018944Y000381D01*
X018730Y000381D01*
X018624Y000488D01*
X018406Y000381D02*
X017979Y000381D01*
X018406Y000808D01*
X018406Y000915D01*
X018299Y001022D01*
X018086Y001022D01*
X017979Y000915D01*
X018624Y000915D02*
X018730Y001022D01*
X018944Y001022D01*
X019051Y000915D01*
X019051Y000808D01*
X018944Y000701D01*
X019051Y000595D01*
X019051Y000488D01*
X018944Y000701D02*
X018837Y000701D01*
X016951Y000701D02*
X016524Y000701D01*
X016844Y001022D01*
X016844Y000381D01*
X016306Y000381D02*
X015879Y000381D01*
X016306Y000808D01*
X016306Y000915D01*
X016199Y001022D01*
X015986Y001022D01*
X015879Y000915D01*
X012096Y005300D02*
X012096Y007603D01*
X008002Y007603D01*
X008002Y005300D01*
X012096Y005300D01*
X011531Y007219D02*
X011533Y007246D01*
X011539Y007272D01*
X011549Y007298D01*
X011562Y007321D01*
X011579Y007342D01*
X011599Y007361D01*
X011622Y007376D01*
X011646Y007387D01*
X011672Y007395D01*
X011698Y007399D01*
X011726Y007399D01*
X011752Y007395D01*
X011778Y007387D01*
X011803Y007376D01*
X011825Y007361D01*
X011845Y007342D01*
X011862Y007321D01*
X011875Y007298D01*
X011885Y007272D01*
X011891Y007246D01*
X011893Y007219D01*
X011891Y007192D01*
X011885Y007166D01*
X011875Y007140D01*
X011862Y007117D01*
X011845Y007096D01*
X011825Y007077D01*
X011802Y007062D01*
X011778Y007051D01*
X011752Y007043D01*
X011726Y007039D01*
X011698Y007039D01*
X011672Y007043D01*
X011646Y007051D01*
X011621Y007062D01*
X011599Y007077D01*
X011579Y007096D01*
X011562Y007117D01*
X011549Y007140D01*
X011539Y007166D01*
X011533Y007192D01*
X011531Y007219D01*
X021156Y011712D02*
X021156Y011925D01*
X021156Y011819D02*
X021797Y011819D01*
X021797Y011925D02*
X021797Y011712D01*
X021690Y012142D02*
X021263Y012142D01*
X021156Y012248D01*
X021156Y012462D01*
X021263Y012569D01*
X021370Y012786D02*
X021156Y013000D01*
X021797Y013000D01*
X021797Y013213D02*
X021797Y012786D01*
X021690Y012569D02*
X021797Y012462D01*
X021797Y012248D01*
X021690Y012142D01*
X029889Y015391D02*
X029889Y015711D01*
X030109Y015711D01*
X030789Y015711D02*
X031009Y015711D01*
X031009Y015391D01*
X033979Y015681D02*
X033979Y016322D01*
X034192Y016108D01*
X034406Y016322D01*
X034406Y015681D01*
X034624Y015788D02*
X034730Y015681D01*
X034944Y015681D01*
X035051Y015788D01*
X035268Y015681D02*
X035695Y015681D01*
X035913Y015681D02*
X035913Y016322D01*
X036233Y016322D01*
X036340Y016215D01*
X036340Y016001D01*
X036233Y015895D01*
X035913Y015895D01*
X036126Y015895D02*
X036340Y015681D01*
X035695Y015322D02*
X035695Y014895D01*
X035482Y014681D01*
X035268Y014895D01*
X035268Y015322D01*
X035051Y015322D02*
X034624Y015322D01*
X034624Y015001D01*
X034837Y015108D01*
X034944Y015108D01*
X035051Y015001D01*
X035051Y014788D01*
X034944Y014681D01*
X034730Y014681D01*
X034624Y014788D01*
X034406Y015001D02*
X033979Y015001D01*
X034192Y015215D02*
X034192Y014788D01*
X034086Y014322D02*
X033979Y014215D01*
X033979Y013788D01*
X034086Y013681D01*
X034299Y013681D01*
X034406Y013788D01*
X034406Y014001D01*
X034192Y014001D01*
X034406Y014215D02*
X034299Y014322D01*
X034086Y014322D01*
X034624Y014322D02*
X034624Y013681D01*
X034730Y013322D02*
X034624Y013215D01*
X034624Y012788D01*
X034730Y012681D01*
X034944Y012681D01*
X035051Y012788D01*
X035051Y013001D01*
X034837Y013001D01*
X035051Y013215D02*
X034944Y013322D01*
X034730Y013322D01*
X034406Y013215D02*
X034406Y013001D01*
X034299Y012895D01*
X033979Y012895D01*
X033979Y012681D02*
X033979Y013322D01*
X034299Y013322D01*
X034406Y013215D01*
X035051Y013681D02*
X035051Y014322D01*
X035268Y014322D02*
X035588Y014322D01*
X035695Y014215D01*
X035695Y013788D01*
X035588Y013681D01*
X035268Y013681D01*
X035268Y014322D01*
X034624Y014322D02*
X035051Y013681D01*
X035268Y013322D02*
X035588Y013322D01*
X035695Y013215D01*
X035695Y012788D01*
X035588Y012681D01*
X035268Y012681D01*
X035268Y013322D01*
X035375Y012322D02*
X035268Y012215D01*
X035268Y011788D01*
X035375Y011681D01*
X035588Y011681D01*
X035695Y011788D01*
X035695Y011322D02*
X035695Y010681D01*
X035268Y010681D02*
X035268Y011322D01*
X035482Y011108D01*
X035695Y011322D01*
X035051Y011215D02*
X034944Y011322D01*
X034730Y011322D01*
X034624Y011215D01*
X034624Y010788D01*
X034730Y010681D01*
X034944Y010681D01*
X035051Y010788D01*
X035051Y011001D01*
X034837Y011001D01*
X034406Y011001D02*
X034406Y011215D01*
X034299Y011322D01*
X033979Y011322D01*
X033979Y010681D01*
X033979Y010895D02*
X034299Y010895D01*
X034406Y011001D01*
X034730Y011681D02*
X034944Y011681D01*
X035051Y011788D01*
X035051Y012001D01*
X034837Y012001D01*
X034624Y011788D02*
X034730Y011681D01*
X034624Y011788D02*
X034624Y012215D01*
X034730Y012322D01*
X034944Y012322D01*
X035051Y012215D01*
X035375Y012322D02*
X035588Y012322D01*
X035695Y012215D01*
X034406Y012215D02*
X034406Y012001D01*
X034299Y011895D01*
X033979Y011895D01*
X033979Y011681D02*
X033979Y012322D01*
X034299Y012322D01*
X034406Y012215D01*
X035268Y015681D02*
X035268Y016322D01*
X035051Y016215D02*
X034944Y016322D01*
X034730Y016322D01*
X034624Y016215D01*
X034624Y015788D01*
X034692Y024681D02*
X034692Y025322D01*
X034479Y025108D01*
X034479Y024681D02*
X034906Y024681D01*
X035124Y024788D02*
X035124Y025215D01*
X035230Y025322D01*
X035444Y025322D01*
X035551Y025215D01*
X035124Y024788D01*
X035230Y024681D01*
X035444Y024681D01*
X035551Y024788D01*
X035551Y025215D01*
X036479Y025108D02*
X036692Y025322D01*
X036692Y024681D01*
X036479Y024681D02*
X036906Y024681D01*
X037124Y024681D02*
X037551Y024681D01*
X037337Y024681D02*
X037337Y025322D01*
X037124Y025108D01*
X038479Y025108D02*
X038692Y025322D01*
X038692Y024681D01*
X038479Y024681D02*
X038906Y024681D01*
X039124Y024681D02*
X039551Y025108D01*
X039551Y025215D01*
X039444Y025322D01*
X039230Y025322D01*
X039124Y025215D01*
X039124Y024681D02*
X039551Y024681D01*
X033306Y024788D02*
X033306Y025215D01*
X033199Y025322D01*
X032986Y025322D01*
X032879Y025215D01*
X032879Y025108D01*
X032986Y025001D01*
X033306Y025001D01*
X033306Y024788D02*
X033199Y024681D01*
X032986Y024681D01*
X032879Y024788D01*
X031306Y024788D02*
X031199Y024681D01*
X030986Y024681D01*
X030879Y024788D01*
X030879Y024895D01*
X030986Y025001D01*
X031199Y025001D01*
X031306Y024895D01*
X031306Y024788D01*
X031199Y025001D02*
X031306Y025108D01*
X031306Y025215D01*
X031199Y025322D01*
X030986Y025322D01*
X030879Y025215D01*
X030879Y025108D01*
X030986Y025001D01*
X029306Y025215D02*
X028879Y024788D01*
X028879Y024681D01*
X029306Y025215D02*
X029306Y025322D01*
X028879Y025322D01*
X026706Y025322D02*
X026492Y025215D01*
X026279Y025001D01*
X026599Y025001D01*
X026706Y024895D01*
X026706Y024788D01*
X026599Y024681D01*
X026386Y024681D01*
X026279Y024788D01*
X026279Y025001D01*
X024706Y025001D02*
X024706Y024788D01*
X024599Y024681D01*
X024386Y024681D01*
X024279Y024788D01*
X024279Y025001D02*
X024492Y025108D01*
X024599Y025108D01*
X024706Y025001D01*
X024706Y025322D02*
X024279Y025322D01*
X024279Y025001D01*
X022706Y025001D02*
X022279Y025001D01*
X022599Y025322D01*
X022599Y024681D01*
X020706Y024788D02*
X020599Y024681D01*
X020386Y024681D01*
X020279Y024788D01*
X020492Y025001D02*
X020599Y025001D01*
X020706Y024895D01*
X020706Y024788D01*
X020599Y025001D02*
X020706Y025108D01*
X020706Y025215D01*
X020599Y025322D01*
X020386Y025322D01*
X020279Y025215D01*
X018706Y025215D02*
X018599Y025322D01*
X018386Y025322D01*
X018279Y025215D01*
X018706Y025215D02*
X018706Y025108D01*
X018279Y024681D01*
X018706Y024681D01*
X016706Y024681D02*
X016279Y024681D01*
X016492Y024681D02*
X016492Y025322D01*
X016279Y025108D01*
X014619Y029775D02*
X014192Y029775D01*
X013974Y029882D02*
X013868Y029775D01*
X013654Y029775D01*
X013547Y029882D01*
X013547Y030096D01*
X013654Y030202D01*
X013761Y030202D01*
X013974Y030096D01*
X013974Y030416D01*
X013547Y030416D01*
X014192Y030309D02*
X014299Y030416D01*
X014512Y030416D01*
X014619Y030309D01*
X014192Y030309D02*
X014192Y030202D01*
X014619Y029775D01*
X014688Y031025D02*
X014368Y031025D01*
X014261Y031132D01*
X014261Y031346D01*
X014368Y031452D01*
X014688Y031452D01*
X014906Y031346D02*
X015012Y031452D01*
X015226Y031452D01*
X015333Y031346D01*
X015333Y031239D01*
X014906Y031239D01*
X014906Y031132D02*
X014906Y031346D01*
X014906Y031132D02*
X015012Y031025D01*
X015226Y031025D01*
X014043Y031025D02*
X013723Y031025D01*
X013616Y031132D01*
X013723Y031239D01*
X014043Y031239D01*
X014043Y031346D02*
X014043Y031025D01*
X014043Y031346D02*
X013937Y031452D01*
X013723Y031452D01*
X013294Y031666D02*
X013294Y031025D01*
X013400Y031025D02*
X013187Y031025D01*
X012969Y031346D02*
X012862Y031239D01*
X012542Y031239D01*
X012542Y031025D02*
X012542Y031666D01*
X012862Y031666D01*
X012969Y031559D01*
X012969Y031346D01*
X013187Y031666D02*
X013294Y031666D01*
X012326Y031452D02*
X012113Y031452D01*
X012219Y031559D02*
X012219Y031132D01*
X012326Y031025D01*
X012256Y030416D02*
X011829Y029775D01*
X011829Y030416D01*
X011504Y030202D02*
X011291Y030202D01*
X011184Y030096D01*
X011184Y029775D01*
X011504Y029775D01*
X011611Y029882D01*
X011504Y029989D01*
X011184Y029989D01*
X010967Y029775D02*
X010967Y030202D01*
X010860Y030202D01*
X010753Y030096D01*
X010646Y030202D01*
X010540Y030096D01*
X010540Y029775D01*
X010753Y029775D02*
X010753Y030096D01*
X010322Y030096D02*
X010215Y030202D01*
X010002Y030202D01*
X009895Y030096D01*
X009895Y029989D01*
X010322Y029989D01*
X010322Y029882D02*
X010322Y030096D01*
X010322Y029882D02*
X010215Y029775D01*
X010002Y029775D01*
X010179Y031025D02*
X010606Y031452D01*
X010606Y031559D01*
X010499Y031666D01*
X010286Y031666D01*
X010179Y031559D01*
X010824Y031452D02*
X011037Y031666D01*
X011037Y031025D01*
X010824Y031025D02*
X011251Y031025D01*
X010606Y031025D02*
X010179Y031025D01*
X012256Y030416D02*
X012256Y029775D01*
X012472Y029775D02*
X012579Y029882D01*
X012579Y030309D01*
X012685Y030202D02*
X012472Y030202D01*
X009516Y027346D02*
X009516Y027025D01*
X009516Y027346D02*
X009409Y027452D01*
X009089Y027452D01*
X009089Y027025D01*
X008872Y027132D02*
X008872Y027346D01*
X008765Y027452D01*
X008551Y027452D01*
X008445Y027346D01*
X008445Y027132D01*
X008551Y027025D01*
X008765Y027025D01*
X008872Y027132D01*
X008228Y027025D02*
X008015Y027025D01*
X008122Y027025D02*
X008122Y027452D01*
X008015Y027452D01*
X007797Y027452D02*
X007477Y027452D01*
X007370Y027346D01*
X007477Y027239D01*
X007691Y027239D01*
X007797Y027132D01*
X007691Y027025D01*
X007370Y027025D01*
X007153Y027025D02*
X007153Y027346D01*
X007046Y027452D01*
X006726Y027452D01*
X006726Y027025D01*
X006508Y027239D02*
X006081Y027239D01*
X006081Y027346D02*
X006188Y027452D01*
X006402Y027452D01*
X006508Y027346D01*
X006508Y027239D01*
X006402Y027025D02*
X006188Y027025D01*
X006081Y027132D01*
X006081Y027346D01*
X005864Y027346D02*
X005864Y027025D01*
X005650Y027025D02*
X005650Y027346D01*
X005757Y027452D01*
X005864Y027346D01*
X005650Y027346D02*
X005544Y027452D01*
X005437Y027452D01*
X005437Y027025D01*
X005221Y027025D02*
X005007Y027025D01*
X005114Y027025D02*
X005114Y027452D01*
X005007Y027452D01*
X005114Y027666D02*
X005114Y027773D01*
X004790Y027559D02*
X004683Y027666D01*
X004363Y027666D01*
X004363Y027025D01*
X004683Y027025D01*
X004790Y027132D01*
X004790Y027559D01*
X003501Y027559D02*
X003501Y027132D01*
X003394Y027025D01*
X003180Y027025D01*
X003074Y027132D01*
X003501Y027559D01*
X003394Y027666D01*
X003180Y027666D01*
X003074Y027559D01*
X003074Y027132D01*
X002856Y027025D02*
X002429Y027025D01*
X002856Y027452D01*
X002856Y027559D01*
X002749Y027666D01*
X002536Y027666D01*
X002429Y027559D01*
X008122Y027666D02*
X008122Y027773D01*
X003037Y022922D02*
X003037Y022281D01*
X002824Y022281D02*
X003251Y022281D01*
X002824Y022708D02*
X003037Y022922D01*
X002606Y022922D02*
X002392Y022922D01*
X002499Y022922D02*
X002499Y022388D01*
X002392Y022281D01*
X002286Y022281D01*
X002179Y022388D01*
X039444Y001022D02*
X039551Y000915D01*
X039551Y000808D01*
X039444Y000701D01*
D12*
X039849Y001251D02*
X038249Y001251D01*
X037849Y001251D02*
X036249Y001251D01*
X035849Y001251D02*
X034249Y001251D01*
X033849Y001251D02*
X032249Y001251D01*
X031849Y001251D02*
X030249Y001251D01*
X029849Y001251D02*
X028249Y001251D01*
X027249Y001251D02*
X025649Y001251D01*
X025249Y001251D02*
X023649Y001251D01*
X023249Y001251D02*
X021649Y001251D01*
X021249Y001251D02*
X019649Y001251D01*
X019249Y001251D02*
X017649Y001251D01*
X017249Y001251D02*
X015649Y001251D01*
X015749Y024451D02*
X017349Y024451D01*
X017649Y024451D02*
X019249Y024451D01*
X019649Y024451D02*
X021249Y024451D01*
X021649Y024451D02*
X023249Y024451D01*
X023649Y024451D02*
X025249Y024451D01*
X025649Y024451D02*
X027249Y024451D01*
X028249Y024451D02*
X029849Y024451D01*
X030249Y024451D02*
X031849Y024451D01*
X032249Y024451D02*
X033849Y024451D01*
X034249Y024451D02*
X035849Y024451D01*
X036249Y024451D02*
X037849Y024451D01*
X038249Y024451D02*
X039849Y024451D01*
D13*
X037465Y017651D02*
X037469Y017740D01*
X037481Y017829D01*
X037501Y017916D01*
X037530Y018002D01*
X037565Y018084D01*
X037608Y018162D01*
X037658Y018237D01*
X037715Y018306D01*
X037777Y018370D01*
X037846Y018428D01*
X037919Y018480D01*
X037996Y018525D01*
X038078Y018562D01*
X038162Y018592D01*
X038249Y018614D01*
X038337Y018629D01*
X038427Y018635D01*
X038516Y018633D01*
X038605Y018623D01*
X038693Y018604D01*
X038779Y018578D01*
X038861Y018544D01*
X038941Y018503D01*
X039016Y018455D01*
X039087Y018400D01*
X039153Y018339D01*
X039212Y018272D01*
X039266Y018200D01*
X039312Y018123D01*
X039352Y018043D01*
X039383Y017959D01*
X039408Y017873D01*
X039424Y017785D01*
X039432Y017696D01*
X039432Y017606D01*
X039424Y017517D01*
X039408Y017429D01*
X039383Y017343D01*
X039352Y017259D01*
X039312Y017179D01*
X039266Y017102D01*
X039212Y017030D01*
X039153Y016963D01*
X039087Y016902D01*
X039016Y016847D01*
X038941Y016799D01*
X038861Y016758D01*
X038779Y016724D01*
X038693Y016698D01*
X038605Y016679D01*
X038516Y016669D01*
X038427Y016667D01*
X038337Y016673D01*
X038249Y016688D01*
X038162Y016710D01*
X038078Y016740D01*
X037996Y016777D01*
X037919Y016822D01*
X037846Y016874D01*
X037777Y016932D01*
X037715Y016996D01*
X037658Y017065D01*
X037608Y017140D01*
X037565Y017218D01*
X037530Y017300D01*
X037501Y017386D01*
X037481Y017473D01*
X037469Y017562D01*
X037465Y017651D01*
X037565Y008251D02*
X037569Y008340D01*
X037581Y008429D01*
X037601Y008516D01*
X037630Y008602D01*
X037665Y008684D01*
X037708Y008762D01*
X037758Y008837D01*
X037815Y008906D01*
X037877Y008970D01*
X037946Y009028D01*
X038019Y009080D01*
X038096Y009125D01*
X038178Y009162D01*
X038262Y009192D01*
X038349Y009214D01*
X038437Y009229D01*
X038527Y009235D01*
X038616Y009233D01*
X038705Y009223D01*
X038793Y009204D01*
X038879Y009178D01*
X038961Y009144D01*
X039041Y009103D01*
X039116Y009055D01*
X039187Y009000D01*
X039253Y008939D01*
X039312Y008872D01*
X039366Y008800D01*
X039412Y008723D01*
X039452Y008643D01*
X039483Y008559D01*
X039508Y008473D01*
X039524Y008385D01*
X039532Y008296D01*
X039532Y008206D01*
X039524Y008117D01*
X039508Y008029D01*
X039483Y007943D01*
X039452Y007859D01*
X039412Y007779D01*
X039366Y007702D01*
X039312Y007630D01*
X039253Y007563D01*
X039187Y007502D01*
X039116Y007447D01*
X039041Y007399D01*
X038961Y007358D01*
X038879Y007324D01*
X038793Y007298D01*
X038705Y007279D01*
X038616Y007269D01*
X038527Y007267D01*
X038437Y007273D01*
X038349Y007288D01*
X038262Y007310D01*
X038178Y007340D01*
X038096Y007377D01*
X038019Y007422D01*
X037946Y007474D01*
X037877Y007532D01*
X037815Y007596D01*
X037758Y007665D01*
X037708Y007740D01*
X037665Y007818D01*
X037630Y007900D01*
X037601Y007986D01*
X037581Y008073D01*
X037569Y008162D01*
X037565Y008251D01*
X003372Y007117D02*
X003374Y007144D01*
X003380Y007170D01*
X003390Y007196D01*
X003404Y007219D01*
X003421Y007240D01*
X003442Y007258D01*
X003464Y007272D01*
X003489Y007284D01*
X003515Y007291D01*
X003542Y007294D01*
X003569Y007293D01*
X003596Y007288D01*
X003621Y007279D01*
X003645Y007266D01*
X003667Y007249D01*
X003686Y007230D01*
X003701Y007207D01*
X003713Y007183D01*
X003721Y007157D01*
X003725Y007131D01*
X003725Y007103D01*
X003721Y007077D01*
X003713Y007051D01*
X003701Y007027D01*
X003686Y007004D01*
X003667Y006985D01*
X003645Y006968D01*
X003621Y006955D01*
X003596Y006946D01*
X003569Y006941D01*
X003542Y006940D01*
X003515Y006943D01*
X003489Y006950D01*
X003464Y006962D01*
X003442Y006976D01*
X003421Y006994D01*
X003404Y007015D01*
X003390Y007038D01*
X003380Y007064D01*
X003374Y007090D01*
X003372Y007117D01*
X003372Y005385D02*
X003374Y005412D01*
X003380Y005438D01*
X003390Y005464D01*
X003404Y005487D01*
X003421Y005508D01*
X003442Y005526D01*
X003464Y005540D01*
X003489Y005552D01*
X003515Y005559D01*
X003542Y005562D01*
X003569Y005561D01*
X003596Y005556D01*
X003621Y005547D01*
X003645Y005534D01*
X003667Y005517D01*
X003686Y005498D01*
X003701Y005475D01*
X003713Y005451D01*
X003721Y005425D01*
X003725Y005399D01*
X003725Y005371D01*
X003721Y005345D01*
X003713Y005319D01*
X003701Y005295D01*
X003686Y005272D01*
X003667Y005253D01*
X003645Y005236D01*
X003621Y005223D01*
X003596Y005214D01*
X003569Y005209D01*
X003542Y005208D01*
X003515Y005211D01*
X003489Y005218D01*
X003464Y005230D01*
X003442Y005244D01*
X003421Y005262D01*
X003404Y005283D01*
X003390Y005306D01*
X003380Y005332D01*
X003374Y005358D01*
X003372Y005385D01*
X002265Y002251D02*
X002269Y002340D01*
X002281Y002429D01*
X002301Y002516D01*
X002330Y002602D01*
X002365Y002684D01*
X002408Y002762D01*
X002458Y002837D01*
X002515Y002906D01*
X002577Y002970D01*
X002646Y003028D01*
X002719Y003080D01*
X002796Y003125D01*
X002878Y003162D01*
X002962Y003192D01*
X003049Y003214D01*
X003137Y003229D01*
X003227Y003235D01*
X003316Y003233D01*
X003405Y003223D01*
X003493Y003204D01*
X003579Y003178D01*
X003661Y003144D01*
X003741Y003103D01*
X003816Y003055D01*
X003887Y003000D01*
X003953Y002939D01*
X004012Y002872D01*
X004066Y002800D01*
X004112Y002723D01*
X004152Y002643D01*
X004183Y002559D01*
X004208Y002473D01*
X004224Y002385D01*
X004232Y002296D01*
X004232Y002206D01*
X004224Y002117D01*
X004208Y002029D01*
X004183Y001943D01*
X004152Y001859D01*
X004112Y001779D01*
X004066Y001702D01*
X004012Y001630D01*
X003953Y001563D01*
X003887Y001502D01*
X003816Y001447D01*
X003741Y001399D01*
X003661Y001358D01*
X003579Y001324D01*
X003493Y001298D01*
X003405Y001279D01*
X003316Y001269D01*
X003227Y001267D01*
X003137Y001273D01*
X003049Y001288D01*
X002962Y001310D01*
X002878Y001340D01*
X002796Y001377D01*
X002719Y001422D01*
X002646Y001474D01*
X002577Y001532D01*
X002515Y001596D01*
X002458Y001665D01*
X002408Y001740D01*
X002365Y001818D01*
X002330Y001900D01*
X002301Y001986D01*
X002281Y002073D01*
X002269Y002162D01*
X002265Y002251D01*
X001999Y011951D02*
X002002Y012010D01*
X002010Y012069D01*
X002023Y012126D01*
X002042Y012183D01*
X002065Y012237D01*
X002094Y012289D01*
X002127Y012338D01*
X002164Y012384D01*
X002205Y012426D01*
X002250Y012464D01*
X002299Y012499D01*
X002350Y012528D01*
X002404Y012553D01*
X002459Y012573D01*
X002517Y012587D01*
X002575Y012597D01*
X002634Y012601D01*
X002693Y012599D01*
X002752Y012593D01*
X002810Y012581D01*
X002867Y012563D01*
X002921Y012541D01*
X002974Y012514D01*
X003024Y012482D01*
X003071Y012446D01*
X003114Y012405D01*
X003153Y012361D01*
X003188Y012314D01*
X003219Y012263D01*
X003245Y012210D01*
X003266Y012155D01*
X003282Y012098D01*
X003293Y012040D01*
X003298Y011981D01*
X003298Y011921D01*
X003293Y011862D01*
X003282Y011804D01*
X003266Y011747D01*
X003245Y011692D01*
X003219Y011639D01*
X003188Y011588D01*
X003153Y011541D01*
X003114Y011497D01*
X003071Y011456D01*
X003024Y011420D01*
X002974Y011388D01*
X002921Y011361D01*
X002867Y011339D01*
X002810Y011321D01*
X002752Y011309D01*
X002693Y011303D01*
X002634Y011301D01*
X002575Y011305D01*
X002517Y011315D01*
X002459Y011329D01*
X002404Y011349D01*
X002350Y011374D01*
X002299Y011403D01*
X002250Y011438D01*
X002205Y011476D01*
X002164Y011518D01*
X002127Y011564D01*
X002094Y011613D01*
X002065Y011665D01*
X002042Y011719D01*
X002023Y011776D01*
X002010Y011833D01*
X002002Y011892D01*
X001999Y011951D01*
X002559Y016501D02*
X002562Y016559D01*
X002570Y016617D01*
X002583Y016674D01*
X002601Y016729D01*
X002624Y016782D01*
X002652Y016834D01*
X002685Y016882D01*
X002721Y016927D01*
X002762Y016969D01*
X002807Y017007D01*
X002854Y017040D01*
X002905Y017069D01*
X002957Y017094D01*
X003012Y017113D01*
X003069Y017128D01*
X003126Y017137D01*
X003184Y017141D01*
X003243Y017140D01*
X003301Y017133D01*
X003358Y017121D01*
X003413Y017104D01*
X003467Y017082D01*
X003519Y017055D01*
X003568Y017024D01*
X003614Y016988D01*
X003657Y016948D01*
X003695Y016905D01*
X003730Y016858D01*
X003760Y016808D01*
X003786Y016756D01*
X003807Y016702D01*
X003822Y016645D01*
X003833Y016588D01*
X003838Y016530D01*
X003838Y016472D01*
X003833Y016414D01*
X003822Y016357D01*
X003807Y016300D01*
X003786Y016246D01*
X003760Y016194D01*
X003730Y016144D01*
X003695Y016097D01*
X003657Y016054D01*
X003614Y016014D01*
X003568Y015978D01*
X003519Y015947D01*
X003467Y015920D01*
X003413Y015898D01*
X003358Y015881D01*
X003301Y015869D01*
X003243Y015862D01*
X003184Y015861D01*
X003126Y015865D01*
X003069Y015874D01*
X003012Y015889D01*
X002957Y015908D01*
X002905Y015933D01*
X002854Y015962D01*
X002807Y015995D01*
X002762Y016033D01*
X002721Y016075D01*
X002685Y016120D01*
X002652Y016168D01*
X002624Y016220D01*
X002601Y016273D01*
X002583Y016328D01*
X002570Y016385D01*
X002562Y016443D01*
X002559Y016501D01*
X002559Y021001D02*
X002562Y021059D01*
X002570Y021117D01*
X002583Y021174D01*
X002601Y021229D01*
X002624Y021282D01*
X002652Y021334D01*
X002685Y021382D01*
X002721Y021427D01*
X002762Y021469D01*
X002807Y021507D01*
X002854Y021540D01*
X002905Y021569D01*
X002957Y021594D01*
X003012Y021613D01*
X003069Y021628D01*
X003126Y021637D01*
X003184Y021641D01*
X003243Y021640D01*
X003301Y021633D01*
X003358Y021621D01*
X003413Y021604D01*
X003467Y021582D01*
X003519Y021555D01*
X003568Y021524D01*
X003614Y021488D01*
X003657Y021448D01*
X003695Y021405D01*
X003730Y021358D01*
X003760Y021308D01*
X003786Y021256D01*
X003807Y021202D01*
X003822Y021145D01*
X003833Y021088D01*
X003838Y021030D01*
X003838Y020972D01*
X003833Y020914D01*
X003822Y020857D01*
X003807Y020800D01*
X003786Y020746D01*
X003760Y020694D01*
X003730Y020644D01*
X003695Y020597D01*
X003657Y020554D01*
X003614Y020514D01*
X003568Y020478D01*
X003519Y020447D01*
X003467Y020420D01*
X003413Y020398D01*
X003358Y020381D01*
X003301Y020369D01*
X003243Y020362D01*
X003184Y020361D01*
X003126Y020365D01*
X003069Y020374D01*
X003012Y020389D01*
X002957Y020408D01*
X002905Y020433D01*
X002854Y020462D01*
X002807Y020495D01*
X002762Y020533D01*
X002721Y020575D01*
X002685Y020620D01*
X002652Y020668D01*
X002624Y020720D01*
X002601Y020773D01*
X002583Y020828D01*
X002570Y020885D01*
X002562Y020943D01*
X002559Y021001D01*
X002165Y023951D02*
X002169Y024040D01*
X002181Y024129D01*
X002201Y024216D01*
X002230Y024302D01*
X002265Y024384D01*
X002308Y024462D01*
X002358Y024537D01*
X002415Y024606D01*
X002477Y024670D01*
X002546Y024728D01*
X002619Y024780D01*
X002696Y024825D01*
X002778Y024862D01*
X002862Y024892D01*
X002949Y024914D01*
X003037Y024929D01*
X003127Y024935D01*
X003216Y024933D01*
X003305Y024923D01*
X003393Y024904D01*
X003479Y024878D01*
X003561Y024844D01*
X003641Y024803D01*
X003716Y024755D01*
X003787Y024700D01*
X003853Y024639D01*
X003912Y024572D01*
X003966Y024500D01*
X004012Y024423D01*
X004052Y024343D01*
X004083Y024259D01*
X004108Y024173D01*
X004124Y024085D01*
X004132Y023996D01*
X004132Y023906D01*
X004124Y023817D01*
X004108Y023729D01*
X004083Y023643D01*
X004052Y023559D01*
X004012Y023479D01*
X003966Y023402D01*
X003912Y023330D01*
X003853Y023263D01*
X003787Y023202D01*
X003716Y023147D01*
X003641Y023099D01*
X003561Y023058D01*
X003479Y023024D01*
X003393Y022998D01*
X003305Y022979D01*
X003216Y022969D01*
X003127Y022967D01*
X003037Y022973D01*
X002949Y022988D01*
X002862Y023010D01*
X002778Y023040D01*
X002696Y023077D01*
X002619Y023122D01*
X002546Y023174D01*
X002477Y023232D01*
X002415Y023296D01*
X002358Y023365D01*
X002308Y023440D01*
X002265Y023518D01*
X002230Y023600D01*
X002201Y023686D01*
X002181Y023773D01*
X002169Y023862D01*
X002165Y023951D01*
D14*
X001149Y000151D02*
X040519Y000151D01*
X040519Y025742D01*
X001149Y025742D01*
X001149Y000151D01*
X015377Y001583D02*
X015377Y004024D01*
X027582Y004024D01*
X027582Y001583D01*
X015377Y001583D01*
X017458Y005138D02*
X017458Y005549D01*
X018640Y005549D01*
X018640Y005138D01*
X017458Y005138D01*
X018535Y005447D02*
X018537Y005455D01*
X018543Y005460D01*
X018551Y005461D01*
X018558Y005458D01*
X018562Y005451D01*
X018562Y005443D01*
X018558Y005436D01*
X018551Y005433D01*
X018543Y005434D01*
X018537Y005439D01*
X018535Y005447D01*
X021458Y005549D02*
X021458Y005138D01*
X022640Y005138D01*
X022640Y005549D01*
X021458Y005549D01*
X022535Y005447D02*
X022537Y005455D01*
X022543Y005460D01*
X022551Y005461D01*
X022558Y005458D01*
X022562Y005451D01*
X022562Y005443D01*
X022558Y005436D01*
X022551Y005433D01*
X022543Y005434D01*
X022537Y005439D01*
X022535Y005447D01*
X025458Y005549D02*
X025458Y005138D01*
X026640Y005138D01*
X026640Y005549D01*
X025458Y005549D01*
X026535Y005447D02*
X026537Y005455D01*
X026543Y005460D01*
X026551Y005461D01*
X026558Y005458D01*
X026562Y005451D01*
X026562Y005443D01*
X026558Y005436D01*
X026551Y005433D01*
X026543Y005434D01*
X026537Y005439D01*
X026535Y005447D01*
X027987Y004029D02*
X040192Y004029D01*
X040192Y001588D01*
X027987Y001588D01*
X027987Y004029D01*
X030058Y005138D02*
X030058Y005549D01*
X031240Y005549D01*
X031240Y005138D01*
X030058Y005138D01*
X031135Y005447D02*
X031137Y005455D01*
X031143Y005460D01*
X031151Y005461D01*
X031158Y005458D01*
X031162Y005451D01*
X031162Y005443D01*
X031158Y005436D01*
X031151Y005433D01*
X031143Y005434D01*
X031137Y005439D01*
X031135Y005447D01*
X034058Y005549D02*
X034058Y005138D01*
X035240Y005138D01*
X035240Y005549D01*
X034058Y005549D01*
X035135Y005447D02*
X035137Y005455D01*
X035143Y005460D01*
X035151Y005461D01*
X035158Y005458D01*
X035162Y005451D01*
X035162Y005443D01*
X035158Y005436D01*
X035151Y005433D01*
X035143Y005434D01*
X035137Y005439D01*
X035135Y005447D01*
X037958Y005549D02*
X037958Y005138D01*
X039140Y005138D01*
X039140Y005549D01*
X037958Y005549D01*
X039035Y005447D02*
X039037Y005455D01*
X039043Y005460D01*
X039051Y005461D01*
X039058Y005458D01*
X039062Y005451D01*
X039062Y005443D01*
X039058Y005436D01*
X039051Y005433D01*
X039043Y005434D01*
X039037Y005439D01*
X039035Y005447D01*
X022841Y011707D02*
X022843Y011728D01*
X022849Y011748D01*
X022859Y011767D01*
X022872Y011784D01*
X022888Y011797D01*
X022906Y011808D01*
X022926Y011815D01*
X022947Y011818D01*
X022968Y011817D01*
X022988Y011812D01*
X023007Y011803D01*
X023025Y011791D01*
X023039Y011776D01*
X023051Y011758D01*
X023059Y011738D01*
X023062Y011718D01*
X023062Y011696D01*
X023059Y011676D01*
X023051Y011656D01*
X023039Y011638D01*
X023025Y011623D01*
X023008Y011611D01*
X022988Y011602D01*
X022968Y011597D01*
X022947Y011596D01*
X022926Y011599D01*
X022906Y011606D01*
X022888Y011617D01*
X022872Y011630D01*
X022859Y011647D01*
X022849Y011666D01*
X022843Y011686D01*
X022841Y011707D01*
X012749Y016212D02*
X012749Y018212D01*
X011249Y018212D01*
X011249Y016212D01*
X012749Y016212D01*
X012249Y016212D02*
X012247Y016243D01*
X012241Y016274D01*
X012231Y016304D01*
X012218Y016332D01*
X012201Y016359D01*
X012181Y016383D01*
X012158Y016405D01*
X012133Y016423D01*
X012105Y016438D01*
X012076Y016450D01*
X012046Y016458D01*
X012015Y016462D01*
X011983Y016462D01*
X011952Y016458D01*
X011922Y016450D01*
X011893Y016438D01*
X011865Y016423D01*
X011840Y016405D01*
X011817Y016383D01*
X011797Y016359D01*
X011780Y016332D01*
X011767Y016304D01*
X011757Y016274D01*
X011751Y016243D01*
X011749Y016212D01*
X016358Y020153D02*
X017540Y020153D01*
X017540Y020565D01*
X016358Y020565D01*
X016358Y020153D01*
X016435Y020256D02*
X016437Y020264D01*
X016443Y020269D01*
X016451Y020270D01*
X016458Y020267D01*
X016462Y020260D01*
X016462Y020252D01*
X016458Y020245D01*
X016451Y020242D01*
X016443Y020243D01*
X016437Y020248D01*
X016435Y020256D01*
X015406Y021773D02*
X015406Y024214D01*
X027611Y024214D01*
X027611Y021773D01*
X015406Y021773D01*
X020358Y020565D02*
X020358Y020153D01*
X021540Y020153D01*
X021540Y020565D01*
X020358Y020565D01*
X020435Y020256D02*
X020437Y020264D01*
X020443Y020269D01*
X020451Y020270D01*
X020458Y020267D01*
X020462Y020260D01*
X020462Y020252D01*
X020458Y020245D01*
X020451Y020242D01*
X020443Y020243D01*
X020437Y020248D01*
X020435Y020256D01*
X024458Y020153D02*
X025640Y020153D01*
X025640Y020565D01*
X024458Y020565D01*
X024458Y020153D01*
X024535Y020256D02*
X024537Y020264D01*
X024543Y020269D01*
X024551Y020270D01*
X024558Y020267D01*
X024562Y020260D01*
X024562Y020252D01*
X024558Y020245D01*
X024551Y020242D01*
X024543Y020243D01*
X024537Y020248D01*
X024535Y020256D01*
X028006Y021773D02*
X028006Y024214D01*
X040211Y024214D01*
X040211Y021773D01*
X028006Y021773D01*
X029058Y020565D02*
X030240Y020565D01*
X030240Y020153D01*
X029058Y020153D01*
X029058Y020565D01*
X029135Y020256D02*
X029137Y020264D01*
X029143Y020269D01*
X029151Y020270D01*
X029158Y020267D01*
X029162Y020260D01*
X029162Y020252D01*
X029158Y020245D01*
X029151Y020242D01*
X029143Y020243D01*
X029137Y020248D01*
X029135Y020256D01*
X033058Y020153D02*
X034240Y020153D01*
X034240Y020565D01*
X033058Y020565D01*
X033058Y020153D01*
X033135Y020256D02*
X033137Y020264D01*
X033143Y020269D01*
X033151Y020270D01*
X033158Y020267D01*
X033162Y020260D01*
X033162Y020252D01*
X033158Y020245D01*
X033151Y020242D01*
X033143Y020243D01*
X033137Y020248D01*
X033135Y020256D01*
X036958Y020153D02*
X038140Y020153D01*
X038140Y020565D01*
X036958Y020565D01*
X036958Y020153D01*
X037035Y020256D02*
X037037Y020264D01*
X037043Y020269D01*
X037051Y020270D01*
X037058Y020267D01*
X037062Y020260D01*
X037062Y020252D01*
X037058Y020245D01*
X037051Y020242D01*
X037043Y020243D01*
X037037Y020248D01*
X037035Y020256D01*
D15*
X033741Y016504D02*
X033741Y010504D01*
X033491Y010504D01*
X032491Y010504D01*
X032491Y016504D01*
X033491Y016504D01*
X033741Y016504D01*
X033491Y016504D02*
X033491Y010504D01*
X023733Y016473D02*
X021765Y016473D01*
X021765Y019229D01*
X022552Y019229D01*
X022946Y019229D01*
X023733Y019229D01*
X023733Y016473D01*
X022946Y019229D02*
X022944Y019202D01*
X022939Y019176D01*
X022930Y019151D01*
X022917Y019127D01*
X022902Y019105D01*
X022883Y019085D01*
X022863Y019068D01*
X022840Y019054D01*
X022815Y019043D01*
X022789Y019036D01*
X022762Y019032D01*
X022736Y019032D01*
X022709Y019036D01*
X022683Y019043D01*
X022658Y019054D01*
X022635Y019068D01*
X022615Y019085D01*
X022596Y019105D01*
X022581Y019127D01*
X022568Y019151D01*
X022559Y019176D01*
X022554Y019202D01*
X022552Y019229D01*
X007549Y014001D02*
X007549Y009901D01*
X002649Y009901D01*
X002649Y010251D01*
X002049Y010251D01*
X002049Y009901D01*
X001299Y009901D01*
X001299Y014001D01*
X002049Y014001D01*
X002049Y013651D01*
X002649Y013651D01*
X002649Y014001D01*
X007549Y014001D01*
X001939Y011951D02*
X001942Y012016D01*
X001951Y012080D01*
X001965Y012143D01*
X001986Y012204D01*
X002011Y012263D01*
X002042Y012320D01*
X002078Y012374D01*
X002119Y012424D01*
X002164Y012470D01*
X002214Y012512D01*
X002266Y012549D01*
X002322Y012581D01*
X002381Y012608D01*
X002442Y012630D01*
X002505Y012646D01*
X002568Y012656D01*
X002633Y012661D01*
X002697Y012659D01*
X002762Y012652D01*
X002825Y012639D01*
X002887Y012620D01*
X002947Y012596D01*
X003004Y012566D01*
X003058Y012531D01*
X003109Y012491D01*
X003157Y012447D01*
X003200Y012399D01*
X003238Y012347D01*
X003272Y012292D01*
X003300Y012234D01*
X003323Y012173D01*
X003341Y012111D01*
X003352Y012048D01*
X003358Y011983D01*
X003358Y011919D01*
X003352Y011854D01*
X003341Y011791D01*
X003323Y011729D01*
X003300Y011668D01*
X003272Y011610D01*
X003238Y011555D01*
X003200Y011503D01*
X003157Y011455D01*
X003109Y011411D01*
X003058Y011371D01*
X003004Y011336D01*
X002947Y011306D01*
X002887Y011282D01*
X002825Y011263D01*
X002762Y011250D01*
X002697Y011243D01*
X002633Y011241D01*
X002568Y011246D01*
X002505Y011256D01*
X002442Y011272D01*
X002381Y011294D01*
X002322Y011321D01*
X002266Y011353D01*
X002214Y011390D01*
X002164Y011432D01*
X002119Y011478D01*
X002078Y011528D01*
X002042Y011582D01*
X002011Y011639D01*
X001986Y011698D01*
X001965Y011759D01*
X001951Y011822D01*
X001942Y011886D01*
X001939Y011951D01*
X012324Y007328D02*
X012549Y007102D01*
X012549Y007403D01*
X012774Y007328D02*
X012324Y007328D01*
X012399Y006942D02*
X012324Y006867D01*
X012324Y006717D01*
X012399Y006642D01*
X012699Y006642D01*
X012774Y006717D01*
X012774Y006867D01*
X012699Y006942D01*
X012774Y006485D02*
X012774Y006335D01*
X012774Y006410D02*
X012324Y006410D01*
X012324Y006335D02*
X012324Y006485D01*
D16*
X007299Y010151D02*
X004049Y010151D01*
X004049Y013751D01*
X007299Y013751D01*
X007299Y010151D01*
X001149Y015851D02*
X001149Y021651D01*
D17*
X004739Y012731D02*
X004633Y012626D01*
X004633Y012415D01*
X004739Y012310D01*
X004739Y012086D02*
X004633Y011981D01*
X004633Y011771D01*
X004739Y011666D01*
X005159Y011666D01*
X005264Y011771D01*
X005264Y011981D01*
X005159Y012086D01*
X005264Y012310D02*
X004844Y012731D01*
X004739Y012731D01*
X005264Y012731D02*
X005264Y012310D01*
X005264Y011446D02*
X005264Y011236D01*
X005264Y011341D02*
X004633Y011341D01*
X004633Y011236D02*
X004633Y011446D01*
D18*
X032991Y011004D03*
X032991Y012004D03*
X032991Y013004D03*
X032991Y014004D03*
X032991Y015004D03*
X032991Y016004D03*
D19*
X026416Y015014D02*
X026416Y011550D01*
X026259Y011392D01*
X022794Y011392D01*
X022637Y011550D01*
X022637Y015014D01*
X022794Y015172D01*
X026259Y015172D01*
X026416Y015014D01*
X007153Y015792D02*
X000145Y015792D01*
X000145Y021710D01*
X007153Y021710D01*
X007153Y020601D01*
X007149Y020601D02*
X006049Y020601D01*
X006049Y020401D02*
X007153Y020401D01*
X007149Y020401D02*
X007149Y020101D01*
X007149Y019901D02*
X007149Y019601D01*
X006049Y019601D01*
X006049Y019401D02*
X007153Y019401D01*
X007149Y019401D02*
X007149Y019101D01*
X007149Y018901D02*
X007149Y018601D01*
X006049Y018601D01*
X006049Y018401D02*
X007149Y018401D01*
X007149Y018101D01*
X007149Y017901D02*
X007149Y017601D01*
X006049Y017601D01*
X006049Y017401D02*
X007153Y017401D01*
X007149Y017401D02*
X007149Y017101D01*
X007153Y016901D02*
X007153Y015792D01*
X007149Y016101D02*
X006749Y016101D01*
X006749Y016451D01*
X007149Y016451D01*
X006249Y016901D02*
X006249Y017101D01*
X006249Y017901D02*
X006249Y018101D01*
X007149Y018401D02*
X007153Y018401D01*
X006249Y018901D02*
X006249Y019101D01*
X005299Y019401D02*
X005199Y019401D01*
X005199Y019601D01*
X005299Y019601D01*
X005299Y020401D02*
X005199Y020401D01*
X005199Y020601D01*
X005299Y020601D01*
X006249Y020101D02*
X006249Y019901D01*
X006749Y021051D02*
X007149Y021051D01*
X007149Y021401D02*
X006749Y021401D01*
X006749Y021051D01*
X005299Y018601D02*
X005199Y018601D01*
X005199Y018401D01*
X005299Y018401D01*
X005299Y017601D02*
X005199Y017601D01*
X005199Y017401D01*
X005299Y017401D01*
X001287Y015753D02*
X001287Y015477D01*
X001070Y015477D01*
X001070Y015733D01*
X001287Y021750D02*
X001287Y022025D01*
X001070Y022025D01*
X001070Y021769D01*
D20*
X028603Y010344D03*
D21*
X000399Y016751D03*
M02*
