%
M48
M72
T01C0.0276
T02C0.0350
T03C0.0354
T04C0.0394
T05C0.0420
T06C0.0472
T07C0.1280
T08C0.1300
T09C0.1969
%
T01
X6149Y5251
X6149Y7251
X10649Y6651
X14149Y7151
X14149Y7851
X14149Y8451
X14149Y9051
X16749Y11051
X17549Y9951
X22049Y10151
X22049Y10951
X24849Y12651
X24149Y13351
X24849Y13951
X25349Y14551
X26049Y14751
X14349Y16451
X14349Y17951
T02
X6699Y18001
X5699Y17501
X6699Y17001
X5699Y18501
X6699Y19001
X5699Y19501
X6699Y20001
X5699Y20501
T03
X3549Y7117
X3549Y5385
T04
X8549Y10951
X8549Y11951
X8549Y12951
T05
X32991Y13004
X32991Y14004
X32991Y15004
X32991Y16004
X32991Y12004
X32991Y11004
T06
X32601Y2809
X33601Y2809
X34601Y2809
X35601Y2809
X36601Y2809
X37601Y2809
X38601Y2809
X39601Y2809
X31601Y2809
X30601Y2809
X29601Y2809
X28601Y2809
X26991Y2804
X25991Y2804
X24991Y2804
X23991Y2804
X22991Y2804
X21991Y2804
X20991Y2804
X19991Y2804
X18991Y2804
X17991Y2804
X16991Y2804
X15991Y2804
X15996Y22994
X16996Y22994
X17996Y22994
X18996Y22994
X19996Y22994
X20996Y22994
X21996Y22994
X22996Y22994
X23996Y22994
X24996Y22994
X25996Y22994
X26996Y22994
X28596Y22994
X29596Y22994
X30596Y22994
X31596Y22994
X32596Y22994
X33596Y22994
X34596Y22994
X35596Y22994
X36596Y22994
X37596Y22994
X38596Y22994
X39596Y22994
T07
X3199Y21001
X3199Y16501
T08
X2649Y11951
T09
X3249Y2251
X3149Y23951
X38449Y17651
X38549Y8251
M30
