G75*
G70*
%OFA0B0*%
%FSLAX24Y24*%
%IPPOS*%
%LPD*%
%AMOC8*
5,1,8,0,0,1.08239X$1,22.5*
%
%ADD10C,0.0060*%
%ADD11C,0.2362*%
%ADD12R,0.0672X0.0192*%
%ADD13O,0.1306X0.0712*%
%ADD14C,0.1560*%
%ADD15O,0.1386X0.0756*%
%ADD16R,0.0693X0.0614*%
%ADD17O,0.0850X0.1559*%
%ADD18R,0.0835X0.0756*%
%ADD19R,0.1189X0.0756*%
%ADD20R,0.0236X0.0630*%
%ADD21R,0.0630X0.0236*%
%ADD22R,0.0164X0.0577*%
%ADD23R,0.1142X0.0945*%
%ADD24R,0.1457X0.0945*%
%ADD25R,0.1260X0.0236*%
%ADD26C,0.0425*%
%ADD27R,0.0567X0.0567*%
%ADD28C,0.1536*%
%ADD29C,0.0660*%
%ADD30R,0.0472X0.0630*%
%ADD31R,0.0614X0.0693*%
%ADD32R,0.0326X0.0444*%
%ADD33R,0.0929X0.0850*%
%ADD34C,0.0523*%
D10*
X014511Y028312D02*
X014511Y028952D01*
X014831Y028952D01*
X014938Y028846D01*
X014938Y028632D01*
X014831Y028525D01*
X014511Y028525D01*
X014293Y028632D02*
X014293Y028846D01*
X014187Y028952D01*
X013973Y028952D01*
X013866Y028846D01*
X013866Y028632D01*
X013973Y028525D01*
X014187Y028525D01*
X014293Y028632D01*
X013650Y028525D02*
X013544Y028632D01*
X013544Y029059D01*
X013650Y028952D02*
X013437Y028952D01*
X013219Y029059D02*
X013112Y029166D01*
X012899Y029166D01*
X012792Y029059D01*
X012792Y028952D01*
X012899Y028846D01*
X013112Y028846D01*
X013219Y028739D01*
X013219Y028632D01*
X013112Y028525D01*
X012899Y028525D01*
X012792Y028632D01*
X012576Y028525D02*
X012469Y028632D01*
X012469Y029059D01*
X012363Y028952D02*
X012576Y028952D01*
X011501Y028846D02*
X011180Y028846D01*
X011074Y028952D01*
X011074Y029059D01*
X011180Y029166D01*
X011394Y029166D01*
X011501Y029059D01*
X011501Y028632D01*
X011394Y028525D01*
X011180Y028525D01*
X011074Y028632D01*
X010856Y028525D02*
X010429Y028525D01*
X010856Y028952D01*
X010856Y029059D01*
X010749Y029166D01*
X010536Y029166D01*
X010429Y029059D01*
D11*
X003249Y002251D03*
X003149Y023951D03*
X038449Y017651D03*
X038549Y008251D03*
D12*
X013154Y016462D03*
X013154Y016962D03*
X013154Y017462D03*
X013154Y017962D03*
X010844Y017962D03*
X010844Y017462D03*
X010844Y016962D03*
X010844Y016462D03*
D13*
X008549Y012951D03*
X008549Y011951D03*
X008549Y010951D03*
D14*
X002649Y011951D03*
D15*
X032991Y012004D03*
X032991Y013004D03*
X032991Y014004D03*
X032991Y015004D03*
X032991Y016004D03*
X032991Y011004D03*
D16*
X015857Y016814D03*
X015857Y017483D03*
X008449Y017586D03*
X008449Y016917D03*
X007197Y004607D03*
X007197Y003938D03*
D17*
X015991Y002804D03*
X016991Y002804D03*
X017991Y002804D03*
X018991Y002804D03*
X019991Y002804D03*
X020991Y002804D03*
X021991Y002804D03*
X022991Y002804D03*
X023991Y002804D03*
X024991Y002804D03*
X025991Y002804D03*
X026991Y002804D03*
X028601Y002809D03*
X029601Y002809D03*
X030601Y002809D03*
X031601Y002809D03*
X032601Y002809D03*
X033601Y002809D03*
X034601Y002809D03*
X035601Y002809D03*
X036601Y002809D03*
X037601Y002809D03*
X038601Y002809D03*
X039601Y002809D03*
X039596Y022994D03*
X038596Y022994D03*
X037596Y022994D03*
X036596Y022994D03*
X035596Y022994D03*
X034596Y022994D03*
X033596Y022994D03*
X032596Y022994D03*
X031596Y022994D03*
X030596Y022994D03*
X029596Y022994D03*
X028596Y022994D03*
X026996Y022994D03*
X025996Y022994D03*
X024996Y022994D03*
X023996Y022994D03*
X022996Y022994D03*
X021996Y022994D03*
X020996Y022994D03*
X019996Y022994D03*
X018996Y022994D03*
X017996Y022994D03*
X016996Y022994D03*
X015996Y022994D03*
D18*
X015249Y011002D03*
X015249Y009900D03*
D19*
X013349Y009900D03*
X013349Y011002D03*
D20*
X022952Y010998D03*
X023267Y010998D03*
X023582Y010998D03*
X023897Y010998D03*
X024212Y010998D03*
X024527Y010998D03*
X024842Y010998D03*
X025157Y010998D03*
X025472Y010998D03*
X025787Y010998D03*
X026102Y010998D03*
X026102Y015565D03*
X025787Y015565D03*
X025472Y015565D03*
X025157Y015565D03*
X024842Y015565D03*
X024527Y015565D03*
X024212Y015565D03*
X023897Y015565D03*
X023582Y015565D03*
X023267Y015565D03*
X022952Y015565D03*
D21*
X022243Y014857D03*
X022243Y014542D03*
X022243Y014227D03*
X022243Y013912D03*
X022243Y013597D03*
X022243Y013282D03*
X022243Y012967D03*
X022243Y012652D03*
X022243Y012337D03*
X022243Y012022D03*
X022243Y011707D03*
X026810Y011707D03*
X026810Y012022D03*
X026810Y012337D03*
X026810Y012652D03*
X026810Y012967D03*
X026810Y013282D03*
X026810Y013597D03*
X026810Y013912D03*
X026810Y014227D03*
X026810Y014542D03*
X026810Y014857D03*
D22*
X011712Y007891D03*
X011456Y007891D03*
X011201Y007891D03*
X010945Y007891D03*
X010689Y007891D03*
X010433Y007891D03*
X010177Y007891D03*
X009921Y007891D03*
X009665Y007891D03*
X009409Y007891D03*
X009153Y007891D03*
X008897Y007891D03*
X008641Y007891D03*
X008386Y007891D03*
X008386Y005012D03*
X008641Y005012D03*
X008897Y005012D03*
X009153Y005012D03*
X009409Y005012D03*
X009665Y005012D03*
X009921Y005012D03*
X010177Y005012D03*
X010433Y005012D03*
X010689Y005012D03*
X010945Y005012D03*
X011201Y005012D03*
X011456Y005012D03*
X011712Y005012D03*
D23*
X002368Y004499D03*
X002368Y008003D03*
D24*
X004691Y008003D03*
X004691Y004499D03*
D25*
X004730Y005621D03*
X004730Y005936D03*
X004730Y006251D03*
X004730Y006566D03*
X004730Y006881D03*
D26*
X003549Y007117D03*
X003549Y005385D03*
D27*
X028150Y010344D03*
X028977Y010344D03*
D28*
X003199Y016501D03*
X003199Y021001D03*
D29*
X005699Y020501D03*
X006699Y020001D03*
X005699Y019501D03*
X006699Y019001D03*
X005699Y018501D03*
X006699Y018001D03*
X005699Y017501D03*
X006699Y017001D03*
D30*
X030075Y015018D03*
X030823Y015018D03*
X030449Y015884D03*
D31*
X030314Y010351D03*
X030984Y010351D03*
D32*
X031023Y005851D03*
X030649Y005851D03*
X030275Y005851D03*
X030275Y004831D03*
X030649Y004831D03*
X031023Y004831D03*
X034275Y004831D03*
X034649Y004831D03*
X035023Y004831D03*
X035023Y005851D03*
X034649Y005851D03*
X034275Y005851D03*
X038175Y005851D03*
X038549Y005851D03*
X038923Y005851D03*
X038923Y004831D03*
X038549Y004831D03*
X038175Y004831D03*
X026423Y004831D03*
X026049Y004831D03*
X025675Y004831D03*
X025675Y005851D03*
X026049Y005851D03*
X026423Y005851D03*
X022423Y005851D03*
X022049Y005851D03*
X021675Y005851D03*
X021675Y004831D03*
X022049Y004831D03*
X022423Y004831D03*
X018423Y004831D03*
X018049Y004831D03*
X017675Y004831D03*
X017675Y005851D03*
X018049Y005851D03*
X018423Y005851D03*
X017323Y019851D03*
X016949Y019851D03*
X016575Y019851D03*
X016575Y020871D03*
X016949Y020871D03*
X017323Y020871D03*
X020575Y020871D03*
X020949Y020871D03*
X021323Y020871D03*
X021323Y019851D03*
X020949Y019851D03*
X020575Y019851D03*
X024675Y019851D03*
X025049Y019851D03*
X025423Y019851D03*
X025423Y020871D03*
X025049Y020871D03*
X024675Y020871D03*
X029275Y020871D03*
X029649Y020871D03*
X030023Y020871D03*
X030023Y019851D03*
X029649Y019851D03*
X029275Y019851D03*
X033275Y019851D03*
X033649Y019851D03*
X034023Y019851D03*
X034023Y020871D03*
X033649Y020871D03*
X033275Y020871D03*
X037175Y020871D03*
X037549Y020871D03*
X037923Y020871D03*
X037923Y019851D03*
X037549Y019851D03*
X037175Y019851D03*
D33*
X023576Y018835D03*
X021922Y018835D03*
X021922Y016867D03*
X023576Y016867D03*
D34*
X026049Y014751D03*
X025349Y014551D03*
X024849Y013951D03*
X024149Y013351D03*
X024849Y012651D03*
X022049Y010951D03*
X022049Y010151D03*
X017549Y009951D03*
X016749Y011051D03*
X014149Y009051D03*
X014149Y008451D03*
X014149Y007851D03*
X014149Y007151D03*
X010649Y006651D03*
X006149Y007251D03*
X006149Y005251D03*
X014349Y016451D03*
X014349Y017951D03*
M02*
