G75*
G70*
%OFA0B0*%
%FSLAX24Y24*%
%IPPOS*%
%LPD*%
%AMOC8*
5,1,8,0,0,1.08239X$1,22.5*
%
%ADD10C,0.0060*%
%ADD11R,0.0640X0.0160*%
%ADD12O,0.1187X0.0594*%
%ADD13O,0.1260X0.0630*%
%ADD14R,0.0591X0.0512*%
%ADD15O,0.0709X0.1417*%
%ADD16R,0.0709X0.0630*%
%ADD17R,0.1063X0.0630*%
%ADD18R,0.0197X0.0591*%
%ADD19R,0.0591X0.0197*%
%ADD20R,0.0137X0.0550*%
%ADD21R,0.0984X0.0787*%
%ADD22R,0.1299X0.0787*%
%ADD23R,0.1220X0.0197*%
%ADD24R,0.0472X0.0472*%
%ADD25R,0.0551X0.0394*%
%ADD26C,0.0550*%
%ADD27R,0.0394X0.0551*%
%ADD28R,0.0512X0.0591*%
%ADD29R,0.0272X0.0390*%
%ADD30R,0.0787X0.0709*%
%ADD31C,0.0100*%
%ADD32C,0.0160*%
%ADD33C,0.0436*%
D10*
X002429Y028015D02*
X002856Y028015D01*
X002642Y028015D02*
X002642Y028656D01*
X002429Y028442D01*
X002429Y029015D02*
X002856Y029015D01*
X002642Y029015D02*
X002642Y029656D01*
X002429Y029442D01*
X003074Y029656D02*
X003501Y029656D01*
X003501Y029549D01*
X003074Y029122D01*
X003074Y029015D01*
X003180Y028656D02*
X003394Y028656D01*
X003501Y028549D01*
X003501Y028442D01*
X003394Y028336D01*
X003180Y028336D01*
X003074Y028442D01*
X003074Y028549D01*
X003180Y028656D01*
X003180Y028336D02*
X003074Y028229D01*
X003074Y028122D01*
X003180Y028015D01*
X003394Y028015D01*
X003501Y028122D01*
X003501Y028229D01*
X003394Y028336D01*
X004363Y028229D02*
X004576Y028015D01*
X004790Y028229D01*
X004790Y028656D01*
X005007Y028442D02*
X005114Y028442D01*
X005114Y028015D01*
X005007Y028015D02*
X005221Y028015D01*
X005437Y028122D02*
X005544Y028229D01*
X005864Y028229D01*
X005864Y028336D02*
X005864Y028015D01*
X005544Y028015D01*
X005437Y028122D01*
X005544Y028442D02*
X005757Y028442D01*
X005864Y028336D01*
X006081Y028336D02*
X006188Y028442D01*
X006508Y028442D01*
X006402Y028229D02*
X006188Y028229D01*
X006081Y028336D01*
X006081Y028015D02*
X006402Y028015D01*
X006508Y028122D01*
X006402Y028229D01*
X006296Y029015D02*
X006616Y029015D01*
X006723Y029122D01*
X006616Y029229D01*
X006403Y029229D01*
X006296Y029336D01*
X006403Y029442D01*
X006723Y029442D01*
X006079Y029442D02*
X005758Y029442D01*
X005652Y029336D01*
X005652Y029122D01*
X005758Y029015D01*
X006079Y029015D01*
X006079Y029656D01*
X005434Y029336D02*
X005434Y029015D01*
X005114Y029015D01*
X005007Y029122D01*
X005114Y029229D01*
X005434Y029229D01*
X005434Y029336D02*
X005327Y029442D01*
X005114Y029442D01*
X004790Y029336D02*
X004790Y029549D01*
X004683Y029656D01*
X004363Y029656D01*
X004363Y029015D01*
X004363Y029229D02*
X004683Y029229D01*
X004790Y029336D01*
X005114Y028763D02*
X005114Y028656D01*
X004363Y028656D02*
X004363Y028229D01*
X005007Y030802D02*
X005007Y031442D01*
X005327Y031442D01*
X005434Y031336D01*
X005434Y031122D01*
X005327Y031015D01*
X005007Y031015D01*
X004790Y031122D02*
X004683Y031015D01*
X004469Y031015D01*
X004363Y031122D01*
X004363Y031336D01*
X004469Y031442D01*
X004683Y031442D01*
X004790Y031336D01*
X004790Y031122D01*
X004145Y031656D02*
X003718Y031656D01*
X003932Y031656D02*
X003932Y031015D01*
X002856Y031015D02*
X002429Y031015D01*
X002642Y031015D02*
X002642Y031656D01*
X002429Y031442D01*
D11*
X010844Y017952D03*
X010844Y017452D03*
X010844Y016952D03*
X010844Y016452D03*
X013154Y016452D03*
X013154Y016952D03*
X013154Y017452D03*
X013154Y017952D03*
D12*
X008549Y012941D03*
X008549Y011941D03*
X008549Y010941D03*
D13*
X032991Y010994D03*
X032991Y011994D03*
X032991Y012994D03*
X032991Y013994D03*
X032991Y014994D03*
X032991Y015994D03*
D14*
X015857Y016804D03*
X015857Y017473D03*
X008449Y017576D03*
X008449Y016906D03*
X014049Y006776D03*
X014049Y006106D03*
X007197Y004597D03*
X007197Y003928D03*
D15*
X015991Y002794D03*
X016991Y002794D03*
X017991Y002794D03*
X018991Y002794D03*
X019991Y002794D03*
X020991Y002794D03*
X021991Y002794D03*
X022991Y002794D03*
X023991Y002794D03*
X024991Y002794D03*
X025991Y002794D03*
X026991Y002794D03*
X028601Y002799D03*
X029601Y002799D03*
X030601Y002799D03*
X031601Y002799D03*
X032601Y002799D03*
X033601Y002799D03*
X034601Y002799D03*
X035601Y002799D03*
X036601Y002799D03*
X037601Y002799D03*
X038601Y002799D03*
X039601Y002799D03*
X039596Y022983D03*
X038596Y022983D03*
X037596Y022983D03*
X036596Y022983D03*
X035596Y022983D03*
X034596Y022983D03*
X033596Y022983D03*
X032596Y022983D03*
X031596Y022983D03*
X030596Y022983D03*
X029596Y022983D03*
X028596Y022983D03*
X026996Y022983D03*
X025996Y022983D03*
X024996Y022983D03*
X023996Y022983D03*
X022996Y022983D03*
X021996Y022983D03*
X020996Y022983D03*
X019996Y022983D03*
X018996Y022983D03*
X017996Y022983D03*
X016996Y022983D03*
X015996Y022983D03*
D16*
X015249Y010992D03*
X015249Y009890D03*
D17*
X013349Y009890D03*
X013349Y010992D03*
D18*
X022952Y010988D03*
X023267Y010988D03*
X023582Y010988D03*
X023897Y010988D03*
X024212Y010988D03*
X024527Y010988D03*
X024842Y010988D03*
X025157Y010988D03*
X025472Y010988D03*
X025787Y010988D03*
X026102Y010988D03*
X026102Y015555D03*
X025787Y015555D03*
X025472Y015555D03*
X025157Y015555D03*
X024842Y015555D03*
X024527Y015555D03*
X024212Y015555D03*
X023897Y015555D03*
X023582Y015555D03*
X023267Y015555D03*
X022952Y015555D03*
D19*
X022243Y014847D03*
X022243Y014532D03*
X022243Y014217D03*
X022243Y013902D03*
X022243Y013587D03*
X022243Y013272D03*
X022243Y012957D03*
X022243Y012642D03*
X022243Y012327D03*
X022243Y012012D03*
X022243Y011697D03*
X026810Y011697D03*
X026810Y012012D03*
X026810Y012327D03*
X026810Y012642D03*
X026810Y012957D03*
X026810Y013272D03*
X026810Y013587D03*
X026810Y013902D03*
X026810Y014217D03*
X026810Y014532D03*
X026810Y014847D03*
D20*
X011712Y007880D03*
X011456Y007880D03*
X011201Y007880D03*
X010945Y007880D03*
X010689Y007880D03*
X010433Y007880D03*
X010177Y007880D03*
X009921Y007880D03*
X009665Y007880D03*
X009409Y007880D03*
X009153Y007880D03*
X008897Y007880D03*
X008641Y007880D03*
X008386Y007880D03*
X008386Y005002D03*
X008641Y005002D03*
X008897Y005002D03*
X009153Y005002D03*
X009409Y005002D03*
X009665Y005002D03*
X009921Y005002D03*
X010177Y005002D03*
X010433Y005002D03*
X010689Y005002D03*
X010945Y005002D03*
X011201Y005002D03*
X011456Y005002D03*
X011712Y005002D03*
D21*
X002368Y004489D03*
X002368Y007993D03*
D22*
X004691Y007993D03*
X004691Y004489D03*
D23*
X004730Y005611D03*
X004730Y005926D03*
X004730Y006241D03*
X004730Y006556D03*
X004730Y006871D03*
D24*
X028150Y010334D03*
X028977Y010334D03*
D25*
X011282Y009841D03*
X010416Y009467D03*
X010416Y010215D03*
D26*
X006699Y016991D03*
X005699Y017491D03*
X006699Y017991D03*
X005699Y018491D03*
X006699Y018991D03*
X005699Y019491D03*
X006699Y019991D03*
X005699Y020491D03*
D27*
X030075Y015008D03*
X030823Y015008D03*
X030449Y015874D03*
D28*
X030314Y010341D03*
X030984Y010341D03*
X009084Y009241D03*
X008414Y009241D03*
D29*
X017675Y005841D03*
X018049Y005841D03*
X018423Y005841D03*
X018423Y004821D03*
X018049Y004821D03*
X017675Y004821D03*
X021675Y004821D03*
X022049Y004821D03*
X022423Y004821D03*
X022423Y005841D03*
X022049Y005841D03*
X021675Y005841D03*
X025675Y005841D03*
X026049Y005841D03*
X026423Y005841D03*
X026423Y004821D03*
X026049Y004821D03*
X025675Y004821D03*
X030275Y004821D03*
X030649Y004821D03*
X031023Y004821D03*
X031023Y005841D03*
X030649Y005841D03*
X030275Y005841D03*
X034275Y005841D03*
X034649Y005841D03*
X035023Y005841D03*
X035023Y004821D03*
X034649Y004821D03*
X034275Y004821D03*
X038175Y004821D03*
X038549Y004821D03*
X038923Y004821D03*
X038923Y005841D03*
X038549Y005841D03*
X038175Y005841D03*
X037923Y019841D03*
X037549Y019841D03*
X037175Y019841D03*
X037175Y020861D03*
X037549Y020861D03*
X037923Y020861D03*
X034023Y020861D03*
X033649Y020861D03*
X033275Y020861D03*
X033275Y019841D03*
X033649Y019841D03*
X034023Y019841D03*
X030023Y019841D03*
X029649Y019841D03*
X029275Y019841D03*
X029275Y020861D03*
X029649Y020861D03*
X030023Y020861D03*
X025423Y020861D03*
X025049Y020861D03*
X024675Y020861D03*
X024675Y019841D03*
X025049Y019841D03*
X025423Y019841D03*
X021323Y019841D03*
X020949Y019841D03*
X020575Y019841D03*
X020575Y020861D03*
X020949Y020861D03*
X021323Y020861D03*
X017323Y020861D03*
X016949Y020861D03*
X016575Y020861D03*
X016575Y019841D03*
X016949Y019841D03*
X017323Y019841D03*
D30*
X021922Y018825D03*
X023576Y018825D03*
X023576Y016857D03*
X021922Y016857D03*
D31*
X021933Y016857D01*
X021949Y016841D01*
X021249Y016141D02*
X021049Y016341D01*
X021049Y019241D01*
X021349Y019541D01*
X021349Y019841D01*
X021323Y019841D01*
X020949Y019841D02*
X020949Y020341D01*
X025049Y020341D01*
X025049Y019841D01*
X025349Y019841D02*
X025472Y019718D01*
X025472Y015555D01*
X025749Y015541D02*
X025763Y015555D01*
X025857Y015649D01*
X025857Y016149D01*
X029249Y019541D01*
X029249Y019841D01*
X029275Y019841D01*
X029649Y019841D02*
X029649Y020341D01*
X033649Y020341D01*
X033649Y019841D01*
X034023Y019841D02*
X034049Y019841D01*
X034049Y019441D01*
X032449Y017841D01*
X030449Y017841D01*
X027102Y014494D01*
X026896Y014494D01*
X026849Y014541D01*
X026840Y014532D01*
X026810Y014532D01*
X026849Y014241D02*
X026888Y014202D01*
X027210Y014202D01*
X030549Y017541D01*
X034949Y017541D01*
X037049Y019641D01*
X037149Y019741D02*
X037149Y019841D01*
X037175Y019841D01*
X037549Y019841D02*
X037549Y020341D01*
X037549Y020861D01*
X037849Y020841D02*
X037869Y020861D01*
X038596Y021589D01*
X038596Y022983D01*
X036596Y022983D02*
X036596Y021394D01*
X037149Y020841D01*
X037169Y020861D01*
X037175Y020861D01*
X037869Y020861D02*
X037923Y020861D01*
X037549Y020341D02*
X033649Y020341D01*
X033275Y019841D02*
X033249Y019841D01*
X033249Y019441D01*
X031949Y018141D01*
X030249Y018141D01*
X026987Y014879D01*
X026787Y014879D01*
X026754Y014847D01*
X026810Y014847D01*
X026754Y014847D02*
X026749Y014841D01*
X026849Y014241D02*
X026825Y014217D01*
X026810Y014217D01*
X026849Y013941D02*
X026858Y013932D01*
X027340Y013932D01*
X030649Y017241D01*
X035749Y017241D01*
X037949Y019441D01*
X037949Y019841D01*
X037923Y019841D01*
X034596Y021389D02*
X034049Y020841D01*
X034029Y020861D01*
X034023Y020861D01*
X033275Y020861D02*
X033269Y020861D01*
X033249Y020841D01*
X032596Y021494D01*
X032596Y022983D01*
X030596Y022983D02*
X030596Y021389D01*
X030049Y020841D01*
X030029Y020861D01*
X030023Y020861D01*
X029649Y020341D02*
X025049Y020341D01*
X025349Y019841D02*
X025423Y019841D01*
X024675Y019841D02*
X024675Y019415D01*
X025149Y018941D01*
X025149Y015541D01*
X025157Y015549D01*
X025157Y015555D01*
X025763Y015555D02*
X025787Y015555D01*
X026049Y015541D02*
X026063Y015555D01*
X030049Y019541D01*
X030049Y019841D01*
X030023Y019841D01*
X029249Y020841D02*
X028596Y021494D01*
X028596Y022983D01*
X029269Y020861D02*
X029275Y020861D01*
X029269Y020861D02*
X029249Y020841D01*
X025996Y021389D02*
X025449Y020841D01*
X025429Y020861D01*
X025423Y020861D01*
X025996Y021389D02*
X025996Y022983D01*
X023996Y022983D02*
X023996Y021494D01*
X024649Y020841D01*
X024669Y020861D01*
X024675Y020861D01*
X021996Y021489D02*
X021996Y022983D01*
X021996Y021489D02*
X021349Y020841D01*
X021329Y020861D01*
X021323Y020861D01*
X020949Y020341D02*
X016949Y020341D01*
X007049Y020341D01*
X006699Y019991D01*
X006649Y019941D01*
X015996Y021394D02*
X016549Y020841D01*
X016569Y020861D01*
X016575Y020861D01*
X016949Y020861D02*
X016949Y020341D01*
X016949Y019841D01*
X017323Y019841D02*
X017349Y019841D01*
X017349Y018141D01*
X021273Y014217D01*
X022243Y014217D01*
X022243Y014532D02*
X022243Y014535D01*
X022249Y014541D01*
X021449Y014541D01*
X020575Y015415D01*
X020575Y019841D01*
X020549Y020841D02*
X019996Y021394D01*
X019996Y022983D01*
X017996Y022983D02*
X017996Y021489D01*
X017349Y020841D01*
X017329Y020861D01*
X017323Y020861D01*
X016575Y019841D02*
X016549Y019841D01*
X016549Y018241D01*
X020888Y013902D01*
X022243Y013902D01*
X022243Y013587D02*
X020295Y013587D01*
X018949Y012241D01*
X018949Y008841D01*
X017675Y007567D01*
X017675Y005841D01*
X018049Y005841D02*
X018049Y007241D01*
X018423Y007915D02*
X019349Y008841D01*
X019349Y012041D01*
X020549Y013241D01*
X022213Y013241D01*
X022243Y012957D02*
X020865Y012957D01*
X019749Y011841D01*
X019749Y009041D01*
X019749Y007741D01*
X021649Y005841D01*
X021675Y005841D01*
X022049Y005841D02*
X022049Y005341D01*
X022049Y004821D01*
X022049Y005341D02*
X026049Y005341D01*
X026049Y005841D01*
X026423Y005841D02*
X026423Y006367D01*
X025849Y006941D01*
X024449Y006941D01*
X021049Y010341D01*
X021049Y011341D01*
X021720Y012012D01*
X022243Y012012D01*
X022243Y012327D02*
X021435Y012327D01*
X020649Y011541D01*
X020649Y010041D01*
X024849Y005841D01*
X025675Y005841D01*
X026049Y005341D02*
X026049Y004821D01*
X026049Y005341D02*
X030649Y005341D01*
X030649Y005841D01*
X031023Y005841D02*
X031023Y006767D01*
X030249Y007541D01*
X025249Y007541D01*
X023582Y009208D01*
X023582Y010988D01*
X023897Y010988D02*
X023897Y009293D01*
X025349Y007841D01*
X032149Y007841D01*
X034149Y005841D01*
X034275Y005841D01*
X034649Y005841D02*
X034649Y005341D01*
X034649Y004821D01*
X034649Y005341D02*
X038549Y005341D01*
X038549Y005841D01*
X038923Y005841D02*
X038923Y006367D01*
X038649Y006641D01*
X037549Y006641D01*
X035449Y008741D01*
X026349Y008741D01*
X025472Y009618D01*
X025472Y010988D01*
X025157Y010988D02*
X025157Y009433D01*
X026149Y008441D01*
X035049Y008441D01*
X037649Y005841D01*
X038175Y005841D01*
X038549Y005341D02*
X038549Y004821D01*
X035023Y005841D02*
X035023Y006367D01*
X033249Y008141D01*
X032949Y008141D01*
X025449Y008141D01*
X024212Y009378D01*
X024212Y010988D01*
X023267Y010988D02*
X023267Y009123D01*
X025149Y007241D01*
X028849Y007241D01*
X030249Y005841D01*
X030275Y005841D01*
X030649Y005341D02*
X030649Y004821D01*
X030649Y005341D02*
X034649Y005341D01*
X026810Y013902D02*
X026810Y013902D01*
X026849Y013941D01*
X026102Y015555D02*
X026063Y015555D01*
X023267Y015555D02*
X023267Y015923D01*
X023049Y016141D01*
X021249Y016141D01*
X023549Y016841D02*
X023565Y016857D01*
X023576Y016857D01*
X023549Y018741D02*
X023576Y018768D01*
X023576Y018825D01*
X020575Y020861D02*
X020569Y020861D01*
X020549Y020841D01*
X015996Y021394D02*
X015996Y022983D01*
X021150Y012642D02*
X020149Y011641D01*
X020149Y009241D01*
X022423Y006967D01*
X022423Y005841D01*
X022049Y005341D02*
X018049Y005341D01*
X018049Y005841D01*
X018423Y005841D02*
X018423Y007915D01*
X018049Y005341D02*
X018049Y004821D01*
X021150Y012642D02*
X022243Y012642D01*
X034596Y021389D02*
X034596Y022983D01*
D32*
X037149Y019741D02*
X037049Y019641D01*
X033049Y016041D02*
X033001Y015994D01*
X032882Y015874D01*
X030449Y015874D01*
X030449Y015841D01*
X030349Y015941D01*
X029849Y015941D01*
X027495Y013587D01*
X026810Y013587D01*
X026810Y013272D02*
X032018Y013272D01*
X032249Y013041D01*
X032849Y013041D01*
X032949Y012941D01*
X032991Y012983D01*
X032991Y012994D01*
X032949Y013941D02*
X033749Y013941D01*
X034349Y013341D01*
X034349Y010441D01*
X033749Y009841D01*
X031484Y009841D01*
X030984Y010341D01*
X030349Y010341D02*
X030341Y010334D01*
X028977Y010334D01*
X028150Y010334D02*
X028150Y010340D01*
X028149Y010341D01*
X028149Y011441D01*
X027263Y012327D01*
X026810Y012327D01*
X026810Y012642D02*
X030448Y012642D01*
X032149Y010941D01*
X032849Y010941D01*
X032949Y011041D01*
X032991Y010999D01*
X032991Y010994D01*
X032949Y011941D02*
X032149Y011941D01*
X031133Y012957D01*
X026810Y012957D01*
X025787Y014104D02*
X025349Y014541D01*
X025787Y014104D02*
X025787Y010988D01*
X026102Y010988D02*
X026102Y014689D01*
X026049Y014741D01*
X024849Y014541D02*
X024849Y013941D01*
X024849Y012641D01*
X024849Y011041D01*
X024842Y011034D01*
X024842Y010988D01*
X024549Y011041D02*
X024549Y011941D01*
X024149Y012341D01*
X024149Y013341D01*
X024212Y013341D01*
X024212Y015555D01*
X024212Y016304D01*
X024449Y016541D01*
X024449Y017441D01*
X024149Y017741D01*
X022349Y017741D01*
X021949Y017341D01*
X021949Y016841D01*
X023549Y016841D02*
X023897Y016493D01*
X023897Y015555D01*
X024527Y015555D02*
X024527Y014863D01*
X024849Y014541D01*
X024527Y015555D02*
X024527Y016219D01*
X024749Y016441D01*
X024749Y018141D01*
X024149Y018741D01*
X023549Y018741D01*
X023576Y018825D02*
X021865Y018825D01*
X021849Y018841D01*
X021865Y018825D02*
X021922Y018825D01*
X017549Y016741D02*
X016817Y017473D01*
X015857Y017473D01*
X015849Y017466D01*
X015849Y017441D01*
X013165Y017441D01*
X013154Y017452D01*
X013154Y016952D02*
X012360Y016952D01*
X011849Y016441D01*
X010849Y016441D01*
X010844Y016446D01*
X010844Y016452D01*
X011838Y016452D01*
X010849Y016941D02*
X008518Y016941D01*
X008460Y016883D01*
X006837Y016883D01*
X006837Y016926D01*
X006699Y016991D01*
X005855Y017472D02*
X008407Y017472D01*
X008449Y017576D01*
X008540Y017472D01*
X011019Y017472D01*
X010844Y016952D02*
X010849Y016947D01*
X010849Y016941D01*
X008460Y016883D02*
X008449Y016906D01*
X005855Y017472D02*
X005699Y017491D01*
X008049Y012941D02*
X008549Y012941D01*
X008049Y012941D02*
X007149Y012041D01*
X007149Y010741D01*
X007675Y010215D01*
X010416Y010215D01*
X010416Y009467D02*
X010375Y009467D01*
X010149Y009241D01*
X009084Y009241D01*
X008449Y009241D02*
X008414Y009241D01*
X008149Y009241D01*
X006249Y007341D01*
X005949Y007041D01*
X005779Y006871D01*
X004730Y006871D01*
X004730Y006556D02*
X006464Y006556D01*
X006749Y006841D01*
X007849Y006841D01*
X008649Y006041D01*
X008649Y005041D01*
X008641Y005034D01*
X008641Y005002D01*
X008386Y005004D02*
X008386Y005002D01*
X008386Y005004D02*
X008349Y005041D01*
X008349Y005541D01*
X008149Y005741D01*
X006749Y005741D01*
X006249Y006241D01*
X004730Y006241D01*
X004730Y005926D02*
X005464Y005926D01*
X005949Y005441D01*
X005949Y003941D01*
X007249Y003941D01*
X007236Y003928D01*
X007197Y003928D01*
X007249Y003941D02*
X009149Y003941D01*
X009849Y003941D01*
X009921Y004013D01*
X009921Y005002D01*
X009665Y005002D02*
X009665Y005025D01*
X009649Y005041D01*
X009649Y005641D01*
X010649Y006641D01*
X010945Y006937D01*
X010945Y007880D01*
X010945Y007645D01*
X010949Y007641D01*
X010689Y007880D02*
X010689Y008381D01*
X011049Y008741D01*
X012649Y008741D01*
X012849Y008941D01*
X012849Y008141D02*
X012588Y007880D01*
X011712Y007880D01*
X010177Y007880D02*
X010177Y006969D01*
X009149Y005941D01*
X009149Y004941D01*
X009153Y004945D01*
X009153Y005002D01*
X009153Y004545D01*
X009149Y003941D01*
X008749Y004441D02*
X007349Y004441D01*
X007197Y004593D01*
X007197Y004597D01*
X008749Y004441D02*
X008897Y004590D01*
X008897Y005002D01*
X009409Y005002D02*
X009610Y005002D01*
X009649Y005041D01*
X009849Y003941D02*
X010949Y003941D01*
X012449Y003941D01*
X014049Y005541D01*
X014049Y006106D01*
X014149Y006741D02*
X014114Y006776D01*
X014049Y006776D01*
X014049Y007041D01*
X014049Y007341D01*
X015249Y008941D01*
X015249Y009890D01*
X015300Y009941D01*
X017549Y009941D01*
X017549Y011341D01*
X017549Y016741D01*
X016749Y015912D02*
X016749Y011041D01*
X015298Y011041D01*
X015249Y010992D01*
X015198Y010941D01*
X013349Y010941D01*
X013349Y010992D01*
X012400Y011941D01*
X008549Y011941D01*
X011249Y009841D02*
X011298Y009890D01*
X013349Y009890D01*
X013298Y009890D01*
X013249Y009841D01*
X013298Y009890D02*
X015249Y009890D01*
X017549Y011341D02*
X017549Y011441D01*
X022049Y010941D02*
X022243Y011135D01*
X022243Y011697D01*
X022952Y010988D02*
X022952Y010644D01*
X022449Y010141D01*
X022049Y010141D01*
X024527Y010988D02*
X024527Y011019D01*
X024549Y011041D01*
X022213Y013241D02*
X022243Y013272D01*
X016749Y015912D02*
X015857Y016804D01*
X015749Y016912D01*
X015749Y016941D01*
X013165Y016941D01*
X013154Y016952D01*
X013154Y016452D02*
X014338Y016452D01*
X014349Y016441D01*
X014349Y017941D02*
X014449Y017941D01*
X014438Y017952D01*
X013154Y017952D01*
X011282Y009841D02*
X011249Y009841D01*
X011201Y005002D02*
X011010Y005002D01*
X010949Y004941D01*
X010945Y004945D01*
X010945Y005002D01*
X010945Y004437D01*
X010949Y003941D01*
X030314Y010341D02*
X030349Y010341D01*
X032949Y011941D02*
X032991Y011983D01*
X032991Y011994D01*
X032949Y013941D02*
X032991Y013983D01*
X032991Y013994D01*
X032949Y014941D02*
X032949Y014951D01*
X032991Y014994D01*
X032991Y014999D01*
X032949Y015041D01*
X032916Y015008D01*
X030823Y015008D01*
X032991Y015994D02*
X033001Y015994D01*
D33*
X026049Y014741D03*
X025349Y014541D03*
X024849Y013941D03*
X024149Y013341D03*
X024849Y012641D03*
X022049Y010941D03*
X022049Y010141D03*
X018049Y007241D03*
X017549Y009941D03*
X016749Y011041D03*
X012849Y008941D03*
X012849Y008141D03*
X010649Y006641D03*
X005949Y007041D03*
X005949Y005441D03*
X014349Y016441D03*
X014349Y017941D03*
M02*
