G75*
G70*
%OFA0B0*%
%FSLAX24Y24*%
%IPPOS*%
%LPD*%
%AMOC8*
5,1,8,0,0,1.08239X$1,22.5*
%
%ADD10C,0.0060*%
%ADD11C,0.2362*%
%ADD12R,0.0672X0.0192*%
%ADD13O,0.1306X0.0712*%
%ADD14C,0.1560*%
%ADD15O,0.1386X0.0756*%
%ADD16R,0.0693X0.0614*%
%ADD17O,0.0850X0.1559*%
%ADD18R,0.0835X0.0756*%
%ADD19R,0.1189X0.0756*%
%ADD20R,0.0236X0.0630*%
%ADD21R,0.0630X0.0236*%
%ADD22R,0.0164X0.0577*%
%ADD23R,0.1142X0.0945*%
%ADD24R,0.1457X0.0945*%
%ADD25R,0.1260X0.0236*%
%ADD26C,0.0425*%
%ADD27R,0.0567X0.0567*%
%ADD28R,0.0630X0.0472*%
%ADD29C,0.1536*%
%ADD30C,0.0660*%
%ADD31R,0.0472X0.0630*%
%ADD32R,0.0614X0.0693*%
%ADD33R,0.0326X0.0444*%
%ADD34C,0.0523*%
D10*
X014511Y028302D02*
X014511Y028942D01*
X014831Y028942D01*
X014938Y028836D01*
X014938Y028622D01*
X014831Y028515D01*
X014511Y028515D01*
X014293Y028622D02*
X014293Y028836D01*
X014187Y028942D01*
X013973Y028942D01*
X013866Y028836D01*
X013866Y028622D01*
X013973Y028515D01*
X014187Y028515D01*
X014293Y028622D01*
X013650Y028515D02*
X013544Y028622D01*
X013544Y029049D01*
X013650Y028942D02*
X013437Y028942D01*
X013219Y029049D02*
X013112Y029156D01*
X012899Y029156D01*
X012792Y029049D01*
X012792Y028942D01*
X012899Y028836D01*
X013112Y028836D01*
X013219Y028729D01*
X013219Y028622D01*
X013112Y028515D01*
X012899Y028515D01*
X012792Y028622D01*
X012576Y028515D02*
X012469Y028622D01*
X012469Y029049D01*
X012363Y028942D02*
X012576Y028942D01*
X011501Y028836D02*
X011180Y028836D01*
X011074Y028942D01*
X011074Y029049D01*
X011180Y029156D01*
X011394Y029156D01*
X011501Y029049D01*
X011501Y028622D01*
X011394Y028515D01*
X011180Y028515D01*
X011074Y028622D01*
X010856Y028515D02*
X010429Y028515D01*
X010856Y028942D01*
X010856Y029049D01*
X010749Y029156D01*
X010536Y029156D01*
X010429Y029049D01*
D11*
X003249Y002241D03*
X003149Y023941D03*
X038449Y017641D03*
X038549Y008241D03*
D12*
X013154Y016452D03*
X013154Y016952D03*
X013154Y017452D03*
X013154Y017952D03*
X010844Y017952D03*
X010844Y017452D03*
X010844Y016952D03*
X010844Y016452D03*
D13*
X008549Y012941D03*
X008549Y011941D03*
X008549Y010941D03*
D14*
X002649Y011941D03*
D15*
X032991Y011994D03*
X032991Y012994D03*
X032991Y013994D03*
X032991Y014994D03*
X032991Y015994D03*
X032991Y010994D03*
D16*
X015857Y016804D03*
X015857Y017473D03*
X008449Y017576D03*
X008449Y016906D03*
X014049Y006776D03*
X014049Y006106D03*
X007197Y004597D03*
X007197Y003928D03*
D17*
X015991Y002794D03*
X016991Y002794D03*
X017991Y002794D03*
X018991Y002794D03*
X019991Y002794D03*
X020991Y002794D03*
X021991Y002794D03*
X022991Y002794D03*
X023991Y002794D03*
X024991Y002794D03*
X025991Y002794D03*
X026991Y002794D03*
X028601Y002799D03*
X029601Y002799D03*
X030601Y002799D03*
X031601Y002799D03*
X032601Y002799D03*
X033601Y002799D03*
X034601Y002799D03*
X035601Y002799D03*
X036601Y002799D03*
X037601Y002799D03*
X038601Y002799D03*
X039601Y002799D03*
X039596Y022983D03*
X038596Y022983D03*
X037596Y022983D03*
X036596Y022983D03*
X035596Y022983D03*
X034596Y022983D03*
X033596Y022983D03*
X032596Y022983D03*
X031596Y022983D03*
X030596Y022983D03*
X029596Y022983D03*
X028596Y022983D03*
X026996Y022983D03*
X025996Y022983D03*
X024996Y022983D03*
X023996Y022983D03*
X022996Y022983D03*
X021996Y022983D03*
X020996Y022983D03*
X019996Y022983D03*
X018996Y022983D03*
X017996Y022983D03*
X016996Y022983D03*
X015996Y022983D03*
D18*
X015249Y010992D03*
X015249Y009890D03*
D19*
X013349Y009890D03*
X013349Y010992D03*
D20*
X022952Y010988D03*
X023267Y010988D03*
X023582Y010988D03*
X023897Y010988D03*
X024212Y010988D03*
X024527Y010988D03*
X024842Y010988D03*
X025157Y010988D03*
X025472Y010988D03*
X025787Y010988D03*
X026102Y010988D03*
X026102Y015555D03*
X025787Y015555D03*
X025472Y015555D03*
X025157Y015555D03*
X024842Y015555D03*
X024527Y015555D03*
X024212Y015555D03*
X023897Y015555D03*
X023582Y015555D03*
X023267Y015555D03*
X022952Y015555D03*
D21*
X022243Y014847D03*
X022243Y014532D03*
X022243Y014217D03*
X022243Y013902D03*
X022243Y013587D03*
X022243Y013272D03*
X022243Y012957D03*
X022243Y012642D03*
X022243Y012327D03*
X022243Y012012D03*
X022243Y011697D03*
X026810Y011697D03*
X026810Y012012D03*
X026810Y012327D03*
X026810Y012642D03*
X026810Y012957D03*
X026810Y013272D03*
X026810Y013587D03*
X026810Y013902D03*
X026810Y014217D03*
X026810Y014532D03*
X026810Y014847D03*
D22*
X011712Y007880D03*
X011456Y007880D03*
X011201Y007880D03*
X010945Y007880D03*
X010689Y007880D03*
X010433Y007880D03*
X010177Y007880D03*
X009921Y007880D03*
X009665Y007880D03*
X009409Y007880D03*
X009153Y007880D03*
X008897Y007880D03*
X008641Y007880D03*
X008386Y007880D03*
X008386Y005002D03*
X008641Y005002D03*
X008897Y005002D03*
X009153Y005002D03*
X009409Y005002D03*
X009665Y005002D03*
X009921Y005002D03*
X010177Y005002D03*
X010433Y005002D03*
X010689Y005002D03*
X010945Y005002D03*
X011201Y005002D03*
X011456Y005002D03*
X011712Y005002D03*
D23*
X002368Y004489D03*
X002368Y007993D03*
D24*
X004691Y007993D03*
X004691Y004489D03*
D25*
X004730Y005611D03*
X004730Y005926D03*
X004730Y006241D03*
X004730Y006556D03*
X004730Y006871D03*
D26*
X003549Y007107D03*
X003549Y005375D03*
D27*
X028150Y010334D03*
X028977Y010334D03*
D28*
X011282Y009841D03*
X010416Y009467D03*
X010416Y010215D03*
D29*
X003199Y016491D03*
X003199Y020991D03*
D30*
X005699Y020491D03*
X006699Y019991D03*
X005699Y019491D03*
X006699Y018991D03*
X005699Y018491D03*
X006699Y017991D03*
X005699Y017491D03*
X006699Y016991D03*
D31*
X030075Y015008D03*
X030823Y015008D03*
X030449Y015874D03*
D32*
X030314Y010341D03*
X030984Y010341D03*
D33*
X031023Y005841D03*
X030649Y005841D03*
X030275Y005841D03*
X030275Y004821D03*
X030649Y004821D03*
X031023Y004821D03*
X034275Y004821D03*
X034649Y004821D03*
X035023Y004821D03*
X035023Y005841D03*
X034649Y005841D03*
X034275Y005841D03*
X038175Y005841D03*
X038549Y005841D03*
X038923Y005841D03*
X038923Y004821D03*
X038549Y004821D03*
X038175Y004821D03*
X026423Y004821D03*
X026049Y004821D03*
X025675Y004821D03*
X025675Y005841D03*
X026049Y005841D03*
X026423Y005841D03*
X022423Y005841D03*
X022049Y005841D03*
X021675Y005841D03*
X021675Y004821D03*
X022049Y004821D03*
X022423Y004821D03*
X018423Y004821D03*
X018049Y004821D03*
X017675Y004821D03*
X017675Y005841D03*
X018049Y005841D03*
X018423Y005841D03*
X017323Y019841D03*
X016949Y019841D03*
X016575Y019841D03*
X016575Y020861D03*
X016949Y020861D03*
X017323Y020861D03*
X020575Y020861D03*
X020949Y020861D03*
X021323Y020861D03*
X021323Y019841D03*
X020949Y019841D03*
X020575Y019841D03*
X024675Y019841D03*
X025049Y019841D03*
X025423Y019841D03*
X025423Y020861D03*
X025049Y020861D03*
X024675Y020861D03*
X029275Y020861D03*
X029649Y020861D03*
X030023Y020861D03*
X030023Y019841D03*
X029649Y019841D03*
X029275Y019841D03*
X033275Y019841D03*
X033649Y019841D03*
X034023Y019841D03*
X034023Y020861D03*
X033649Y020861D03*
X033275Y020861D03*
X037175Y020861D03*
X037549Y020861D03*
X037923Y020861D03*
X037923Y019841D03*
X037549Y019841D03*
X037175Y019841D03*
D34*
X026049Y014741D03*
X025349Y014541D03*
X024849Y013941D03*
X024149Y013341D03*
X024849Y012641D03*
X023749Y014641D03*
X022049Y010941D03*
X022049Y010141D03*
X018049Y007241D03*
X017549Y009941D03*
X016749Y011041D03*
X012849Y008941D03*
X012849Y008141D03*
X010449Y008841D03*
X005949Y007041D03*
X005949Y005441D03*
X014349Y016441D03*
X014349Y017941D03*
M02*
