G75*
G70*
%OFA0B0*%
%FSLAX24Y24*%
%IPPOS*%
%LPD*%
%AMOC8*
5,1,8,0,0,1.08239X$1,22.5*
%
%ADD10C,0.0060*%
%ADD11O,0.1187X0.0594*%
%ADD12O,0.1260X0.0630*%
%ADD13O,0.0709X0.1417*%
%ADD14R,0.0630X0.0709*%
%ADD15R,0.0591X0.0512*%
%ADD16C,0.0550*%
%ADD17R,0.0394X0.0551*%
%ADD18C,0.0436*%
%ADD19C,0.0160*%
%ADD20C,0.0100*%
D10*
X002429Y028015D02*
X002856Y028015D01*
X002642Y028015D02*
X002642Y028656D01*
X002429Y028442D01*
X002429Y029015D02*
X002856Y029015D01*
X002642Y029015D02*
X002642Y029656D01*
X002429Y029442D01*
X002467Y030015D02*
X002360Y030122D01*
X002360Y030336D01*
X002467Y030442D01*
X002680Y030442D01*
X002787Y030336D01*
X002787Y030122D01*
X002680Y030015D01*
X002467Y030015D01*
X002142Y030015D02*
X002142Y030442D01*
X002036Y030442D01*
X001929Y030336D01*
X001822Y030442D01*
X001715Y030336D01*
X001715Y030015D01*
X001929Y030015D02*
X001929Y030336D01*
X003003Y030442D02*
X003217Y030442D01*
X003110Y030549D02*
X003110Y030122D01*
X003003Y030015D01*
X003074Y029656D02*
X003501Y029656D01*
X003501Y029549D01*
X003074Y029122D01*
X003074Y029015D01*
X003180Y028656D02*
X003394Y028656D01*
X003501Y028549D01*
X003501Y028442D01*
X003394Y028336D01*
X003180Y028336D01*
X003074Y028442D01*
X003074Y028549D01*
X003180Y028656D01*
X003180Y028336D02*
X003074Y028229D01*
X003074Y028122D01*
X003180Y028015D01*
X003394Y028015D01*
X003501Y028122D01*
X003501Y028229D01*
X003394Y028336D01*
X004363Y028229D02*
X004576Y028015D01*
X004790Y028229D01*
X004790Y028656D01*
X005007Y028442D02*
X005114Y028442D01*
X005114Y028015D01*
X005007Y028015D02*
X005221Y028015D01*
X005437Y028122D02*
X005544Y028229D01*
X005864Y028229D01*
X005864Y028336D02*
X005864Y028015D01*
X005544Y028015D01*
X005437Y028122D01*
X005544Y028442D02*
X005757Y028442D01*
X005864Y028336D01*
X006081Y028336D02*
X006188Y028442D01*
X006508Y028442D01*
X006402Y028229D02*
X006188Y028229D01*
X006081Y028336D01*
X006081Y028015D02*
X006402Y028015D01*
X006508Y028122D01*
X006402Y028229D01*
X006296Y029015D02*
X006616Y029015D01*
X006723Y029122D01*
X006616Y029229D01*
X006403Y029229D01*
X006296Y029336D01*
X006403Y029442D01*
X006723Y029442D01*
X006079Y029442D02*
X005758Y029442D01*
X005652Y029336D01*
X005652Y029122D01*
X005758Y029015D01*
X006079Y029015D01*
X006079Y029656D01*
X006118Y030015D02*
X005904Y030015D01*
X005797Y030122D01*
X005797Y030229D01*
X005904Y030336D01*
X006224Y030336D01*
X006224Y030122D01*
X006118Y030015D01*
X006442Y030015D02*
X006869Y030015D01*
X006655Y030015D02*
X006655Y030656D01*
X006869Y030442D01*
X006224Y030336D02*
X006011Y030549D01*
X005797Y030656D01*
X004935Y030656D02*
X004935Y030015D01*
X004615Y030015D01*
X004508Y030122D01*
X004508Y030229D01*
X004615Y030336D01*
X004935Y030336D01*
X004615Y030336D02*
X004508Y030442D01*
X004508Y030549D01*
X004615Y030656D01*
X004935Y030656D01*
X004291Y030336D02*
X004291Y030122D01*
X004184Y030015D01*
X003971Y030015D01*
X003864Y030122D01*
X003864Y030336D01*
X003971Y030442D01*
X004184Y030442D01*
X004291Y030336D01*
X003646Y030442D02*
X003433Y030442D01*
X003540Y030549D02*
X003540Y030122D01*
X003433Y030015D01*
X004363Y029656D02*
X004683Y029656D01*
X004790Y029549D01*
X004790Y029336D01*
X004683Y029229D01*
X004363Y029229D01*
X004363Y029015D02*
X004363Y029656D01*
X005114Y029442D02*
X005327Y029442D01*
X005434Y029336D01*
X005434Y029015D01*
X005114Y029015D01*
X005007Y029122D01*
X005114Y029229D01*
X005434Y029229D01*
X005114Y028763D02*
X005114Y028656D01*
X004363Y028656D02*
X004363Y028229D01*
D11*
X008549Y012941D03*
X008549Y011941D03*
X008549Y010941D03*
D12*
X032991Y010994D03*
X032991Y011994D03*
X032991Y012994D03*
X032991Y013994D03*
X032991Y014994D03*
X032991Y015994D03*
D13*
X032596Y022983D03*
X033596Y022983D03*
X034596Y022983D03*
X035596Y022983D03*
X036596Y022983D03*
X037596Y022983D03*
X038596Y022983D03*
X039596Y022983D03*
X031596Y022983D03*
X030596Y022983D03*
X029596Y022983D03*
X028596Y022983D03*
X026996Y022983D03*
X025996Y022983D03*
X024996Y022983D03*
X023996Y022983D03*
X022996Y022983D03*
X021996Y022983D03*
X020996Y022983D03*
X019996Y022983D03*
X018996Y022983D03*
X017996Y022983D03*
X016996Y022983D03*
X015996Y022983D03*
X015991Y002794D03*
X016991Y002794D03*
X017991Y002794D03*
X018991Y002794D03*
X019991Y002794D03*
X020991Y002794D03*
X021991Y002794D03*
X022991Y002794D03*
X023991Y002794D03*
X024991Y002794D03*
X025991Y002794D03*
X026991Y002794D03*
X028601Y002799D03*
X029601Y002799D03*
X030601Y002799D03*
X031601Y002799D03*
X032601Y002799D03*
X033601Y002799D03*
X034601Y002799D03*
X035601Y002799D03*
X036601Y002799D03*
X037601Y002799D03*
X038601Y002799D03*
X039601Y002799D03*
D14*
X006600Y011941D03*
X005498Y011941D03*
D15*
X006749Y006676D03*
X006749Y006006D03*
X023207Y012554D03*
X023207Y013223D03*
X029049Y013506D03*
X029049Y014176D03*
D16*
X006699Y016991D03*
X005699Y017491D03*
X006699Y017991D03*
X005699Y018491D03*
X006699Y018991D03*
X005699Y019491D03*
X006699Y019991D03*
X005699Y020491D03*
D17*
X016575Y020874D03*
X017323Y020874D03*
X016949Y020008D03*
X020575Y020874D03*
X021323Y020874D03*
X020949Y020008D03*
X024675Y020974D03*
X025423Y020974D03*
X025049Y020108D03*
X029275Y020874D03*
X030023Y020874D03*
X029649Y020008D03*
X033275Y020874D03*
X034023Y020874D03*
X033649Y020008D03*
X037175Y020874D03*
X037923Y020874D03*
X037549Y020008D03*
X038549Y005774D03*
X038923Y004908D03*
X038175Y004908D03*
X035023Y004908D03*
X034275Y004908D03*
X034649Y005774D03*
X031023Y004908D03*
X030275Y004908D03*
X030649Y005774D03*
X026423Y004908D03*
X025675Y004908D03*
X026049Y005774D03*
X022423Y004908D03*
X021675Y004908D03*
X022049Y005774D03*
X018423Y004908D03*
X017675Y004908D03*
X018049Y005774D03*
D18*
X018049Y007241D03*
X017549Y009941D03*
X016749Y011041D03*
X012849Y008941D03*
X012849Y008141D03*
X010449Y008841D03*
X005949Y007041D03*
X005949Y005441D03*
X014349Y016441D03*
X014349Y017941D03*
X023749Y014641D03*
X024849Y013941D03*
X025349Y014541D03*
X026049Y014741D03*
X024149Y013341D03*
X024849Y012641D03*
X022049Y010941D03*
X022049Y010141D03*
D19*
X020049Y008141D01*
X012849Y008141D01*
X012849Y008941D02*
X019749Y008941D01*
X021749Y010941D01*
X022049Y010941D01*
X023207Y012554D02*
X020162Y012554D01*
X017549Y009941D01*
X016749Y011041D02*
X019031Y013223D01*
X023207Y013223D01*
X024031Y013223D01*
X024149Y013341D01*
X029049Y013341D01*
X029049Y013506D01*
X029049Y013341D02*
X031249Y013341D01*
X031949Y013941D01*
X032949Y013941D01*
X033001Y013994D01*
X032991Y013994D01*
X033001Y013994D02*
X033049Y014041D01*
X032991Y014994D02*
X032101Y014994D01*
X031149Y014041D01*
X028849Y014041D01*
X029049Y014176D01*
X028849Y014041D02*
X024749Y014041D01*
X024849Y013941D01*
X025349Y014541D02*
X023449Y016441D01*
X014349Y016441D01*
X014349Y017941D02*
X022849Y017941D01*
X026049Y014741D01*
X023749Y014641D02*
X012849Y014641D01*
X010449Y012241D01*
X010449Y008841D01*
X009749Y008341D02*
X007449Y006041D01*
X006849Y006041D01*
X006749Y005941D01*
X006749Y006006D01*
X006749Y005941D02*
X006149Y005441D01*
X005949Y005441D01*
X005849Y005441D01*
X006749Y006541D02*
X006249Y007041D01*
X005949Y007041D01*
X006749Y006676D02*
X006749Y006541D01*
X009749Y008341D02*
X009749Y011541D01*
X009349Y011941D01*
X008549Y011941D01*
X007449Y011941D01*
X007449Y017541D01*
X006999Y017991D01*
X006699Y017991D01*
X006649Y018041D01*
X006649Y019041D01*
X006699Y018991D01*
X006699Y019991D01*
X006649Y020041D01*
X005699Y020391D02*
X005699Y019491D01*
X005649Y019441D01*
X005699Y019391D01*
X005699Y018491D01*
X004949Y017741D01*
X004949Y012441D01*
X005449Y011941D01*
X005498Y011941D01*
X005498Y011592D01*
X006149Y010941D01*
X008549Y010941D01*
X007449Y011941D02*
X006600Y011941D01*
X005699Y018491D02*
X005749Y018541D01*
X005649Y020441D02*
X005699Y020491D01*
X023207Y012554D02*
X024836Y012554D01*
X024849Y012641D01*
D20*
X015049Y004141D02*
X005749Y004141D01*
X004949Y005141D01*
X004949Y012441D01*
X005549Y011941D02*
X005549Y011641D01*
X009749Y008341D02*
X010849Y007241D01*
X018049Y007241D01*
X018049Y005841D02*
X016749Y005841D01*
X015049Y004141D01*
X015991Y003199D01*
X015991Y002794D01*
X016991Y002794D02*
X016991Y004183D01*
X017649Y004841D01*
X017675Y004915D01*
X017675Y004908D01*
X018423Y004915D02*
X018449Y004741D01*
X018991Y004199D01*
X018991Y002794D01*
X019991Y002794D02*
X019991Y005099D01*
X019249Y005841D01*
X022049Y005841D01*
X023249Y005841D01*
X023991Y005099D01*
X023991Y002794D01*
X022991Y002794D02*
X022991Y004299D01*
X022423Y004867D01*
X022423Y004908D01*
X021675Y004908D02*
X021675Y004867D01*
X020991Y004183D01*
X020991Y002794D01*
X021991Y002794D02*
X022049Y002851D01*
X022049Y005774D01*
X023249Y005841D02*
X026049Y005841D01*
X026049Y002851D01*
X025991Y002794D01*
X024991Y002794D02*
X024991Y004183D01*
X025675Y004867D01*
X025675Y004908D01*
X026423Y004915D02*
X026423Y004908D01*
X026423Y004915D02*
X026449Y004941D01*
X026991Y004399D01*
X026991Y002794D01*
X028601Y002799D02*
X028601Y005089D01*
X027849Y005841D01*
X030649Y005841D01*
X030649Y002846D01*
X030648Y002846D02*
X030646Y002834D01*
X030642Y002822D01*
X030634Y002813D01*
X030624Y002805D01*
X030613Y002801D01*
X030601Y002799D01*
X029601Y002799D02*
X029601Y004194D01*
X030316Y004908D01*
X030275Y004908D01*
X030316Y004908D02*
X030349Y004941D01*
X031023Y004908D02*
X031023Y004867D01*
X031601Y004289D01*
X031601Y002799D01*
X032601Y002799D02*
X032601Y005089D01*
X031849Y005841D01*
X034649Y005841D01*
X034649Y002846D01*
X034601Y002799D01*
X035601Y002799D02*
X035601Y004289D01*
X035023Y004867D01*
X035023Y004908D01*
X034275Y004908D02*
X034275Y004867D01*
X033601Y004194D01*
X033601Y002799D01*
X036601Y002799D02*
X036601Y005089D01*
X035849Y005841D01*
X038549Y005841D01*
X038549Y005774D02*
X038549Y002851D01*
X038601Y002799D01*
X037601Y002799D02*
X037601Y004294D01*
X038175Y004867D01*
X038175Y004908D01*
X038923Y004915D02*
X038923Y004908D01*
X038923Y004915D02*
X038949Y004941D01*
X038949Y004841D01*
X038949Y004941D02*
X039601Y004289D01*
X039601Y002799D01*
X035849Y005841D02*
X034649Y005841D01*
X034649Y005774D01*
X031849Y005841D02*
X030649Y005841D01*
X030649Y005774D01*
X030649Y005741D01*
X027849Y005841D02*
X026049Y005841D01*
X026049Y005774D01*
X019249Y005841D02*
X018049Y005841D01*
X018049Y002851D01*
X018048Y002838D01*
X018043Y002826D01*
X018036Y002815D01*
X018027Y002806D01*
X018016Y002799D01*
X018004Y002794D01*
X017991Y002793D01*
X018423Y004908D02*
X018423Y004915D01*
X018049Y005774D02*
X018049Y005841D01*
X018349Y019941D02*
X016949Y019941D01*
X016949Y022941D01*
X016049Y022941D02*
X016049Y021341D01*
X016549Y020841D01*
X017349Y020841D02*
X017949Y021441D01*
X017949Y022941D01*
X018949Y022941D02*
X018949Y020541D01*
X018349Y019941D01*
X020949Y019941D01*
X020949Y022941D01*
X020049Y022941D02*
X020049Y021341D01*
X020549Y020841D01*
X021349Y020841D02*
X022049Y021541D01*
X022049Y022941D01*
X022949Y022941D02*
X022949Y020541D01*
X022349Y019941D01*
X025049Y019941D01*
X025049Y020041D01*
X025049Y022931D01*
X024996Y022983D01*
X025949Y022941D02*
X025949Y021341D01*
X025449Y020841D01*
X024649Y020941D02*
X023949Y021641D01*
X023949Y022941D01*
X027049Y022941D02*
X027049Y020541D01*
X026449Y019941D01*
X029649Y019941D01*
X029649Y022841D01*
X029549Y022941D01*
X030649Y022941D02*
X030649Y021441D01*
X030049Y020841D01*
X029249Y020841D02*
X028549Y021541D01*
X028549Y022941D01*
X031649Y022941D02*
X031649Y020541D01*
X031049Y019941D01*
X033649Y019941D01*
X033649Y022941D01*
X032649Y022941D02*
X032649Y021441D01*
X033249Y020841D01*
X034049Y020841D02*
X034649Y021441D01*
X034649Y022941D01*
X035549Y022941D02*
X035549Y020541D01*
X034949Y019941D01*
X037549Y019941D01*
X038849Y019941D01*
X039649Y020741D01*
X039649Y022941D01*
X038649Y022941D02*
X038649Y021641D01*
X037949Y020941D01*
X037149Y020841D02*
X036649Y021341D01*
X036649Y022941D01*
X037549Y022941D02*
X037549Y019941D01*
X034949Y019941D02*
X033649Y019941D01*
X031049Y019941D02*
X029649Y019941D01*
X026449Y019941D02*
X025049Y019941D01*
X025049Y020041D02*
X025049Y020108D01*
X022349Y019941D02*
X020949Y019941D01*
X016949Y019941D02*
X014749Y019941D01*
X013649Y021041D01*
X006349Y021041D01*
X005699Y020391D01*
X016949Y020008D02*
X016949Y019941D01*
M02*
