%
M48
M72
T01C0.0276
T02C0.0350
T03C0.0354
T04C0.0394
T05C0.0420
T06C0.0472
T07C0.1280
T08C0.1300
T09C0.1969
%
T01
X5949Y5441
X5949Y7041
X10449Y8841
X12849Y8941
X12849Y8141
X16749Y11041
X17549Y9941
X18049Y7241
X22049Y10141
X22049Y10941
X24849Y12641
X24149Y13341
X24849Y13941
X25349Y14541
X26049Y14741
X23749Y14641
X14349Y16441
X14349Y17941
T02
X6699Y17991
X5699Y17491
X6699Y16991
X5699Y18491
X6699Y18991
X5699Y19491
X6699Y19991
X5699Y20491
T03
X3549Y7107
X3549Y5375
T04
X8549Y10941
X8549Y11941
X8549Y12941
T05
X32991Y12994
X32991Y13994
X32991Y14994
X32991Y15994
X32991Y11994
X32991Y10994
T06
X32601Y2799
X33601Y2799
X34601Y2799
X35601Y2799
X36601Y2799
X37601Y2799
X38601Y2799
X39601Y2799
X31601Y2799
X30601Y2799
X29601Y2799
X28601Y2799
X26991Y2794
X25991Y2794
X24991Y2794
X23991Y2794
X22991Y2794
X21991Y2794
X20991Y2794
X19991Y2794
X18991Y2794
X17991Y2794
X16991Y2794
X15991Y2794
X15996Y22983
X16996Y22983
X17996Y22983
X18996Y22983
X19996Y22983
X20996Y22983
X21996Y22983
X22996Y22983
X23996Y22983
X24996Y22983
X25996Y22983
X26996Y22983
X28596Y22983
X29596Y22983
X30596Y22983
X31596Y22983
X32596Y22983
X33596Y22983
X34596Y22983
X35596Y22983
X36596Y22983
X37596Y22983
X38596Y22983
X39596Y22983
T07
X3199Y20991
X3199Y16491
T08
X2649Y11941
T09
X3249Y2241
X3149Y23941
X38449Y17641
X38549Y8241
M30
