G75*
G70*
%OFA0B0*%
%FSLAX24Y24*%
%IPPOS*%
%LPD*%
%AMOC8*
5,1,8,0,0,1.08239X$1,22.5*
%
%ADD10C,0.0000*%
%ADD11C,0.0040*%
%ADD12C,0.0060*%
%ADD13C,0.0160*%
%ADD14C,0.0100*%
%ADD15C,0.0050*%
%ADD16C,0.0020*%
%ADD17C,0.0070*%
%ADD18R,0.0200X0.0200*%
%ADD19C,0.0080*%
%ADD20R,0.0079X0.0079*%
%ADD21R,0.0500X0.1000*%
D10*
X001149Y000141D02*
X001149Y025732D01*
X040519Y025732D01*
X040519Y000141D01*
X001149Y000141D01*
X002265Y002241D02*
X002269Y002330D01*
X002281Y002419D01*
X002301Y002506D01*
X002330Y002592D01*
X002365Y002674D01*
X002408Y002752D01*
X002458Y002827D01*
X002515Y002896D01*
X002577Y002960D01*
X002646Y003018D01*
X002719Y003070D01*
X002796Y003115D01*
X002878Y003152D01*
X002962Y003182D01*
X003049Y003204D01*
X003137Y003219D01*
X003227Y003225D01*
X003316Y003223D01*
X003405Y003213D01*
X003493Y003194D01*
X003579Y003168D01*
X003661Y003134D01*
X003741Y003093D01*
X003816Y003045D01*
X003887Y002990D01*
X003953Y002929D01*
X004012Y002862D01*
X004066Y002790D01*
X004112Y002713D01*
X004152Y002633D01*
X004183Y002549D01*
X004208Y002463D01*
X004224Y002375D01*
X004232Y002286D01*
X004232Y002196D01*
X004224Y002107D01*
X004208Y002019D01*
X004183Y001933D01*
X004152Y001849D01*
X004112Y001769D01*
X004066Y001692D01*
X004012Y001620D01*
X003953Y001553D01*
X003887Y001492D01*
X003816Y001437D01*
X003741Y001389D01*
X003661Y001348D01*
X003579Y001314D01*
X003493Y001288D01*
X003405Y001269D01*
X003316Y001259D01*
X003227Y001257D01*
X003137Y001263D01*
X003049Y001278D01*
X002962Y001300D01*
X002878Y001330D01*
X002796Y001367D01*
X002719Y001412D01*
X002646Y001464D01*
X002577Y001522D01*
X002515Y001586D01*
X002458Y001655D01*
X002408Y001730D01*
X002365Y001808D01*
X002330Y001890D01*
X002301Y001976D01*
X002281Y002063D01*
X002269Y002152D01*
X002265Y002241D01*
X003372Y005375D02*
X003374Y005402D01*
X003380Y005428D01*
X003390Y005454D01*
X003404Y005477D01*
X003421Y005498D01*
X003442Y005516D01*
X003464Y005530D01*
X003489Y005542D01*
X003515Y005549D01*
X003542Y005552D01*
X003569Y005551D01*
X003596Y005546D01*
X003621Y005537D01*
X003645Y005524D01*
X003667Y005507D01*
X003686Y005488D01*
X003701Y005465D01*
X003713Y005441D01*
X003721Y005415D01*
X003725Y005389D01*
X003725Y005361D01*
X003721Y005335D01*
X003713Y005309D01*
X003701Y005285D01*
X003686Y005262D01*
X003667Y005243D01*
X003645Y005226D01*
X003621Y005213D01*
X003596Y005204D01*
X003569Y005199D01*
X003542Y005198D01*
X003515Y005201D01*
X003489Y005208D01*
X003464Y005220D01*
X003442Y005234D01*
X003421Y005252D01*
X003404Y005273D01*
X003390Y005296D01*
X003380Y005322D01*
X003374Y005348D01*
X003372Y005375D01*
X003372Y007107D02*
X003374Y007134D01*
X003380Y007160D01*
X003390Y007186D01*
X003404Y007209D01*
X003421Y007230D01*
X003442Y007248D01*
X003464Y007262D01*
X003489Y007274D01*
X003515Y007281D01*
X003542Y007284D01*
X003569Y007283D01*
X003596Y007278D01*
X003621Y007269D01*
X003645Y007256D01*
X003667Y007239D01*
X003686Y007220D01*
X003701Y007197D01*
X003713Y007173D01*
X003721Y007147D01*
X003725Y007121D01*
X003725Y007093D01*
X003721Y007067D01*
X003713Y007041D01*
X003701Y007017D01*
X003686Y006994D01*
X003667Y006975D01*
X003645Y006958D01*
X003621Y006945D01*
X003596Y006936D01*
X003569Y006931D01*
X003542Y006930D01*
X003515Y006933D01*
X003489Y006940D01*
X003464Y006952D01*
X003442Y006966D01*
X003421Y006984D01*
X003404Y007005D01*
X003390Y007028D01*
X003380Y007054D01*
X003374Y007080D01*
X003372Y007107D01*
X001999Y011941D02*
X002002Y012000D01*
X002010Y012059D01*
X002023Y012116D01*
X002042Y012173D01*
X002065Y012227D01*
X002094Y012279D01*
X002127Y012328D01*
X002164Y012374D01*
X002205Y012416D01*
X002250Y012454D01*
X002299Y012489D01*
X002350Y012518D01*
X002404Y012543D01*
X002459Y012563D01*
X002517Y012577D01*
X002575Y012587D01*
X002634Y012591D01*
X002693Y012589D01*
X002752Y012583D01*
X002810Y012571D01*
X002867Y012553D01*
X002921Y012531D01*
X002974Y012504D01*
X003024Y012472D01*
X003071Y012436D01*
X003114Y012395D01*
X003153Y012351D01*
X003188Y012304D01*
X003219Y012253D01*
X003245Y012200D01*
X003266Y012145D01*
X003282Y012088D01*
X003293Y012030D01*
X003298Y011971D01*
X003298Y011911D01*
X003293Y011852D01*
X003282Y011794D01*
X003266Y011737D01*
X003245Y011682D01*
X003219Y011629D01*
X003188Y011578D01*
X003153Y011531D01*
X003114Y011487D01*
X003071Y011446D01*
X003024Y011410D01*
X002974Y011378D01*
X002921Y011351D01*
X002867Y011329D01*
X002810Y011311D01*
X002752Y011299D01*
X002693Y011293D01*
X002634Y011291D01*
X002575Y011295D01*
X002517Y011305D01*
X002459Y011319D01*
X002404Y011339D01*
X002350Y011364D01*
X002299Y011393D01*
X002250Y011428D01*
X002205Y011466D01*
X002164Y011508D01*
X002127Y011554D01*
X002094Y011603D01*
X002065Y011655D01*
X002042Y011709D01*
X002023Y011766D01*
X002010Y011823D01*
X002002Y011882D01*
X001999Y011941D01*
X002559Y016491D02*
X002562Y016549D01*
X002570Y016607D01*
X002583Y016664D01*
X002601Y016719D01*
X002624Y016772D01*
X002652Y016824D01*
X002685Y016872D01*
X002721Y016917D01*
X002762Y016959D01*
X002807Y016997D01*
X002854Y017030D01*
X002905Y017059D01*
X002957Y017084D01*
X003012Y017103D01*
X003069Y017118D01*
X003126Y017127D01*
X003184Y017131D01*
X003243Y017130D01*
X003301Y017123D01*
X003358Y017111D01*
X003413Y017094D01*
X003467Y017072D01*
X003519Y017045D01*
X003568Y017014D01*
X003614Y016978D01*
X003657Y016938D01*
X003695Y016895D01*
X003730Y016848D01*
X003760Y016798D01*
X003786Y016746D01*
X003807Y016692D01*
X003822Y016635D01*
X003833Y016578D01*
X003838Y016520D01*
X003838Y016462D01*
X003833Y016404D01*
X003822Y016347D01*
X003807Y016290D01*
X003786Y016236D01*
X003760Y016184D01*
X003730Y016134D01*
X003695Y016087D01*
X003657Y016044D01*
X003614Y016004D01*
X003568Y015968D01*
X003519Y015937D01*
X003467Y015910D01*
X003413Y015888D01*
X003358Y015871D01*
X003301Y015859D01*
X003243Y015852D01*
X003184Y015851D01*
X003126Y015855D01*
X003069Y015864D01*
X003012Y015879D01*
X002957Y015898D01*
X002905Y015923D01*
X002854Y015952D01*
X002807Y015985D01*
X002762Y016023D01*
X002721Y016065D01*
X002685Y016110D01*
X002652Y016158D01*
X002624Y016210D01*
X002601Y016263D01*
X002583Y016318D01*
X002570Y016375D01*
X002562Y016433D01*
X002559Y016491D01*
X002559Y020991D02*
X002562Y021049D01*
X002570Y021107D01*
X002583Y021164D01*
X002601Y021219D01*
X002624Y021272D01*
X002652Y021324D01*
X002685Y021372D01*
X002721Y021417D01*
X002762Y021459D01*
X002807Y021497D01*
X002854Y021530D01*
X002905Y021559D01*
X002957Y021584D01*
X003012Y021603D01*
X003069Y021618D01*
X003126Y021627D01*
X003184Y021631D01*
X003243Y021630D01*
X003301Y021623D01*
X003358Y021611D01*
X003413Y021594D01*
X003467Y021572D01*
X003519Y021545D01*
X003568Y021514D01*
X003614Y021478D01*
X003657Y021438D01*
X003695Y021395D01*
X003730Y021348D01*
X003760Y021298D01*
X003786Y021246D01*
X003807Y021192D01*
X003822Y021135D01*
X003833Y021078D01*
X003838Y021020D01*
X003838Y020962D01*
X003833Y020904D01*
X003822Y020847D01*
X003807Y020790D01*
X003786Y020736D01*
X003760Y020684D01*
X003730Y020634D01*
X003695Y020587D01*
X003657Y020544D01*
X003614Y020504D01*
X003568Y020468D01*
X003519Y020437D01*
X003467Y020410D01*
X003413Y020388D01*
X003358Y020371D01*
X003301Y020359D01*
X003243Y020352D01*
X003184Y020351D01*
X003126Y020355D01*
X003069Y020364D01*
X003012Y020379D01*
X002957Y020398D01*
X002905Y020423D01*
X002854Y020452D01*
X002807Y020485D01*
X002762Y020523D01*
X002721Y020565D01*
X002685Y020610D01*
X002652Y020658D01*
X002624Y020710D01*
X002601Y020763D01*
X002583Y020818D01*
X002570Y020875D01*
X002562Y020933D01*
X002559Y020991D01*
X002165Y023941D02*
X002169Y024030D01*
X002181Y024119D01*
X002201Y024206D01*
X002230Y024292D01*
X002265Y024374D01*
X002308Y024452D01*
X002358Y024527D01*
X002415Y024596D01*
X002477Y024660D01*
X002546Y024718D01*
X002619Y024770D01*
X002696Y024815D01*
X002778Y024852D01*
X002862Y024882D01*
X002949Y024904D01*
X003037Y024919D01*
X003127Y024925D01*
X003216Y024923D01*
X003305Y024913D01*
X003393Y024894D01*
X003479Y024868D01*
X003561Y024834D01*
X003641Y024793D01*
X003716Y024745D01*
X003787Y024690D01*
X003853Y024629D01*
X003912Y024562D01*
X003966Y024490D01*
X004012Y024413D01*
X004052Y024333D01*
X004083Y024249D01*
X004108Y024163D01*
X004124Y024075D01*
X004132Y023986D01*
X004132Y023896D01*
X004124Y023807D01*
X004108Y023719D01*
X004083Y023633D01*
X004052Y023549D01*
X004012Y023469D01*
X003966Y023392D01*
X003912Y023320D01*
X003853Y023253D01*
X003787Y023192D01*
X003716Y023137D01*
X003641Y023089D01*
X003561Y023048D01*
X003479Y023014D01*
X003393Y022988D01*
X003305Y022969D01*
X003216Y022959D01*
X003127Y022957D01*
X003037Y022963D01*
X002949Y022978D01*
X002862Y023000D01*
X002778Y023030D01*
X002696Y023067D01*
X002619Y023112D01*
X002546Y023164D01*
X002477Y023222D01*
X002415Y023286D01*
X002358Y023355D01*
X002308Y023430D01*
X002265Y023508D01*
X002230Y023590D01*
X002201Y023676D01*
X002181Y023763D01*
X002169Y023852D01*
X002165Y023941D01*
X037465Y017641D02*
X037469Y017730D01*
X037481Y017819D01*
X037501Y017906D01*
X037530Y017992D01*
X037565Y018074D01*
X037608Y018152D01*
X037658Y018227D01*
X037715Y018296D01*
X037777Y018360D01*
X037846Y018418D01*
X037919Y018470D01*
X037996Y018515D01*
X038078Y018552D01*
X038162Y018582D01*
X038249Y018604D01*
X038337Y018619D01*
X038427Y018625D01*
X038516Y018623D01*
X038605Y018613D01*
X038693Y018594D01*
X038779Y018568D01*
X038861Y018534D01*
X038941Y018493D01*
X039016Y018445D01*
X039087Y018390D01*
X039153Y018329D01*
X039212Y018262D01*
X039266Y018190D01*
X039312Y018113D01*
X039352Y018033D01*
X039383Y017949D01*
X039408Y017863D01*
X039424Y017775D01*
X039432Y017686D01*
X039432Y017596D01*
X039424Y017507D01*
X039408Y017419D01*
X039383Y017333D01*
X039352Y017249D01*
X039312Y017169D01*
X039266Y017092D01*
X039212Y017020D01*
X039153Y016953D01*
X039087Y016892D01*
X039016Y016837D01*
X038941Y016789D01*
X038861Y016748D01*
X038779Y016714D01*
X038693Y016688D01*
X038605Y016669D01*
X038516Y016659D01*
X038427Y016657D01*
X038337Y016663D01*
X038249Y016678D01*
X038162Y016700D01*
X038078Y016730D01*
X037996Y016767D01*
X037919Y016812D01*
X037846Y016864D01*
X037777Y016922D01*
X037715Y016986D01*
X037658Y017055D01*
X037608Y017130D01*
X037565Y017208D01*
X037530Y017290D01*
X037501Y017376D01*
X037481Y017463D01*
X037469Y017552D01*
X037465Y017641D01*
X037565Y008241D02*
X037569Y008330D01*
X037581Y008419D01*
X037601Y008506D01*
X037630Y008592D01*
X037665Y008674D01*
X037708Y008752D01*
X037758Y008827D01*
X037815Y008896D01*
X037877Y008960D01*
X037946Y009018D01*
X038019Y009070D01*
X038096Y009115D01*
X038178Y009152D01*
X038262Y009182D01*
X038349Y009204D01*
X038437Y009219D01*
X038527Y009225D01*
X038616Y009223D01*
X038705Y009213D01*
X038793Y009194D01*
X038879Y009168D01*
X038961Y009134D01*
X039041Y009093D01*
X039116Y009045D01*
X039187Y008990D01*
X039253Y008929D01*
X039312Y008862D01*
X039366Y008790D01*
X039412Y008713D01*
X039452Y008633D01*
X039483Y008549D01*
X039508Y008463D01*
X039524Y008375D01*
X039532Y008286D01*
X039532Y008196D01*
X039524Y008107D01*
X039508Y008019D01*
X039483Y007933D01*
X039452Y007849D01*
X039412Y007769D01*
X039366Y007692D01*
X039312Y007620D01*
X039253Y007553D01*
X039187Y007492D01*
X039116Y007437D01*
X039041Y007389D01*
X038961Y007348D01*
X038879Y007314D01*
X038793Y007288D01*
X038705Y007269D01*
X038616Y007259D01*
X038527Y007257D01*
X038437Y007263D01*
X038349Y007278D01*
X038262Y007300D01*
X038178Y007330D01*
X038096Y007367D01*
X038019Y007412D01*
X037946Y007464D01*
X037877Y007522D01*
X037815Y007586D01*
X037758Y007655D01*
X037708Y007730D01*
X037665Y007808D01*
X037630Y007890D01*
X037601Y007976D01*
X037581Y008063D01*
X037569Y008152D01*
X037565Y008241D01*
D11*
X036834Y008224D02*
X036758Y008300D01*
X036834Y008224D02*
X036834Y008070D01*
X036758Y007993D01*
X036451Y007993D01*
X036374Y008070D01*
X036374Y008224D01*
X036451Y008300D01*
X036374Y008454D02*
X036527Y008607D01*
X036681Y008607D01*
X036834Y008454D01*
X036834Y007840D02*
X036681Y007687D01*
X036527Y007687D01*
X036374Y007840D01*
X036374Y009221D02*
X036374Y009451D01*
X036451Y009528D01*
X036527Y009528D01*
X036604Y009451D01*
X036604Y009221D01*
X036834Y009221D02*
X036374Y009221D01*
X036604Y009451D02*
X036681Y009528D01*
X036758Y009528D01*
X036834Y009451D01*
X036834Y009221D01*
X036834Y009681D02*
X036527Y009681D01*
X036527Y009835D02*
X036527Y009912D01*
X036527Y009835D02*
X036681Y009681D01*
X036758Y010065D02*
X036681Y010142D01*
X036681Y010372D01*
X036604Y010372D02*
X036834Y010372D01*
X036834Y010142D01*
X036758Y010065D01*
X036527Y010142D02*
X036527Y010295D01*
X036604Y010372D01*
X036527Y010525D02*
X036527Y010756D01*
X036604Y010832D01*
X036834Y010832D01*
X036758Y010986D02*
X036604Y010986D01*
X036527Y011062D01*
X036527Y011293D01*
X036374Y011293D02*
X036834Y011293D01*
X036834Y011062D01*
X036758Y010986D01*
X036758Y011446D02*
X036604Y011446D01*
X036527Y011523D01*
X036527Y011676D01*
X036604Y011753D01*
X036758Y011753D01*
X036834Y011676D01*
X036834Y011523D01*
X036758Y011446D01*
X036834Y011906D02*
X036527Y011906D01*
X036527Y012137D01*
X036604Y012213D01*
X036834Y012213D01*
X036834Y012827D02*
X036374Y012827D01*
X036374Y013134D01*
X036604Y012981D02*
X036604Y012827D01*
X036604Y013288D02*
X036758Y013288D01*
X036834Y013364D01*
X036834Y013518D01*
X036758Y013594D01*
X036604Y013594D01*
X036527Y013518D01*
X036527Y013364D01*
X036604Y013288D01*
X036604Y013748D02*
X036527Y013825D01*
X036527Y014055D01*
X036604Y014208D02*
X036527Y014285D01*
X036527Y014515D01*
X036374Y014515D02*
X036834Y014515D01*
X036834Y014285D01*
X036758Y014208D01*
X036604Y014208D01*
X036758Y014055D02*
X036681Y013978D01*
X036681Y013825D01*
X036604Y013748D01*
X036834Y013748D02*
X036834Y013978D01*
X036758Y014055D01*
X036834Y014669D02*
X036834Y014822D01*
X036834Y014745D02*
X036527Y014745D01*
X036527Y014669D01*
X036374Y014745D02*
X036297Y014745D01*
X036527Y015052D02*
X036604Y014975D01*
X036758Y014975D01*
X036834Y015052D01*
X036834Y015282D01*
X036834Y015436D02*
X036374Y015436D01*
X036527Y015282D02*
X036527Y015052D01*
X036681Y015436D02*
X036527Y015666D01*
X036681Y015436D02*
X036834Y015666D01*
X036834Y016280D02*
X036527Y016587D01*
X036451Y016587D01*
X036374Y016510D01*
X036374Y016356D01*
X036451Y016280D01*
X036834Y016280D02*
X036834Y016587D01*
X036758Y016740D02*
X036451Y016740D01*
X036374Y016817D01*
X036374Y016970D01*
X036451Y017047D01*
X036758Y016740D01*
X036834Y016817D01*
X036834Y016970D01*
X036758Y017047D01*
X036451Y017047D01*
X036451Y017201D02*
X036374Y017277D01*
X036374Y017431D01*
X036451Y017507D01*
X036758Y017201D01*
X036834Y017277D01*
X036834Y017431D01*
X036758Y017507D01*
X036451Y017507D01*
X036374Y017661D02*
X036374Y017968D01*
X036451Y017968D01*
X036758Y017661D01*
X036834Y017661D01*
X036758Y017201D02*
X036451Y017201D01*
X038174Y015988D02*
X038174Y015834D01*
X038251Y015757D01*
X038327Y015604D02*
X038634Y015450D01*
X038327Y015297D01*
X038634Y015757D02*
X038327Y016064D01*
X038251Y016064D01*
X038174Y015988D01*
X038634Y016064D02*
X038634Y015757D01*
X038481Y014683D02*
X038481Y014376D01*
X038558Y014376D02*
X038404Y014376D01*
X038327Y014453D01*
X038327Y014606D01*
X038404Y014683D01*
X038481Y014683D01*
X038634Y014606D02*
X038634Y014453D01*
X038558Y014376D01*
X038634Y014223D02*
X038634Y013993D01*
X038558Y013916D01*
X038404Y013916D01*
X038327Y013993D01*
X038327Y014223D01*
X038174Y014223D02*
X038634Y014223D01*
X038558Y013762D02*
X038404Y013762D01*
X038327Y013686D01*
X038327Y013532D01*
X038404Y013456D01*
X038558Y013456D01*
X038634Y013532D01*
X038634Y013686D01*
X038558Y013762D01*
X038634Y013302D02*
X038174Y013302D01*
X038174Y012995D02*
X038634Y013302D01*
X038634Y012995D02*
X038174Y012995D01*
X038327Y012381D02*
X038711Y012381D01*
X038788Y012305D01*
X038788Y012228D01*
X038634Y012151D02*
X038634Y012381D01*
X038634Y012151D02*
X038558Y012075D01*
X038327Y012075D01*
X038404Y011921D02*
X038327Y011844D01*
X038327Y011691D01*
X038481Y011691D02*
X038481Y011921D01*
X038404Y011921D02*
X038634Y011921D01*
X038634Y011691D01*
X038558Y011614D01*
X038481Y011691D01*
X038634Y011461D02*
X038634Y011307D01*
X038634Y011384D02*
X038174Y011384D01*
X038174Y011307D01*
X038327Y011077D02*
X038404Y011154D01*
X038481Y011154D01*
X038481Y010847D01*
X038558Y010847D02*
X038404Y010847D01*
X038327Y010924D01*
X038327Y011077D01*
X038634Y011077D02*
X038634Y010924D01*
X038558Y010847D01*
X038634Y010693D02*
X038481Y010540D01*
X038481Y010617D02*
X038481Y010387D01*
X038634Y010387D02*
X038174Y010387D01*
X038174Y010617D01*
X038251Y010693D01*
X038404Y010693D01*
X038481Y010617D01*
X036834Y010525D02*
X036527Y010525D01*
X032191Y012856D02*
X032191Y013009D01*
X032191Y012932D02*
X031731Y012932D01*
X031731Y012856D02*
X031731Y013009D01*
X031808Y013162D02*
X032115Y013162D01*
X032191Y013239D01*
X032191Y013393D01*
X032115Y013469D01*
X032115Y013623D02*
X032191Y013699D01*
X032191Y013853D01*
X032115Y013930D01*
X032038Y013930D01*
X031961Y013853D01*
X031961Y013699D01*
X031884Y013623D01*
X031808Y013623D01*
X031731Y013699D01*
X031731Y013853D01*
X031808Y013930D01*
X031731Y014083D02*
X031731Y014313D01*
X031808Y014390D01*
X031961Y014390D01*
X032038Y014313D01*
X032038Y014083D01*
X032191Y014083D02*
X031731Y014083D01*
X031808Y013469D02*
X031731Y013393D01*
X031731Y013239D01*
X031808Y013162D01*
X031109Y011321D02*
X030956Y011321D01*
X030879Y011245D01*
X030726Y011245D02*
X030726Y011091D01*
X030649Y011015D01*
X030419Y011015D01*
X030572Y011015D02*
X030726Y010861D01*
X030879Y010861D02*
X031186Y011168D01*
X031186Y011245D01*
X031109Y011321D01*
X030726Y011245D02*
X030649Y011321D01*
X030419Y011321D01*
X030419Y010861D01*
X030879Y010861D02*
X031186Y010861D01*
X029771Y010854D02*
X029465Y010854D01*
X029618Y010854D02*
X029618Y011314D01*
X029465Y011161D01*
X029311Y011237D02*
X029311Y010930D01*
X029234Y010854D01*
X029004Y010854D01*
X029004Y011314D01*
X029234Y011314D01*
X029311Y011237D01*
X028851Y011314D02*
X028544Y011314D01*
X028544Y010854D01*
X028851Y010854D01*
X028697Y011084D02*
X028544Y011084D01*
X028390Y010854D02*
X028084Y010854D01*
X028084Y011314D01*
X029719Y016211D02*
X029949Y016211D01*
X030026Y016288D01*
X030026Y016595D01*
X029949Y016671D01*
X029719Y016671D01*
X029719Y016211D01*
X030179Y016211D02*
X030486Y016518D01*
X030486Y016595D01*
X030409Y016671D01*
X030256Y016671D01*
X030179Y016595D01*
X030179Y016211D02*
X030486Y016211D01*
X028707Y023476D02*
X028400Y023476D01*
X028553Y023476D02*
X028553Y023936D01*
X028400Y023783D01*
X016837Y017428D02*
X016837Y017275D01*
X016760Y017198D01*
X016606Y017198D01*
X016606Y017428D01*
X016683Y017505D01*
X016760Y017505D01*
X016837Y017428D01*
X016606Y017198D02*
X016453Y017352D01*
X016376Y017505D01*
X016453Y017045D02*
X016376Y016968D01*
X016376Y016815D01*
X016453Y016738D01*
X016760Y016738D01*
X016837Y016815D01*
X016837Y016968D01*
X016760Y017045D01*
X013365Y016106D02*
X013365Y016029D01*
X013289Y015952D01*
X013365Y015876D01*
X013365Y015799D01*
X013289Y015722D01*
X013135Y015722D01*
X013059Y015799D01*
X012905Y015799D02*
X012828Y015722D01*
X012675Y015722D01*
X012598Y015799D01*
X012598Y016106D01*
X012675Y016182D01*
X012828Y016182D01*
X012905Y016106D01*
X013059Y016106D02*
X013135Y016182D01*
X013289Y016182D01*
X013365Y016106D01*
X013289Y015952D02*
X013212Y015952D01*
X012445Y015722D02*
X012291Y015722D01*
X012368Y015722D02*
X012368Y016182D01*
X012291Y016182D02*
X012445Y016182D01*
X012368Y018472D02*
X012214Y018472D01*
X012138Y018549D01*
X012138Y018702D02*
X012291Y018779D01*
X012368Y018779D01*
X012445Y018702D01*
X012445Y018549D01*
X012368Y018472D01*
X012598Y018549D02*
X012905Y018856D01*
X012905Y018549D01*
X012828Y018472D01*
X012675Y018472D01*
X012598Y018549D01*
X012598Y018856D01*
X012675Y018932D01*
X012828Y018932D01*
X012905Y018856D01*
X013058Y018932D02*
X013058Y018472D01*
X013289Y018472D01*
X013365Y018549D01*
X013365Y018856D01*
X013289Y018932D01*
X013058Y018932D01*
X012445Y018932D02*
X012138Y018932D01*
X012138Y018702D01*
X011984Y018626D02*
X011984Y018549D01*
X011907Y018472D01*
X011754Y018472D01*
X011677Y018549D01*
X011524Y018549D02*
X011447Y018472D01*
X011294Y018472D01*
X011217Y018549D01*
X011217Y018702D02*
X011370Y018779D01*
X011447Y018779D01*
X011524Y018702D01*
X011524Y018549D01*
X011677Y018856D02*
X011754Y018932D01*
X011907Y018932D01*
X011984Y018856D01*
X011984Y018779D01*
X011907Y018702D01*
X011984Y018626D01*
X011907Y018702D02*
X011831Y018702D01*
X011524Y018932D02*
X011217Y018932D01*
X011217Y018702D01*
X011064Y018549D02*
X010987Y018472D01*
X010833Y018472D01*
X010757Y018549D01*
X010757Y018856D01*
X010833Y018932D01*
X010987Y018932D01*
X011064Y018856D01*
X010603Y018932D02*
X010603Y018549D01*
X010526Y018472D01*
X010373Y018472D01*
X010296Y018549D01*
X010296Y018932D01*
X009429Y017358D02*
X009429Y017051D01*
X009429Y017204D02*
X008969Y017204D01*
X009122Y017051D01*
X009045Y016897D02*
X009199Y016897D01*
X009276Y016821D01*
X009276Y016590D01*
X009429Y016590D02*
X008969Y016590D01*
X008969Y016821D01*
X009045Y016897D01*
X009276Y016744D02*
X009429Y016897D01*
X013119Y012478D02*
X013119Y012171D01*
X013349Y012171D01*
X013272Y012325D01*
X013272Y012402D01*
X013349Y012478D01*
X013502Y012478D01*
X013579Y012402D01*
X013579Y012248D01*
X013502Y012171D01*
X013502Y012018D02*
X013579Y011941D01*
X013579Y011788D01*
X013502Y011711D01*
X013195Y011711D01*
X013119Y011788D01*
X013119Y011941D01*
X013195Y012018D01*
X015019Y011941D02*
X015019Y011788D01*
X015095Y011711D01*
X015402Y011711D01*
X015479Y011788D01*
X015479Y011941D01*
X015402Y012018D01*
X015249Y012171D02*
X015019Y012402D01*
X015479Y012402D01*
X015249Y012478D02*
X015249Y012171D01*
X015095Y012018D02*
X015019Y011941D01*
X012079Y010458D02*
X012079Y010151D01*
X012079Y010304D02*
X011619Y010304D01*
X011772Y010151D01*
X011695Y009997D02*
X011619Y009921D01*
X011619Y009690D01*
X012079Y009690D01*
X012079Y009921D01*
X012002Y009997D01*
X011695Y009997D01*
X013145Y007058D02*
X013069Y006981D01*
X013069Y006827D01*
X013145Y006751D01*
X013145Y006597D02*
X013069Y006521D01*
X013069Y006367D01*
X013145Y006290D01*
X013452Y006290D01*
X013529Y006367D01*
X013529Y006521D01*
X013452Y006597D01*
X013529Y006751D02*
X013222Y007058D01*
X013145Y007058D01*
X013529Y007058D02*
X013529Y006751D01*
X008177Y004322D02*
X008101Y004322D01*
X007794Y004629D01*
X007717Y004629D01*
X007717Y004322D01*
X007794Y004169D02*
X007717Y004092D01*
X007717Y003939D01*
X007794Y003862D01*
X008101Y003862D01*
X008177Y003939D01*
X008177Y004092D01*
X008101Y004169D01*
X004713Y004929D02*
X004713Y005178D01*
X004261Y005178D01*
X004261Y004932D01*
X003976Y004726D02*
X002918Y004726D01*
X002834Y005076D02*
X002834Y005158D01*
X001893Y005260D01*
X001893Y005465D01*
X002834Y005567D01*
X002834Y005648D01*
X001750Y005546D01*
X001750Y005547D02*
X001731Y005543D01*
X001712Y005537D01*
X001695Y005527D01*
X001679Y005515D01*
X001666Y005500D01*
X001655Y005483D01*
X001648Y005465D01*
X001648Y005240D02*
X001655Y005222D01*
X001666Y005205D01*
X001679Y005190D01*
X001695Y005178D01*
X001712Y005168D01*
X001731Y005162D01*
X001750Y005158D01*
X002834Y005076D01*
X001649Y005240D02*
X001640Y005276D01*
X001634Y005314D01*
X001632Y005352D01*
X001634Y005390D01*
X001640Y005427D01*
X001649Y005464D01*
X001750Y005751D02*
X003345Y005832D01*
X003363Y005835D01*
X003380Y005842D01*
X003395Y005851D01*
X003408Y005864D01*
X003417Y005879D01*
X003424Y005896D01*
X003427Y005914D01*
X003426Y005914D02*
X003426Y006568D01*
X003427Y006568D02*
X003424Y006586D01*
X003417Y006603D01*
X003408Y006618D01*
X003395Y006631D01*
X003380Y006640D01*
X003363Y006647D01*
X003345Y006650D01*
X001750Y006732D01*
X001734Y006730D01*
X001719Y006726D01*
X001704Y006718D01*
X001692Y006708D01*
X001682Y006696D01*
X001674Y006681D01*
X001670Y006666D01*
X001668Y006650D01*
X001669Y006650D02*
X001669Y006650D01*
X001668Y006650D02*
X001670Y006634D01*
X001674Y006619D01*
X001682Y006604D01*
X001692Y006592D01*
X001704Y006582D01*
X001719Y006574D01*
X001734Y006570D01*
X001750Y006568D01*
X003099Y006486D01*
X003099Y005996D01*
X001750Y005914D01*
X001734Y005912D01*
X001719Y005908D01*
X001704Y005900D01*
X001692Y005890D01*
X001682Y005878D01*
X001674Y005863D01*
X001670Y005848D01*
X001668Y005832D01*
X001670Y005816D01*
X001674Y005801D01*
X001682Y005786D01*
X001692Y005774D01*
X001704Y005764D01*
X001719Y005756D01*
X001734Y005752D01*
X001750Y005750D01*
X001811Y004729D02*
X001219Y004729D01*
X001219Y007754D01*
X001811Y007754D01*
X001750Y007324D02*
X002834Y007406D01*
X002834Y007324D01*
X001893Y007222D01*
X001893Y007018D01*
X002834Y006916D01*
X002834Y006834D01*
X001750Y006936D01*
X001731Y006940D01*
X001712Y006946D01*
X001695Y006956D01*
X001679Y006968D01*
X001666Y006983D01*
X001655Y007000D01*
X001648Y007018D01*
X001648Y007243D02*
X001655Y007261D01*
X001666Y007278D01*
X001679Y007293D01*
X001695Y007305D01*
X001712Y007315D01*
X001731Y007321D01*
X001750Y007325D01*
X001649Y007242D02*
X001640Y007205D01*
X001634Y007168D01*
X001632Y007130D01*
X001634Y007092D01*
X001640Y007054D01*
X001649Y007018D01*
X001217Y007756D02*
X001217Y004726D01*
X001219Y004729D02*
X001219Y004729D01*
X004261Y007264D02*
X004262Y007550D01*
X004261Y007264D02*
X004707Y007264D01*
X004707Y007550D01*
X003936Y007756D02*
X002938Y007756D01*
X002586Y008511D02*
X002279Y008511D01*
X002126Y008511D02*
X001819Y008971D01*
X002126Y008971D02*
X001819Y008511D01*
X002279Y008818D02*
X002433Y008971D01*
X002433Y008511D01*
X003695Y010211D02*
X003579Y010328D01*
X003695Y010445D01*
X003929Y010445D01*
X003929Y010570D02*
X003929Y010804D01*
X003929Y010687D02*
X003579Y010687D01*
X003695Y010570D01*
X003754Y010445D02*
X003754Y010211D01*
X003695Y010211D02*
X003929Y010211D01*
X003871Y010929D02*
X003929Y010988D01*
X003929Y011104D01*
X003871Y011163D01*
X003754Y011163D01*
X003695Y011104D01*
X003695Y011046D01*
X003754Y010929D01*
X003579Y010929D01*
X003579Y011163D01*
X003871Y011347D02*
X003929Y011347D01*
X003929Y011405D01*
X003871Y011405D01*
X003871Y011347D01*
X003929Y011405D02*
X004046Y011288D01*
X003929Y011528D02*
X003695Y011761D01*
X003637Y011761D01*
X003579Y011703D01*
X003579Y011586D01*
X003637Y011528D01*
X003929Y011528D02*
X003929Y011761D01*
X003929Y011887D02*
X003695Y011887D01*
X003695Y011945D01*
X003754Y012004D01*
X003695Y012062D01*
X003754Y012120D01*
X003929Y012120D01*
X003929Y012004D02*
X003754Y012004D01*
X003695Y012246D02*
X003695Y012304D01*
X003754Y012363D01*
X003695Y012421D01*
X003754Y012479D01*
X003929Y012479D01*
X003929Y012363D02*
X003754Y012363D01*
X003695Y012246D02*
X003929Y012246D01*
X015800Y023476D02*
X016107Y023476D01*
X015953Y023476D02*
X015953Y023936D01*
X015800Y023783D01*
X026921Y002301D02*
X026921Y001841D01*
X027074Y001841D02*
X026767Y001841D01*
X026767Y002148D02*
X026921Y002301D01*
X039378Y002153D02*
X039531Y002307D01*
X039531Y001846D01*
X039378Y001846D02*
X039685Y001846D01*
D12*
X039444Y001012D02*
X039230Y001012D01*
X039124Y000905D01*
X039337Y000691D02*
X039444Y000691D01*
X039551Y000585D01*
X039551Y000478D01*
X039444Y000371D01*
X039230Y000371D01*
X039124Y000478D01*
X038906Y000371D02*
X038479Y000371D01*
X038692Y000371D02*
X038692Y001012D01*
X038479Y000798D01*
X037651Y000691D02*
X037224Y000691D01*
X037544Y001012D01*
X037544Y000371D01*
X037006Y000371D02*
X036579Y000371D01*
X036792Y000371D02*
X036792Y001012D01*
X036579Y000798D01*
X035551Y000691D02*
X035551Y000478D01*
X035444Y000371D01*
X035230Y000371D01*
X035124Y000478D01*
X035124Y000691D02*
X035337Y000798D01*
X035444Y000798D01*
X035551Y000691D01*
X035551Y001012D02*
X035124Y001012D01*
X035124Y000691D01*
X034906Y000371D02*
X034479Y000371D01*
X034692Y000371D02*
X034692Y001012D01*
X034479Y000798D01*
X033551Y000585D02*
X033444Y000691D01*
X033124Y000691D01*
X033124Y000478D01*
X033230Y000371D01*
X033444Y000371D01*
X033551Y000478D01*
X033551Y000585D01*
X033337Y000905D02*
X033124Y000691D01*
X033337Y000905D02*
X033551Y001012D01*
X032692Y001012D02*
X032692Y000371D01*
X032479Y000371D02*
X032906Y000371D01*
X032479Y000798D02*
X032692Y001012D01*
X031551Y001012D02*
X031551Y000905D01*
X031124Y000478D01*
X031124Y000371D01*
X030906Y000371D02*
X030479Y000371D01*
X030692Y000371D02*
X030692Y001012D01*
X030479Y000798D01*
X031124Y001012D02*
X031551Y001012D01*
X029551Y000905D02*
X029551Y000798D01*
X029444Y000691D01*
X029230Y000691D01*
X029124Y000798D01*
X029124Y000905D01*
X029230Y001012D01*
X029444Y001012D01*
X029551Y000905D01*
X029444Y000691D02*
X029551Y000585D01*
X029551Y000478D01*
X029444Y000371D01*
X029230Y000371D01*
X029124Y000478D01*
X029124Y000585D01*
X029230Y000691D01*
X028906Y000371D02*
X028479Y000371D01*
X028692Y000371D02*
X028692Y001012D01*
X028479Y000798D01*
X026951Y000905D02*
X026951Y000478D01*
X026844Y000371D01*
X026630Y000371D01*
X026524Y000478D01*
X026630Y000691D02*
X026524Y000798D01*
X026524Y000905D01*
X026630Y001012D01*
X026844Y001012D01*
X026951Y000905D01*
X026951Y000691D02*
X026630Y000691D01*
X026306Y000371D02*
X025879Y000371D01*
X026092Y000371D02*
X026092Y001012D01*
X025879Y000798D01*
X024951Y000905D02*
X024951Y000478D01*
X024844Y000371D01*
X024630Y000371D01*
X024524Y000478D01*
X024951Y000905D01*
X024844Y001012D01*
X024630Y001012D01*
X024524Y000905D01*
X024524Y000478D01*
X024306Y000371D02*
X023879Y000371D01*
X024306Y000798D01*
X024306Y000905D01*
X024199Y001012D01*
X023986Y001012D01*
X023879Y000905D01*
X022951Y000371D02*
X022524Y000371D01*
X022737Y000371D02*
X022737Y001012D01*
X022524Y000798D01*
X022306Y000798D02*
X022306Y000905D01*
X022199Y001012D01*
X021986Y001012D01*
X021879Y000905D01*
X022306Y000798D02*
X021879Y000371D01*
X022306Y000371D01*
X020951Y000371D02*
X020524Y000371D01*
X020951Y000798D01*
X020951Y000905D01*
X020844Y001012D01*
X020630Y001012D01*
X020524Y000905D01*
X020306Y000905D02*
X020199Y001012D01*
X019986Y001012D01*
X019879Y000905D01*
X020306Y000905D02*
X020306Y000798D01*
X019879Y000371D01*
X020306Y000371D01*
X019051Y000478D02*
X018944Y000371D01*
X018730Y000371D01*
X018624Y000478D01*
X018406Y000371D02*
X017979Y000371D01*
X018406Y000798D01*
X018406Y000905D01*
X018299Y001012D01*
X018086Y001012D01*
X017979Y000905D01*
X018624Y000905D02*
X018730Y001012D01*
X018944Y001012D01*
X019051Y000905D01*
X019051Y000798D01*
X018944Y000691D01*
X019051Y000585D01*
X019051Y000478D01*
X018944Y000691D02*
X018837Y000691D01*
X016951Y000691D02*
X016524Y000691D01*
X016844Y001012D01*
X016844Y000371D01*
X016306Y000371D02*
X015879Y000371D01*
X016306Y000798D01*
X016306Y000905D01*
X016199Y001012D01*
X015986Y001012D01*
X015879Y000905D01*
X012096Y005290D02*
X012096Y007593D01*
X008002Y007593D01*
X008002Y005290D01*
X012096Y005290D01*
X011531Y007209D02*
X011533Y007236D01*
X011539Y007262D01*
X011549Y007288D01*
X011562Y007311D01*
X011579Y007332D01*
X011599Y007351D01*
X011622Y007366D01*
X011646Y007377D01*
X011672Y007385D01*
X011698Y007389D01*
X011726Y007389D01*
X011752Y007385D01*
X011778Y007377D01*
X011803Y007366D01*
X011825Y007351D01*
X011845Y007332D01*
X011862Y007311D01*
X011875Y007288D01*
X011885Y007262D01*
X011891Y007236D01*
X011893Y007209D01*
X011891Y007182D01*
X011885Y007156D01*
X011875Y007130D01*
X011862Y007107D01*
X011845Y007086D01*
X011825Y007067D01*
X011802Y007052D01*
X011778Y007041D01*
X011752Y007033D01*
X011726Y007029D01*
X011698Y007029D01*
X011672Y007033D01*
X011646Y007041D01*
X011621Y007052D01*
X011599Y007067D01*
X011579Y007086D01*
X011562Y007107D01*
X011549Y007130D01*
X011539Y007156D01*
X011533Y007182D01*
X011531Y007209D01*
X011109Y009281D02*
X010789Y009281D01*
X011109Y009281D02*
X011109Y009501D01*
X011109Y010181D02*
X011109Y010401D01*
X010789Y010401D01*
X021156Y011702D02*
X021156Y011915D01*
X021156Y011809D02*
X021797Y011809D01*
X021797Y011915D02*
X021797Y011702D01*
X021690Y012131D02*
X021263Y012131D01*
X021156Y012238D01*
X021156Y012452D01*
X021263Y012559D01*
X021370Y012776D02*
X021156Y012990D01*
X021797Y012990D01*
X021797Y013203D02*
X021797Y012776D01*
X021690Y012559D02*
X021797Y012452D01*
X021797Y012238D01*
X021690Y012131D01*
X029889Y015381D02*
X029889Y015701D01*
X030109Y015701D01*
X030789Y015701D02*
X031009Y015701D01*
X031009Y015381D01*
X030986Y024671D02*
X030879Y024778D01*
X030879Y024885D01*
X030986Y024991D01*
X031199Y024991D01*
X031306Y024885D01*
X031306Y024778D01*
X031199Y024671D01*
X030986Y024671D01*
X030986Y024991D02*
X030879Y025098D01*
X030879Y025205D01*
X030986Y025312D01*
X031199Y025312D01*
X031306Y025205D01*
X031306Y025098D01*
X031199Y024991D01*
X032879Y025098D02*
X032986Y024991D01*
X033306Y024991D01*
X033306Y024778D02*
X033306Y025205D01*
X033199Y025312D01*
X032986Y025312D01*
X032879Y025205D01*
X032879Y025098D01*
X032879Y024778D02*
X032986Y024671D01*
X033199Y024671D01*
X033306Y024778D01*
X034479Y024671D02*
X034906Y024671D01*
X034692Y024671D02*
X034692Y025312D01*
X034479Y025098D01*
X035124Y025205D02*
X035124Y024778D01*
X035551Y025205D01*
X035551Y024778D01*
X035444Y024671D01*
X035230Y024671D01*
X035124Y024778D01*
X035124Y025205D02*
X035230Y025312D01*
X035444Y025312D01*
X035551Y025205D01*
X036479Y025098D02*
X036692Y025312D01*
X036692Y024671D01*
X036479Y024671D02*
X036906Y024671D01*
X037124Y024671D02*
X037551Y024671D01*
X037337Y024671D02*
X037337Y025312D01*
X037124Y025098D01*
X038479Y025098D02*
X038692Y025312D01*
X038692Y024671D01*
X038479Y024671D02*
X038906Y024671D01*
X039124Y024671D02*
X039551Y025098D01*
X039551Y025205D01*
X039444Y025312D01*
X039230Y025312D01*
X039124Y025205D01*
X039124Y024671D02*
X039551Y024671D01*
X029306Y025205D02*
X028879Y024778D01*
X028879Y024671D01*
X029306Y025205D02*
X029306Y025312D01*
X028879Y025312D01*
X026706Y025312D02*
X026492Y025205D01*
X026279Y024991D01*
X026599Y024991D01*
X026706Y024885D01*
X026706Y024778D01*
X026599Y024671D01*
X026386Y024671D01*
X026279Y024778D01*
X026279Y024991D01*
X024706Y024991D02*
X024706Y024778D01*
X024599Y024671D01*
X024386Y024671D01*
X024279Y024778D01*
X024279Y024991D02*
X024492Y025098D01*
X024599Y025098D01*
X024706Y024991D01*
X024706Y025312D02*
X024279Y025312D01*
X024279Y024991D01*
X022706Y024991D02*
X022279Y024991D01*
X022599Y025312D01*
X022599Y024671D01*
X020706Y024778D02*
X020599Y024671D01*
X020386Y024671D01*
X020279Y024778D01*
X020492Y024991D02*
X020599Y024991D01*
X020706Y024885D01*
X020706Y024778D01*
X020599Y024991D02*
X020706Y025098D01*
X020706Y025205D01*
X020599Y025312D01*
X020386Y025312D01*
X020279Y025205D01*
X018706Y025205D02*
X018599Y025312D01*
X018386Y025312D01*
X018279Y025205D01*
X018706Y025205D02*
X018706Y025098D01*
X018279Y024671D01*
X018706Y024671D01*
X016706Y024671D02*
X016279Y024671D01*
X016492Y024671D02*
X016492Y025312D01*
X016279Y025098D01*
X014619Y029765D02*
X014192Y029765D01*
X013974Y029872D02*
X013868Y029765D01*
X013654Y029765D01*
X013547Y029872D01*
X013547Y030086D01*
X013654Y030192D01*
X013761Y030192D01*
X013974Y030086D01*
X013974Y030406D01*
X013547Y030406D01*
X014192Y030299D02*
X014299Y030406D01*
X014512Y030406D01*
X014619Y030299D01*
X014192Y030299D02*
X014192Y030192D01*
X014619Y029765D01*
X014688Y031015D02*
X014368Y031015D01*
X014261Y031122D01*
X014261Y031336D01*
X014368Y031442D01*
X014688Y031442D01*
X014906Y031336D02*
X015012Y031442D01*
X015226Y031442D01*
X015333Y031336D01*
X015333Y031229D01*
X014906Y031229D01*
X014906Y031122D02*
X014906Y031336D01*
X014906Y031122D02*
X015012Y031015D01*
X015226Y031015D01*
X014043Y031015D02*
X013723Y031015D01*
X013616Y031122D01*
X013723Y031229D01*
X014043Y031229D01*
X014043Y031336D02*
X014043Y031015D01*
X014043Y031336D02*
X013937Y031442D01*
X013723Y031442D01*
X013294Y031656D02*
X013294Y031015D01*
X013400Y031015D02*
X013187Y031015D01*
X012969Y031336D02*
X012862Y031229D01*
X012542Y031229D01*
X012542Y031015D02*
X012542Y031656D01*
X012862Y031656D01*
X012969Y031549D01*
X012969Y031336D01*
X013187Y031656D02*
X013294Y031656D01*
X012326Y031442D02*
X012113Y031442D01*
X012219Y031549D02*
X012219Y031122D01*
X012326Y031015D01*
X012256Y030406D02*
X011829Y029765D01*
X011829Y030406D01*
X011504Y030192D02*
X011291Y030192D01*
X011184Y030086D01*
X011184Y029765D01*
X011504Y029765D01*
X011611Y029872D01*
X011504Y029979D01*
X011184Y029979D01*
X010967Y029765D02*
X010967Y030192D01*
X010860Y030192D01*
X010753Y030086D01*
X010646Y030192D01*
X010540Y030086D01*
X010540Y029765D01*
X010753Y029765D02*
X010753Y030086D01*
X010322Y030086D02*
X010215Y030192D01*
X010002Y030192D01*
X009895Y030086D01*
X009895Y029979D01*
X010322Y029979D01*
X010322Y029872D02*
X010322Y030086D01*
X010322Y029872D02*
X010215Y029765D01*
X010002Y029765D01*
X010179Y031015D02*
X010606Y031442D01*
X010606Y031549D01*
X010499Y031656D01*
X010286Y031656D01*
X010179Y031549D01*
X010824Y031442D02*
X011037Y031656D01*
X011037Y031015D01*
X010824Y031015D02*
X011251Y031015D01*
X010606Y031015D02*
X010179Y031015D01*
X012256Y030406D02*
X012256Y029765D01*
X012472Y029765D02*
X012579Y029872D01*
X012579Y030299D01*
X012685Y030192D02*
X012472Y030192D01*
X009516Y027336D02*
X009516Y027015D01*
X009516Y027336D02*
X009409Y027442D01*
X009089Y027442D01*
X009089Y027015D01*
X008872Y027122D02*
X008872Y027336D01*
X008765Y027442D01*
X008551Y027442D01*
X008445Y027336D01*
X008445Y027122D01*
X008551Y027015D01*
X008765Y027015D01*
X008872Y027122D01*
X008228Y027015D02*
X008015Y027015D01*
X008122Y027015D02*
X008122Y027442D01*
X008015Y027442D01*
X007797Y027442D02*
X007477Y027442D01*
X007370Y027336D01*
X007477Y027229D01*
X007691Y027229D01*
X007797Y027122D01*
X007691Y027015D01*
X007370Y027015D01*
X007153Y027015D02*
X007153Y027336D01*
X007046Y027442D01*
X006726Y027442D01*
X006726Y027015D01*
X006508Y027229D02*
X006081Y027229D01*
X006081Y027336D02*
X006188Y027442D01*
X006402Y027442D01*
X006508Y027336D01*
X006508Y027229D01*
X006402Y027015D02*
X006188Y027015D01*
X006081Y027122D01*
X006081Y027336D01*
X005864Y027336D02*
X005864Y027015D01*
X005650Y027015D02*
X005650Y027336D01*
X005757Y027442D01*
X005864Y027336D01*
X005650Y027336D02*
X005544Y027442D01*
X005437Y027442D01*
X005437Y027015D01*
X005221Y027015D02*
X005007Y027015D01*
X005114Y027015D02*
X005114Y027442D01*
X005007Y027442D01*
X005114Y027656D02*
X005114Y027763D01*
X004790Y027549D02*
X004683Y027656D01*
X004363Y027656D01*
X004363Y027015D01*
X004683Y027015D01*
X004790Y027122D01*
X004790Y027549D01*
X003501Y027549D02*
X003501Y027122D01*
X003394Y027015D01*
X003180Y027015D01*
X003074Y027122D01*
X003501Y027549D01*
X003394Y027656D01*
X003180Y027656D01*
X003074Y027549D01*
X003074Y027122D01*
X002856Y027015D02*
X002429Y027015D01*
X002856Y027442D01*
X002856Y027549D01*
X002749Y027656D01*
X002536Y027656D01*
X002429Y027549D01*
X008122Y027656D02*
X008122Y027763D01*
X003037Y022912D02*
X003037Y022271D01*
X002824Y022271D02*
X003251Y022271D01*
X002824Y022698D02*
X003037Y022912D01*
X002606Y022912D02*
X002392Y022912D01*
X002499Y022912D02*
X002499Y022378D01*
X002392Y022271D01*
X002286Y022271D01*
X002179Y022378D01*
X039444Y001012D02*
X039551Y000905D01*
X039551Y000798D01*
X039444Y000691D01*
D13*
X039849Y001241D02*
X038249Y001241D01*
X037849Y001241D02*
X036249Y001241D01*
X035849Y001241D02*
X034249Y001241D01*
X033849Y001241D02*
X032249Y001241D01*
X031849Y001241D02*
X030249Y001241D01*
X029849Y001241D02*
X028249Y001241D01*
X027249Y001241D02*
X025649Y001241D01*
X025249Y001241D02*
X023649Y001241D01*
X023249Y001241D02*
X021649Y001241D01*
X021249Y001241D02*
X019649Y001241D01*
X019249Y001241D02*
X017649Y001241D01*
X017249Y001241D02*
X015649Y001241D01*
X015749Y024441D02*
X017349Y024441D01*
X017649Y024441D02*
X019249Y024441D01*
X019649Y024441D02*
X021249Y024441D01*
X021649Y024441D02*
X023249Y024441D01*
X023649Y024441D02*
X025249Y024441D01*
X025649Y024441D02*
X027249Y024441D01*
X028249Y024441D02*
X029849Y024441D01*
X030249Y024441D02*
X031849Y024441D01*
X032249Y024441D02*
X033849Y024441D01*
X034249Y024441D02*
X035849Y024441D01*
X036249Y024441D02*
X037849Y024441D01*
X038249Y024441D02*
X039849Y024441D01*
D14*
X040211Y024204D02*
X040211Y021763D01*
X028006Y021763D01*
X028006Y024204D01*
X040211Y024204D01*
X038140Y020555D02*
X036958Y020555D01*
X036958Y020143D01*
X038140Y020143D01*
X038140Y020555D01*
X037035Y020246D02*
X037037Y020254D01*
X037043Y020259D01*
X037051Y020260D01*
X037058Y020257D01*
X037062Y020250D01*
X037062Y020242D01*
X037058Y020235D01*
X037051Y020232D01*
X037043Y020233D01*
X037037Y020238D01*
X037035Y020246D01*
X034240Y020143D02*
X033058Y020143D01*
X033058Y020555D01*
X034240Y020555D01*
X034240Y020143D01*
X033135Y020246D02*
X033137Y020254D01*
X033143Y020259D01*
X033151Y020260D01*
X033158Y020257D01*
X033162Y020250D01*
X033162Y020242D01*
X033158Y020235D01*
X033151Y020232D01*
X033143Y020233D01*
X033137Y020238D01*
X033135Y020246D01*
X030240Y020143D02*
X029058Y020143D01*
X029058Y020555D01*
X030240Y020555D01*
X030240Y020143D01*
X029135Y020246D02*
X029137Y020254D01*
X029143Y020259D01*
X029151Y020260D01*
X029158Y020257D01*
X029162Y020250D01*
X029162Y020242D01*
X029158Y020235D01*
X029151Y020232D01*
X029143Y020233D01*
X029137Y020238D01*
X029135Y020246D01*
X027611Y021763D02*
X015406Y021763D01*
X015406Y024204D01*
X027611Y024204D01*
X027611Y021763D01*
X025640Y020555D02*
X025640Y020143D01*
X024458Y020143D01*
X024458Y020555D01*
X025640Y020555D01*
X024535Y020246D02*
X024537Y020254D01*
X024543Y020259D01*
X024551Y020260D01*
X024558Y020257D01*
X024562Y020250D01*
X024562Y020242D01*
X024558Y020235D01*
X024551Y020232D01*
X024543Y020233D01*
X024537Y020238D01*
X024535Y020246D01*
X021540Y020143D02*
X020358Y020143D01*
X020358Y020555D01*
X021540Y020555D01*
X021540Y020143D01*
X020435Y020246D02*
X020437Y020254D01*
X020443Y020259D01*
X020451Y020260D01*
X020458Y020257D01*
X020462Y020250D01*
X020462Y020242D01*
X020458Y020235D01*
X020451Y020232D01*
X020443Y020233D01*
X020437Y020238D01*
X020435Y020246D01*
X017540Y020143D02*
X016358Y020143D01*
X016358Y020555D01*
X017540Y020555D01*
X017540Y020143D01*
X016435Y020246D02*
X016437Y020254D01*
X016443Y020259D01*
X016451Y020260D01*
X016458Y020257D01*
X016462Y020250D01*
X016462Y020242D01*
X016458Y020235D01*
X016451Y020232D01*
X016443Y020233D01*
X016437Y020238D01*
X016435Y020246D01*
X012749Y018202D02*
X012749Y016202D01*
X011249Y016202D01*
X011249Y018202D01*
X012749Y018202D01*
X012249Y016202D02*
X012247Y016233D01*
X012241Y016264D01*
X012231Y016294D01*
X012218Y016322D01*
X012201Y016349D01*
X012181Y016373D01*
X012158Y016395D01*
X012133Y016413D01*
X012105Y016428D01*
X012076Y016440D01*
X012046Y016448D01*
X012015Y016452D01*
X011983Y016452D01*
X011952Y016448D01*
X011922Y016440D01*
X011893Y016428D01*
X011865Y016413D01*
X011840Y016395D01*
X011817Y016373D01*
X011797Y016349D01*
X011780Y016322D01*
X011767Y016294D01*
X011757Y016264D01*
X011751Y016233D01*
X011749Y016202D01*
X022841Y011697D02*
X022843Y011718D01*
X022849Y011738D01*
X022859Y011757D01*
X022872Y011774D01*
X022888Y011787D01*
X022906Y011798D01*
X022926Y011805D01*
X022947Y011808D01*
X022968Y011807D01*
X022988Y011802D01*
X023007Y011793D01*
X023025Y011781D01*
X023039Y011766D01*
X023051Y011748D01*
X023059Y011728D01*
X023062Y011708D01*
X023062Y011686D01*
X023059Y011666D01*
X023051Y011646D01*
X023039Y011628D01*
X023025Y011613D01*
X023008Y011601D01*
X022988Y011592D01*
X022968Y011587D01*
X022947Y011586D01*
X022926Y011589D01*
X022906Y011596D01*
X022888Y011607D01*
X022872Y011620D01*
X022859Y011637D01*
X022849Y011656D01*
X022843Y011676D01*
X022841Y011697D01*
X022640Y005539D02*
X021458Y005539D01*
X021458Y005128D01*
X022640Y005128D01*
X022640Y005539D01*
X022535Y005437D02*
X022537Y005445D01*
X022543Y005450D01*
X022551Y005451D01*
X022558Y005448D01*
X022562Y005441D01*
X022562Y005433D01*
X022558Y005426D01*
X022551Y005423D01*
X022543Y005424D01*
X022537Y005429D01*
X022535Y005437D01*
X025458Y005539D02*
X025458Y005128D01*
X026640Y005128D01*
X026640Y005539D01*
X025458Y005539D01*
X026535Y005437D02*
X026537Y005445D01*
X026543Y005450D01*
X026551Y005451D01*
X026558Y005448D01*
X026562Y005441D01*
X026562Y005433D01*
X026558Y005426D01*
X026551Y005423D01*
X026543Y005424D01*
X026537Y005429D01*
X026535Y005437D01*
X027582Y004014D02*
X027582Y001573D01*
X015377Y001573D01*
X015377Y004014D01*
X027582Y004014D01*
X027987Y004019D02*
X040192Y004019D01*
X040192Y001578D01*
X027987Y001578D01*
X027987Y004019D01*
X030058Y005128D02*
X030058Y005539D01*
X031240Y005539D01*
X031240Y005128D01*
X030058Y005128D01*
X031135Y005437D02*
X031137Y005445D01*
X031143Y005450D01*
X031151Y005451D01*
X031158Y005448D01*
X031162Y005441D01*
X031162Y005433D01*
X031158Y005426D01*
X031151Y005423D01*
X031143Y005424D01*
X031137Y005429D01*
X031135Y005437D01*
X034058Y005539D02*
X034058Y005128D01*
X035240Y005128D01*
X035240Y005539D01*
X034058Y005539D01*
X035135Y005437D02*
X035137Y005445D01*
X035143Y005450D01*
X035151Y005451D01*
X035158Y005448D01*
X035162Y005441D01*
X035162Y005433D01*
X035158Y005426D01*
X035151Y005423D01*
X035143Y005424D01*
X035137Y005429D01*
X035135Y005437D01*
X037958Y005539D02*
X037958Y005128D01*
X039140Y005128D01*
X039140Y005539D01*
X037958Y005539D01*
X039035Y005437D02*
X039037Y005445D01*
X039043Y005450D01*
X039051Y005451D01*
X039058Y005448D01*
X039062Y005441D01*
X039062Y005433D01*
X039058Y005426D01*
X039051Y005423D01*
X039043Y005424D01*
X039037Y005429D01*
X039035Y005437D01*
X018640Y005539D02*
X018640Y005128D01*
X017458Y005128D01*
X017458Y005539D01*
X018640Y005539D01*
X018535Y005437D02*
X018537Y005445D01*
X018543Y005450D01*
X018551Y005451D01*
X018558Y005448D01*
X018562Y005441D01*
X018562Y005433D01*
X018558Y005426D01*
X018551Y005423D01*
X018543Y005424D01*
X018537Y005429D01*
X018535Y005437D01*
D15*
X012774Y006325D02*
X012774Y006475D01*
X012774Y006400D02*
X012324Y006400D01*
X012324Y006325D02*
X012324Y006475D01*
X012399Y006632D02*
X012699Y006632D01*
X012774Y006707D01*
X012774Y006857D01*
X012699Y006932D01*
X012549Y007092D02*
X012549Y007393D01*
X012774Y007317D02*
X012324Y007317D01*
X012549Y007092D01*
X012399Y006932D02*
X012324Y006857D01*
X012324Y006707D01*
X012399Y006632D01*
X007549Y009891D02*
X002649Y009891D01*
X002649Y010241D01*
X002049Y010241D01*
X002049Y009891D01*
X001299Y009891D01*
X001299Y013991D01*
X002049Y013991D01*
X002049Y013641D01*
X002649Y013641D01*
X002649Y013991D01*
X007549Y013991D01*
X007549Y009891D01*
X001939Y011941D02*
X001942Y012006D01*
X001951Y012070D01*
X001965Y012133D01*
X001986Y012194D01*
X002011Y012253D01*
X002042Y012310D01*
X002078Y012364D01*
X002119Y012414D01*
X002164Y012460D01*
X002214Y012502D01*
X002266Y012539D01*
X002322Y012571D01*
X002381Y012598D01*
X002442Y012620D01*
X002505Y012636D01*
X002568Y012646D01*
X002633Y012651D01*
X002697Y012649D01*
X002762Y012642D01*
X002825Y012629D01*
X002887Y012610D01*
X002947Y012586D01*
X003004Y012556D01*
X003058Y012521D01*
X003109Y012481D01*
X003157Y012437D01*
X003200Y012389D01*
X003238Y012337D01*
X003272Y012282D01*
X003300Y012224D01*
X003323Y012163D01*
X003341Y012101D01*
X003352Y012038D01*
X003358Y011973D01*
X003358Y011909D01*
X003352Y011844D01*
X003341Y011781D01*
X003323Y011719D01*
X003300Y011658D01*
X003272Y011600D01*
X003238Y011545D01*
X003200Y011493D01*
X003157Y011445D01*
X003109Y011401D01*
X003058Y011361D01*
X003004Y011326D01*
X002947Y011296D01*
X002887Y011272D01*
X002825Y011253D01*
X002762Y011240D01*
X002697Y011233D01*
X002633Y011231D01*
X002568Y011236D01*
X002505Y011246D01*
X002442Y011262D01*
X002381Y011284D01*
X002322Y011311D01*
X002266Y011343D01*
X002214Y011380D01*
X002164Y011422D01*
X002119Y011468D01*
X002078Y011518D01*
X002042Y011572D01*
X002011Y011629D01*
X001986Y011688D01*
X001965Y011749D01*
X001951Y011812D01*
X001942Y011876D01*
X001939Y011941D01*
X032491Y010494D02*
X032491Y016494D01*
X033491Y016494D01*
X033741Y016494D01*
X033741Y010494D01*
X033491Y010494D01*
X032491Y010494D01*
X033491Y010494D02*
X033491Y016494D01*
D16*
X007299Y013741D02*
X007299Y010141D01*
X004049Y010141D01*
X004049Y013741D01*
X007299Y013741D01*
X001149Y015841D02*
X001149Y021641D01*
D17*
X004739Y012721D02*
X004633Y012616D01*
X004633Y012405D01*
X004739Y012300D01*
X004739Y012076D02*
X004633Y011971D01*
X004633Y011761D01*
X004739Y011656D01*
X005159Y011656D01*
X005264Y011761D01*
X005264Y011971D01*
X005159Y012076D01*
X005264Y012300D02*
X004844Y012721D01*
X004739Y012721D01*
X005264Y012721D02*
X005264Y012300D01*
X005264Y011436D02*
X005264Y011226D01*
X005264Y011331D02*
X004633Y011331D01*
X004633Y011226D02*
X004633Y011436D01*
D18*
X032991Y010994D03*
X032991Y011994D03*
X032991Y012994D03*
X032991Y013994D03*
X032991Y014994D03*
X032991Y015994D03*
D19*
X026416Y015004D02*
X026416Y011540D01*
X026259Y011382D01*
X022794Y011382D01*
X022637Y011540D01*
X022637Y015004D01*
X022794Y015162D01*
X026259Y015162D01*
X026416Y015004D01*
X007153Y015782D02*
X000145Y015782D01*
X000145Y021700D01*
X007153Y021700D01*
X007153Y020591D01*
X007149Y020591D02*
X006049Y020591D01*
X006049Y020391D02*
X007153Y020391D01*
X007149Y020391D02*
X007149Y020091D01*
X007149Y019891D02*
X007149Y019591D01*
X006049Y019591D01*
X006049Y019391D02*
X007153Y019391D01*
X007149Y019391D02*
X007149Y019091D01*
X007149Y018891D02*
X007149Y018591D01*
X006049Y018591D01*
X006049Y018391D02*
X007149Y018391D01*
X007149Y018091D01*
X007149Y017891D02*
X007149Y017591D01*
X006049Y017591D01*
X006049Y017391D02*
X007153Y017391D01*
X007149Y017391D02*
X007149Y017091D01*
X007153Y016891D02*
X007153Y015782D01*
X007149Y016091D02*
X006749Y016091D01*
X006749Y016441D01*
X007149Y016441D01*
X006249Y016891D02*
X006249Y017091D01*
X006249Y017891D02*
X006249Y018091D01*
X006249Y018891D02*
X006249Y019091D01*
X005299Y019391D02*
X005199Y019391D01*
X005199Y019591D01*
X005299Y019591D01*
X005299Y020391D02*
X005199Y020391D01*
X005199Y020591D01*
X005299Y020591D01*
X006249Y020091D02*
X006249Y019891D01*
X006749Y021041D02*
X007149Y021041D01*
X007149Y021391D02*
X006749Y021391D01*
X006749Y021041D01*
X005299Y018591D02*
X005199Y018591D01*
X005199Y018391D01*
X005299Y018391D01*
X005299Y017591D02*
X005199Y017591D01*
X005199Y017391D01*
X005299Y017391D01*
X007149Y018391D02*
X007153Y018391D01*
X001287Y015743D02*
X001287Y015467D01*
X001070Y015467D01*
X001070Y015723D01*
X001287Y021740D02*
X001287Y022015D01*
X001070Y022015D01*
X001070Y021759D01*
D20*
X028603Y010334D03*
D21*
X000399Y016741D03*
M02*
