G75*
G70*
%OFA0B0*%
%FSLAX24Y24*%
%IPPOS*%
%LPD*%
%AMOC8*
5,1,8,0,0,1.08239X$1,22.5*
%
%ADD10C,0.0000*%
%ADD11C,0.0040*%
%ADD12C,0.0100*%
%ADD13C,0.0079*%
%ADD14C,0.0060*%
%ADD15C,0.0050*%
%ADD16C,0.0020*%
%ADD17C,0.0070*%
%ADD18R,0.0200X0.0200*%
%ADD19C,0.0080*%
%ADD20R,0.0500X0.1000*%
%ADD21R,0.0300X0.7300*%
%ADD22R,0.0200X1.2200*%
%ADD23R,0.2850X0.0320*%
%ADD24R,0.1850X0.0320*%
D10*
X000161Y000252D02*
X000161Y019758D01*
X039353Y019758D01*
X039353Y000252D01*
X000161Y000252D01*
X001111Y002502D02*
X001114Y002561D01*
X001122Y002620D01*
X001135Y002677D01*
X001154Y002734D01*
X001177Y002788D01*
X001206Y002840D01*
X001239Y002889D01*
X001276Y002935D01*
X001317Y002977D01*
X001362Y003015D01*
X001411Y003050D01*
X001462Y003079D01*
X001516Y003104D01*
X001571Y003124D01*
X001629Y003138D01*
X001687Y003148D01*
X001746Y003152D01*
X001805Y003150D01*
X001864Y003144D01*
X001922Y003132D01*
X001979Y003114D01*
X002033Y003092D01*
X002086Y003065D01*
X002136Y003033D01*
X002183Y002997D01*
X002226Y002956D01*
X002265Y002912D01*
X002300Y002865D01*
X002331Y002814D01*
X002357Y002761D01*
X002378Y002706D01*
X002394Y002649D01*
X002405Y002591D01*
X002410Y002532D01*
X002410Y002472D01*
X002405Y002413D01*
X002394Y002355D01*
X002378Y002298D01*
X002357Y002243D01*
X002331Y002190D01*
X002300Y002139D01*
X002265Y002092D01*
X002226Y002048D01*
X002183Y002007D01*
X002136Y001971D01*
X002086Y001939D01*
X002033Y001912D01*
X001979Y001890D01*
X001922Y001872D01*
X001864Y001860D01*
X001805Y001854D01*
X001746Y001852D01*
X001687Y001856D01*
X001629Y001866D01*
X001571Y001880D01*
X001516Y001900D01*
X001462Y001925D01*
X001411Y001954D01*
X001362Y001989D01*
X001317Y002027D01*
X001276Y002069D01*
X001239Y002115D01*
X001206Y002164D01*
X001177Y002216D01*
X001154Y002270D01*
X001135Y002327D01*
X001122Y002384D01*
X001114Y002443D01*
X001111Y002502D01*
X002571Y008002D02*
X002574Y008060D01*
X002582Y008118D01*
X002595Y008175D01*
X002613Y008230D01*
X002636Y008283D01*
X002664Y008335D01*
X002697Y008383D01*
X002733Y008428D01*
X002774Y008470D01*
X002819Y008508D01*
X002866Y008541D01*
X002917Y008570D01*
X002969Y008595D01*
X003024Y008614D01*
X003081Y008629D01*
X003138Y008638D01*
X003196Y008642D01*
X003255Y008641D01*
X003313Y008634D01*
X003370Y008622D01*
X003425Y008605D01*
X003479Y008583D01*
X003531Y008556D01*
X003580Y008525D01*
X003626Y008489D01*
X003669Y008449D01*
X003707Y008406D01*
X003742Y008359D01*
X003772Y008309D01*
X003798Y008257D01*
X003819Y008203D01*
X003834Y008146D01*
X003845Y008089D01*
X003850Y008031D01*
X003850Y007973D01*
X003845Y007915D01*
X003834Y007858D01*
X003819Y007801D01*
X003798Y007747D01*
X003772Y007695D01*
X003742Y007645D01*
X003707Y007598D01*
X003669Y007555D01*
X003626Y007515D01*
X003580Y007479D01*
X003531Y007448D01*
X003479Y007421D01*
X003425Y007399D01*
X003370Y007382D01*
X003313Y007370D01*
X003255Y007363D01*
X003196Y007362D01*
X003138Y007366D01*
X003081Y007375D01*
X003024Y007390D01*
X002969Y007409D01*
X002917Y007434D01*
X002866Y007463D01*
X002819Y007496D01*
X002774Y007534D01*
X002733Y007576D01*
X002697Y007621D01*
X002664Y007669D01*
X002636Y007721D01*
X002613Y007774D01*
X002595Y007829D01*
X002582Y007886D01*
X002574Y007944D01*
X002571Y008002D01*
X002571Y012502D02*
X002574Y012560D01*
X002582Y012618D01*
X002595Y012675D01*
X002613Y012730D01*
X002636Y012783D01*
X002664Y012835D01*
X002697Y012883D01*
X002733Y012928D01*
X002774Y012970D01*
X002819Y013008D01*
X002866Y013041D01*
X002917Y013070D01*
X002969Y013095D01*
X003024Y013114D01*
X003081Y013129D01*
X003138Y013138D01*
X003196Y013142D01*
X003255Y013141D01*
X003313Y013134D01*
X003370Y013122D01*
X003425Y013105D01*
X003479Y013083D01*
X003531Y013056D01*
X003580Y013025D01*
X003626Y012989D01*
X003669Y012949D01*
X003707Y012906D01*
X003742Y012859D01*
X003772Y012809D01*
X003798Y012757D01*
X003819Y012703D01*
X003834Y012646D01*
X003845Y012589D01*
X003850Y012531D01*
X003850Y012473D01*
X003845Y012415D01*
X003834Y012358D01*
X003819Y012301D01*
X003798Y012247D01*
X003772Y012195D01*
X003742Y012145D01*
X003707Y012098D01*
X003669Y012055D01*
X003626Y012015D01*
X003580Y011979D01*
X003531Y011948D01*
X003479Y011921D01*
X003425Y011899D01*
X003370Y011882D01*
X003313Y011870D01*
X003255Y011863D01*
X003196Y011862D01*
X003138Y011866D01*
X003081Y011875D01*
X003024Y011890D01*
X002969Y011909D01*
X002917Y011934D01*
X002866Y011963D01*
X002819Y011996D01*
X002774Y012034D01*
X002733Y012076D01*
X002697Y012121D01*
X002664Y012169D01*
X002636Y012221D01*
X002613Y012274D01*
X002595Y012329D01*
X002582Y012386D01*
X002574Y012444D01*
X002571Y012502D01*
D11*
X009431Y008715D02*
X009891Y008715D01*
X009891Y008562D02*
X009891Y008868D01*
X009584Y008562D02*
X009431Y008715D01*
X009508Y008408D02*
X009661Y008408D01*
X009738Y008331D01*
X009738Y008101D01*
X009891Y008101D02*
X009431Y008101D01*
X009431Y008331D01*
X009508Y008408D01*
X009738Y008255D02*
X009891Y008408D01*
X011954Y007732D02*
X012107Y007732D01*
X012030Y007732D02*
X012030Y007272D01*
X011954Y007272D02*
X012107Y007272D01*
X012260Y007349D02*
X012337Y007272D01*
X012491Y007272D01*
X012567Y007349D01*
X012721Y007349D02*
X012798Y007272D01*
X012951Y007272D01*
X013028Y007349D01*
X013028Y007425D01*
X012951Y007502D01*
X012874Y007502D01*
X012951Y007502D02*
X013028Y007579D01*
X013028Y007656D01*
X012951Y007732D01*
X012798Y007732D01*
X012721Y007656D01*
X012567Y007656D02*
X012491Y007732D01*
X012337Y007732D01*
X012260Y007656D01*
X012260Y007349D01*
X011641Y006212D02*
X011181Y006212D01*
X011411Y005982D01*
X011411Y006289D01*
X011258Y005829D02*
X011181Y005752D01*
X011181Y005599D01*
X011258Y005522D01*
X011565Y005522D01*
X011641Y005599D01*
X011641Y005752D01*
X011565Y005829D01*
X010141Y005752D02*
X010141Y005599D01*
X010065Y005522D01*
X009758Y005522D01*
X009681Y005599D01*
X009681Y005752D01*
X009758Y005829D01*
X009681Y005982D02*
X009911Y005982D01*
X009834Y006136D01*
X009834Y006212D01*
X009911Y006289D01*
X010065Y006289D01*
X010141Y006212D01*
X010141Y006059D01*
X010065Y005982D01*
X010065Y005829D02*
X010141Y005752D01*
X009681Y005982D02*
X009681Y006289D01*
X003041Y003040D02*
X002866Y003040D01*
X002808Y002982D01*
X002866Y002924D01*
X003041Y002924D01*
X003041Y002807D02*
X002808Y002807D01*
X002808Y002865D01*
X002866Y002924D01*
X002866Y002681D02*
X003041Y002681D01*
X003041Y002564D02*
X002866Y002564D01*
X002808Y002623D01*
X002866Y002681D01*
X002866Y002564D02*
X002808Y002506D01*
X002808Y002448D01*
X003041Y002448D01*
X003041Y002322D02*
X003041Y002089D01*
X002808Y002322D01*
X002749Y002322D01*
X002691Y002264D01*
X002691Y002147D01*
X002749Y002089D01*
X002983Y001966D02*
X002983Y001908D01*
X003041Y001908D01*
X003041Y001966D01*
X002983Y001966D01*
X003041Y001966D02*
X003158Y001849D01*
X002983Y001724D02*
X003041Y001665D01*
X003041Y001549D01*
X002983Y001490D01*
X002866Y001490D02*
X002808Y001607D01*
X002808Y001665D01*
X002866Y001724D01*
X002983Y001724D01*
X002866Y001490D02*
X002691Y001490D01*
X002691Y001724D01*
X002691Y001248D02*
X003041Y001248D01*
X003041Y001131D02*
X003041Y001365D01*
X002808Y001131D02*
X002691Y001248D01*
X002808Y001005D02*
X003041Y001005D01*
X002866Y001005D02*
X002866Y000772D01*
X002808Y000772D02*
X002691Y000889D01*
X002808Y001005D01*
X002808Y000772D02*
X003041Y000772D01*
X008931Y001599D02*
X009008Y001522D01*
X009315Y001522D01*
X009391Y001599D01*
X009391Y001752D01*
X009315Y001829D01*
X009391Y001982D02*
X009391Y002289D01*
X009391Y002136D02*
X008931Y002136D01*
X009084Y001982D01*
X009008Y001829D02*
X008931Y001752D01*
X008931Y001599D01*
X012179Y001337D02*
X012332Y001491D01*
X012486Y001414D02*
X012486Y001107D01*
X012562Y001030D01*
X012716Y001030D01*
X012793Y001107D01*
X012946Y001030D02*
X013099Y001184D01*
X013099Y001337D01*
X012946Y001491D01*
X012793Y001414D02*
X012716Y001491D01*
X012562Y001491D01*
X012486Y001414D01*
X012179Y001337D02*
X012179Y001184D01*
X012332Y001030D01*
X013713Y001030D02*
X013943Y001030D01*
X014020Y001107D01*
X014020Y001184D01*
X013943Y001260D01*
X013713Y001260D01*
X013713Y001030D02*
X013713Y001491D01*
X013943Y001491D01*
X014020Y001414D01*
X014020Y001337D01*
X013943Y001260D01*
X014174Y001184D02*
X014327Y001337D01*
X014404Y001337D01*
X014634Y001337D02*
X014787Y001337D01*
X014864Y001260D01*
X014864Y001030D01*
X014634Y001030D01*
X014557Y001107D01*
X014634Y001184D01*
X014864Y001184D01*
X015018Y001337D02*
X015248Y001337D01*
X015324Y001260D01*
X015324Y001030D01*
X015478Y001107D02*
X015478Y001260D01*
X015555Y001337D01*
X015785Y001337D01*
X015785Y001491D02*
X015785Y001030D01*
X015555Y001030D01*
X015478Y001107D01*
X015938Y001107D02*
X015938Y001260D01*
X016015Y001337D01*
X016168Y001337D01*
X016245Y001260D01*
X016245Y001107D01*
X016168Y001030D01*
X016015Y001030D01*
X015938Y001107D01*
X016399Y001030D02*
X016399Y001337D01*
X016629Y001337D01*
X016706Y001260D01*
X016706Y001030D01*
X017319Y001030D02*
X017319Y001491D01*
X017626Y001491D01*
X017473Y001260D02*
X017319Y001260D01*
X017780Y001260D02*
X017780Y001107D01*
X017856Y001030D01*
X018010Y001030D01*
X018087Y001107D01*
X018087Y001260D01*
X018010Y001337D01*
X017856Y001337D01*
X017780Y001260D01*
X018240Y001260D02*
X018317Y001337D01*
X018547Y001337D01*
X018700Y001260D02*
X018777Y001337D01*
X019007Y001337D01*
X019007Y001491D02*
X019007Y001030D01*
X018777Y001030D01*
X018700Y001107D01*
X018700Y001260D01*
X018547Y001107D02*
X018470Y001030D01*
X018240Y001030D01*
X018317Y001184D02*
X018240Y001260D01*
X018317Y001184D02*
X018470Y001184D01*
X018547Y001107D01*
X019161Y001030D02*
X019314Y001030D01*
X019237Y001030D02*
X019237Y001337D01*
X019161Y001337D01*
X019237Y001491D02*
X019237Y001567D01*
X019468Y001260D02*
X019468Y001107D01*
X019544Y001030D01*
X019775Y001030D01*
X019928Y001030D02*
X019928Y001491D01*
X019775Y001337D02*
X019544Y001337D01*
X019468Y001260D01*
X019928Y001184D02*
X020158Y001030D01*
X019928Y001184D02*
X020158Y001337D01*
X020772Y001414D02*
X020849Y001491D01*
X021002Y001491D01*
X021079Y001414D01*
X021079Y001337D01*
X020772Y001030D01*
X021079Y001030D01*
X021232Y001107D02*
X021539Y001414D01*
X021539Y001107D01*
X021463Y001030D01*
X021309Y001030D01*
X021232Y001107D01*
X021232Y001414D01*
X021309Y001491D01*
X021463Y001491D01*
X021539Y001414D01*
X021693Y001414D02*
X021769Y001491D01*
X021923Y001491D01*
X022000Y001414D01*
X021693Y001107D01*
X021769Y001030D01*
X021923Y001030D01*
X022000Y001107D01*
X022000Y001414D01*
X022153Y001491D02*
X022153Y001260D01*
X022306Y001337D01*
X022383Y001337D01*
X022460Y001260D01*
X022460Y001107D01*
X022383Y001030D01*
X022230Y001030D01*
X022153Y001107D01*
X021693Y001107D02*
X021693Y001414D01*
X022153Y001491D02*
X022460Y001491D01*
X018240Y002184D02*
X017933Y002184D01*
X017933Y002260D02*
X018010Y002337D01*
X018163Y002337D01*
X018240Y002260D01*
X018240Y002184D01*
X018163Y002030D02*
X018010Y002030D01*
X017933Y002107D01*
X017933Y002260D01*
X017780Y002337D02*
X017550Y002337D01*
X017473Y002260D01*
X017473Y002107D01*
X017550Y002030D01*
X017780Y002030D01*
X017780Y001954D02*
X017780Y002337D01*
X017780Y001954D02*
X017703Y001877D01*
X017626Y001877D01*
X017319Y002030D02*
X017089Y002030D01*
X017012Y002107D01*
X017012Y002260D01*
X017089Y002337D01*
X017319Y002337D01*
X017319Y002491D02*
X017319Y002030D01*
X016859Y002030D02*
X016706Y002030D01*
X016782Y002030D02*
X016782Y002337D01*
X016706Y002337D01*
X016552Y002337D02*
X016475Y002337D01*
X016322Y002184D01*
X016322Y002337D02*
X016322Y002030D01*
X016169Y002107D02*
X016092Y002030D01*
X015862Y002030D01*
X015862Y002491D01*
X016092Y002491D01*
X016169Y002414D01*
X016169Y002337D01*
X016092Y002260D01*
X015862Y002260D01*
X016092Y002260D02*
X016169Y002184D01*
X016169Y002107D01*
X016782Y002491D02*
X016782Y002567D01*
X015248Y002414D02*
X015248Y002337D01*
X014941Y002030D01*
X015248Y002030D01*
X014787Y002107D02*
X014787Y002184D01*
X014711Y002260D01*
X014634Y002260D01*
X014711Y002260D02*
X014787Y002337D01*
X014787Y002414D01*
X014711Y002491D01*
X014557Y002491D01*
X014481Y002414D01*
X014327Y002414D02*
X014250Y002491D01*
X014097Y002491D01*
X014020Y002414D01*
X013867Y002260D02*
X013560Y002260D01*
X013406Y002030D02*
X013406Y002491D01*
X013099Y002491D02*
X013406Y002030D01*
X013099Y002030D02*
X013099Y002491D01*
X012946Y002337D02*
X012946Y002030D01*
X012946Y002260D02*
X012639Y002260D01*
X012639Y002337D02*
X012793Y002491D01*
X012946Y002337D01*
X012639Y002337D02*
X012639Y002030D01*
X012486Y002107D02*
X012409Y002030D01*
X012255Y002030D01*
X012179Y002107D01*
X012179Y002414D01*
X012255Y002491D01*
X012409Y002491D01*
X012486Y002414D01*
X014020Y002030D02*
X014327Y002337D01*
X014327Y002414D01*
X014941Y002414D02*
X015018Y002491D01*
X015171Y002491D01*
X015248Y002414D01*
X014787Y002107D02*
X014711Y002030D01*
X014557Y002030D01*
X014481Y002107D01*
X014327Y002030D02*
X014020Y002030D01*
X014174Y001337D02*
X014174Y001030D01*
X015018Y001030D02*
X015018Y001337D01*
X019258Y007522D02*
X019565Y007522D01*
X019641Y007599D01*
X019641Y007752D01*
X019565Y007829D01*
X019565Y007982D02*
X019641Y008059D01*
X019641Y008212D01*
X019565Y008289D01*
X019488Y008289D01*
X019411Y008212D01*
X019411Y008136D01*
X019411Y008212D02*
X019334Y008289D01*
X019258Y008289D01*
X019181Y008212D01*
X019181Y008059D01*
X019258Y007982D01*
X019258Y007829D02*
X019181Y007752D01*
X019181Y007599D01*
X019258Y007522D01*
X013028Y010099D02*
X013028Y010406D01*
X012951Y010482D01*
X012721Y010482D01*
X012721Y010022D01*
X012951Y010022D01*
X013028Y010099D01*
X012567Y010099D02*
X012490Y010022D01*
X012337Y010022D01*
X012260Y010099D01*
X012567Y010406D01*
X012567Y010099D01*
X012260Y010099D02*
X012260Y010406D01*
X012337Y010482D01*
X012490Y010482D01*
X012567Y010406D01*
X012107Y010482D02*
X011800Y010482D01*
X011800Y010252D01*
X011953Y010329D01*
X012030Y010329D01*
X012107Y010252D01*
X012107Y010099D01*
X012030Y010022D01*
X011877Y010022D01*
X011800Y010099D01*
X011646Y010099D02*
X011646Y010175D01*
X011570Y010252D01*
X011493Y010252D01*
X011570Y010252D02*
X011646Y010329D01*
X011646Y010406D01*
X011570Y010482D01*
X011416Y010482D01*
X011340Y010406D01*
X011186Y010482D02*
X010879Y010482D01*
X010879Y010252D01*
X011033Y010329D01*
X011109Y010329D01*
X011186Y010252D01*
X011186Y010099D01*
X011109Y010022D01*
X010956Y010022D01*
X010879Y010099D01*
X010726Y010099D02*
X010649Y010022D01*
X010496Y010022D01*
X010419Y010099D01*
X010419Y010406D01*
X010496Y010482D01*
X010649Y010482D01*
X010726Y010406D01*
X010265Y010482D02*
X010265Y010099D01*
X010189Y010022D01*
X010035Y010022D01*
X009959Y010099D01*
X009959Y010482D01*
X011340Y010099D02*
X011416Y010022D01*
X011570Y010022D01*
X011646Y010099D01*
X023306Y017099D02*
X023383Y017022D01*
X023690Y017022D01*
X023766Y017099D01*
X023766Y017252D01*
X023690Y017329D01*
X023766Y017482D02*
X023766Y017789D01*
X023766Y017636D02*
X023306Y017636D01*
X023459Y017482D01*
X023383Y017329D02*
X023306Y017252D01*
X023306Y017099D01*
X023383Y017943D02*
X023306Y018019D01*
X023306Y018173D01*
X023383Y018250D01*
X023690Y017943D01*
X023766Y018019D01*
X023766Y018173D01*
X023690Y018250D01*
X023383Y018250D01*
X023383Y017943D02*
X023690Y017943D01*
X026761Y017656D02*
X026761Y017349D01*
X026837Y017272D01*
X026991Y017272D01*
X027067Y017349D01*
X027221Y017349D02*
X027221Y017425D01*
X027298Y017502D01*
X027451Y017502D01*
X027528Y017425D01*
X027528Y017349D01*
X027451Y017272D01*
X027298Y017272D01*
X027221Y017349D01*
X027298Y017502D02*
X027221Y017579D01*
X027221Y017656D01*
X027298Y017732D01*
X027451Y017732D01*
X027528Y017656D01*
X027528Y017579D01*
X027451Y017502D01*
X027067Y017656D02*
X026991Y017732D01*
X026837Y017732D01*
X026761Y017656D01*
X030181Y017164D02*
X030181Y016857D01*
X030258Y016704D02*
X030181Y016627D01*
X030181Y016474D01*
X030258Y016397D01*
X030565Y016397D01*
X030641Y016474D01*
X030641Y016627D01*
X030565Y016704D01*
X030565Y016857D02*
X030641Y016857D01*
X030565Y016857D02*
X030258Y017164D01*
X030181Y017164D01*
X031681Y015667D02*
X031681Y015513D01*
X031758Y015437D01*
X031834Y015437D01*
X031911Y015513D01*
X031911Y015743D01*
X031758Y015743D02*
X031681Y015667D01*
X031758Y015743D02*
X032065Y015743D01*
X032141Y015667D01*
X032141Y015513D01*
X032065Y015437D01*
X032065Y015283D02*
X032141Y015206D01*
X032141Y015053D01*
X032065Y014976D01*
X031758Y014976D01*
X031681Y015053D01*
X031681Y015206D01*
X031758Y015283D01*
X032141Y014243D02*
X032141Y013937D01*
X032141Y014090D02*
X031681Y014090D01*
X031834Y013937D01*
X032141Y013783D02*
X032141Y013476D01*
X032141Y013630D02*
X031681Y013630D01*
X031834Y013476D01*
X031758Y013323D02*
X031681Y013246D01*
X031681Y013093D01*
X031758Y013016D01*
X032065Y013016D01*
X032141Y013093D01*
X032141Y013246D01*
X032065Y013323D01*
X029391Y008789D02*
X029391Y008482D01*
X029084Y008789D01*
X029008Y008789D01*
X028931Y008712D01*
X028931Y008559D01*
X029008Y008482D01*
X029008Y008329D02*
X028931Y008252D01*
X028931Y008099D01*
X029008Y008022D01*
X029315Y008022D01*
X029391Y008099D01*
X029391Y008252D01*
X029315Y008329D01*
X033621Y002948D02*
X034081Y002948D01*
X034371Y002872D02*
X034371Y002718D01*
X034448Y002642D01*
X034755Y002642D01*
X034831Y002718D01*
X034831Y002872D01*
X034755Y002948D01*
X034448Y002948D02*
X034371Y002872D01*
X034081Y002642D02*
X033621Y002642D01*
X033774Y002795D01*
X033621Y002948D01*
X033698Y002488D02*
X033621Y002411D01*
X033621Y002258D01*
X033698Y002181D01*
X034005Y002181D01*
X034081Y002258D01*
X034081Y002411D01*
X034005Y002488D01*
X033851Y002488D01*
X033851Y002335D01*
X033851Y002028D02*
X033928Y001951D01*
X033928Y001721D01*
X034081Y001721D02*
X033621Y001721D01*
X033621Y001951D01*
X033698Y002028D01*
X033851Y002028D01*
X034371Y001951D02*
X034371Y001721D01*
X034831Y001721D01*
X034678Y001721D02*
X034678Y001951D01*
X034601Y002028D01*
X034448Y002028D01*
X034371Y001951D01*
X034448Y002181D02*
X034755Y002181D01*
X034831Y002258D01*
X034831Y002411D01*
X034755Y002488D01*
X034601Y002488D01*
X034601Y002335D01*
X034448Y002488D02*
X034371Y002411D01*
X034371Y002258D01*
X034448Y002181D01*
X035121Y002258D02*
X035198Y002181D01*
X035505Y002181D01*
X035581Y002258D01*
X035581Y002411D01*
X035505Y002488D01*
X035351Y002488D01*
X035351Y002335D01*
X035198Y002488D02*
X035121Y002411D01*
X035121Y002258D01*
X035198Y002028D02*
X035351Y002028D01*
X035428Y001951D01*
X035428Y001721D01*
X035581Y001721D02*
X035121Y001721D01*
X035121Y001951D01*
X035198Y002028D01*
X035871Y001951D02*
X035871Y001798D01*
X035948Y001721D01*
X036255Y001721D01*
X036331Y001798D01*
X036331Y001951D01*
X036255Y002028D01*
X036101Y002028D01*
X036101Y001874D01*
X035948Y002028D02*
X035871Y001951D01*
X035871Y002181D02*
X036331Y002488D01*
X035871Y002488D01*
X035871Y002642D02*
X035871Y002872D01*
X035948Y002948D01*
X036255Y002948D01*
X036331Y002872D01*
X036331Y002642D01*
X035871Y002642D01*
X035581Y002642D02*
X035581Y002872D01*
X035505Y002948D01*
X035198Y002948D01*
X035121Y002872D01*
X035121Y002642D01*
X035581Y002642D01*
X035871Y002181D02*
X036331Y002181D01*
X036621Y002181D02*
X036851Y002181D01*
X036774Y002335D01*
X036774Y002411D01*
X036851Y002488D01*
X037005Y002488D01*
X037081Y002411D01*
X037081Y002258D01*
X037005Y002181D01*
X036851Y002028D02*
X036851Y001721D01*
X036698Y001874D02*
X037005Y001874D01*
X037371Y001951D02*
X037371Y001797D01*
X037448Y001721D01*
X037755Y001721D01*
X037831Y001797D01*
X037831Y001951D01*
X037755Y002028D01*
X037831Y002181D02*
X037371Y002181D01*
X037448Y002028D02*
X037371Y001951D01*
X037831Y002181D02*
X037831Y002488D01*
X037831Y002641D02*
X037371Y002641D01*
X037371Y002872D01*
X037448Y002948D01*
X037601Y002948D01*
X037678Y002872D01*
X037678Y002641D01*
X037678Y002795D02*
X037831Y002948D01*
X037081Y002795D02*
X036928Y002948D01*
X036621Y002948D01*
X036621Y002642D02*
X036928Y002642D01*
X037081Y002795D01*
X036621Y002488D02*
X036621Y002181D01*
X037371Y001567D02*
X037831Y001567D01*
X037831Y001260D02*
X037371Y001260D01*
X037524Y001414D01*
X037371Y001567D01*
X031218Y001462D02*
X031218Y001922D01*
X030911Y001922D02*
X031218Y001462D01*
X030911Y001462D02*
X030911Y001922D01*
X030757Y001846D02*
X030680Y001922D01*
X030527Y001922D01*
X030450Y001846D01*
X030450Y001539D01*
X030527Y001462D01*
X030680Y001462D01*
X030757Y001539D01*
X030757Y001846D01*
X030297Y001846D02*
X030220Y001922D01*
X030067Y001922D01*
X029990Y001846D01*
X029990Y001539D01*
X030067Y001462D01*
X030220Y001462D01*
X030297Y001539D01*
X029836Y001692D02*
X029760Y001615D01*
X029530Y001615D01*
X029530Y001462D02*
X029530Y001922D01*
X029760Y001922D01*
X029836Y001846D01*
X029836Y001692D01*
X029376Y001615D02*
X029376Y001539D01*
X029299Y001462D01*
X029146Y001462D01*
X029069Y001539D01*
X028916Y001539D02*
X028839Y001462D01*
X028686Y001462D01*
X028609Y001539D01*
X028609Y001846D01*
X028686Y001922D01*
X028839Y001922D01*
X028916Y001846D01*
X029069Y001846D02*
X029146Y001922D01*
X029299Y001922D01*
X029376Y001846D01*
X029299Y001692D02*
X029376Y001615D01*
X029299Y001692D02*
X029146Y001692D01*
X029069Y001769D01*
X029069Y001846D01*
X028455Y001922D02*
X028302Y001922D01*
X028379Y001922D02*
X028379Y001462D01*
X028455Y001462D02*
X028302Y001462D01*
D12*
X029810Y002981D02*
X029810Y003368D01*
X030952Y003368D01*
X030952Y002981D01*
X029810Y002981D01*
X029893Y003084D02*
X029895Y003090D01*
X029900Y003095D01*
X029907Y003096D01*
X029913Y003093D01*
X029917Y003087D01*
X029917Y003081D01*
X029913Y003075D01*
X029907Y003072D01*
X029900Y003073D01*
X029895Y003078D01*
X029893Y003084D01*
X022725Y010077D02*
X022727Y010098D01*
X022733Y010118D01*
X022743Y010137D01*
X022756Y010154D01*
X022772Y010167D01*
X022790Y010178D01*
X022810Y010185D01*
X022831Y010188D01*
X022852Y010187D01*
X022872Y010182D01*
X022891Y010173D01*
X022909Y010161D01*
X022923Y010146D01*
X022935Y010128D01*
X022943Y010108D01*
X022946Y010088D01*
X022946Y010066D01*
X022943Y010046D01*
X022935Y010026D01*
X022923Y010008D01*
X022909Y009993D01*
X022892Y009981D01*
X022872Y009972D01*
X022852Y009967D01*
X022831Y009966D01*
X022810Y009969D01*
X022790Y009976D01*
X022772Y009987D01*
X022756Y010000D01*
X022743Y010017D01*
X022733Y010036D01*
X022727Y010056D01*
X022725Y010077D01*
X012411Y009752D02*
X012411Y007752D01*
X010911Y007752D01*
X010911Y009752D01*
X012411Y009752D01*
X011911Y007752D02*
X011909Y007783D01*
X011903Y007814D01*
X011893Y007844D01*
X011880Y007872D01*
X011863Y007899D01*
X011843Y007923D01*
X011820Y007945D01*
X011795Y007963D01*
X011767Y007978D01*
X011738Y007990D01*
X011708Y007998D01*
X011677Y008002D01*
X011645Y008002D01*
X011614Y007998D01*
X011584Y007990D01*
X011555Y007978D01*
X011527Y007963D01*
X011502Y007945D01*
X011479Y007923D01*
X011459Y007899D01*
X011442Y007872D01*
X011429Y007844D01*
X011419Y007814D01*
X011413Y007783D01*
X011411Y007752D01*
D13*
X022521Y006770D02*
X022521Y010234D01*
X022679Y010392D01*
X026144Y010392D01*
X026301Y010234D01*
X026301Y006770D01*
X026144Y006612D01*
X022679Y006612D01*
X022521Y006770D01*
D14*
X022841Y011232D02*
X023055Y011232D01*
X022948Y011232D02*
X022948Y011872D01*
X022841Y011872D02*
X023055Y011872D01*
X023271Y011766D02*
X023271Y011339D01*
X023378Y011232D01*
X023591Y011232D01*
X023698Y011339D01*
X023915Y011232D02*
X024342Y011232D01*
X024129Y011232D02*
X024129Y011872D01*
X023915Y011659D01*
X023698Y011766D02*
X023591Y011872D01*
X023378Y011872D01*
X023271Y011766D01*
X025561Y014732D02*
X029261Y014732D01*
X029284Y014734D01*
X029307Y014739D01*
X029329Y014748D01*
X029349Y014761D01*
X029367Y014776D01*
X029382Y014794D01*
X029395Y014814D01*
X029404Y014836D01*
X029409Y014859D01*
X029411Y014882D01*
X029411Y016122D01*
X029409Y016145D01*
X029404Y016168D01*
X029395Y016190D01*
X029382Y016210D01*
X029367Y016228D01*
X029349Y016243D01*
X029329Y016256D01*
X029307Y016265D01*
X029284Y016270D01*
X029261Y016272D01*
X025561Y016272D01*
X025538Y016270D01*
X025515Y016265D01*
X025493Y016256D01*
X025473Y016243D01*
X025455Y016228D01*
X025440Y016210D01*
X025427Y016190D01*
X025418Y016168D01*
X025413Y016145D01*
X025411Y016122D01*
X025411Y014882D01*
X025413Y014859D01*
X025418Y014836D01*
X025427Y014814D01*
X025440Y014794D01*
X025455Y014776D01*
X025473Y014761D01*
X025493Y014748D01*
X025515Y014739D01*
X025538Y014734D01*
X025561Y014732D01*
X029411Y015302D02*
X029384Y015304D01*
X029357Y015309D01*
X029331Y015319D01*
X029307Y015331D01*
X029285Y015347D01*
X029265Y015365D01*
X029248Y015387D01*
X029233Y015410D01*
X029223Y015435D01*
X029215Y015461D01*
X029211Y015488D01*
X029211Y015516D01*
X029215Y015543D01*
X029223Y015569D01*
X029233Y015594D01*
X029248Y015617D01*
X029265Y015639D01*
X029285Y015657D01*
X029307Y015673D01*
X029331Y015685D01*
X029357Y015695D01*
X029384Y015700D01*
X029411Y015702D01*
X033661Y016102D02*
X033661Y014202D01*
X033861Y014002D01*
X037911Y014002D01*
X037911Y013902D01*
X037911Y006602D01*
X037911Y006502D01*
X033861Y006502D01*
X033661Y006302D01*
X033661Y004352D01*
X033861Y004152D01*
X037861Y004152D01*
X037911Y004152D01*
X037911Y006152D01*
X037911Y006502D01*
X037911Y006602D02*
X037611Y006602D01*
X037611Y013902D01*
X037911Y013902D01*
X037911Y014002D02*
X037911Y014352D01*
X037911Y016352D01*
X037861Y016352D01*
X033911Y016352D01*
X033661Y016102D01*
X034261Y015182D02*
X034264Y015241D01*
X034272Y015300D01*
X034285Y015357D01*
X034304Y015414D01*
X034327Y015468D01*
X034356Y015520D01*
X034389Y015569D01*
X034426Y015615D01*
X034467Y015657D01*
X034512Y015695D01*
X034561Y015730D01*
X034612Y015759D01*
X034666Y015784D01*
X034721Y015804D01*
X034779Y015818D01*
X034837Y015828D01*
X034896Y015832D01*
X034955Y015830D01*
X035014Y015824D01*
X035072Y015812D01*
X035129Y015794D01*
X035183Y015772D01*
X035236Y015745D01*
X035286Y015713D01*
X035333Y015677D01*
X035376Y015636D01*
X035415Y015592D01*
X035450Y015545D01*
X035481Y015494D01*
X035507Y015441D01*
X035528Y015386D01*
X035544Y015329D01*
X035555Y015271D01*
X035560Y015212D01*
X035560Y015152D01*
X035555Y015093D01*
X035544Y015035D01*
X035528Y014978D01*
X035507Y014923D01*
X035481Y014870D01*
X035450Y014819D01*
X035415Y014772D01*
X035376Y014728D01*
X035333Y014687D01*
X035286Y014651D01*
X035236Y014619D01*
X035183Y014592D01*
X035129Y014570D01*
X035072Y014552D01*
X035014Y014540D01*
X034955Y014534D01*
X034896Y014532D01*
X034837Y014536D01*
X034779Y014546D01*
X034721Y014560D01*
X034666Y014580D01*
X034612Y014605D01*
X034561Y014634D01*
X034512Y014669D01*
X034467Y014707D01*
X034426Y014749D01*
X034389Y014795D01*
X034356Y014844D01*
X034327Y014896D01*
X034304Y014950D01*
X034285Y015007D01*
X034272Y015064D01*
X034264Y015123D01*
X034261Y015182D01*
X037911Y016352D02*
X039111Y016352D01*
X039311Y016352D01*
X039311Y015352D01*
X039311Y014352D01*
X039311Y006152D01*
X039111Y006152D01*
X039111Y006202D01*
X038161Y006202D01*
X038131Y006204D01*
X038101Y006209D01*
X038072Y006218D01*
X038045Y006231D01*
X038019Y006246D01*
X037995Y006265D01*
X037974Y006286D01*
X037955Y006310D01*
X037940Y006336D01*
X037927Y006363D01*
X037918Y006392D01*
X037913Y006422D01*
X037911Y006452D01*
X039311Y006152D02*
X039311Y005152D01*
X039311Y004152D01*
X039111Y004152D01*
X037911Y004152D01*
X039311Y004152D02*
X039511Y004152D01*
X039511Y007202D01*
X039511Y013302D01*
X039511Y016352D01*
X039311Y016352D01*
X039311Y014352D02*
X039111Y014352D01*
X039111Y014302D01*
X038161Y014302D01*
X038131Y014300D01*
X038101Y014295D01*
X038072Y014286D01*
X038045Y014273D01*
X038019Y014258D01*
X037995Y014239D01*
X037974Y014218D01*
X037955Y014194D01*
X037940Y014168D01*
X037927Y014141D01*
X037918Y014112D01*
X037913Y014082D01*
X037911Y014052D01*
X039511Y013702D02*
X039513Y013672D01*
X039518Y013642D01*
X039527Y013613D01*
X039540Y013586D01*
X039555Y013560D01*
X039574Y013536D01*
X039595Y013515D01*
X039619Y013496D01*
X039645Y013481D01*
X039672Y013468D01*
X039701Y013459D01*
X039731Y013454D01*
X039761Y013452D01*
X041761Y013452D01*
X041787Y013450D01*
X041813Y013445D01*
X041838Y013437D01*
X041861Y013425D01*
X041883Y013411D01*
X041902Y013393D01*
X041920Y013374D01*
X041934Y013352D01*
X041946Y013329D01*
X041954Y013304D01*
X041959Y013278D01*
X041961Y013252D01*
X041961Y013152D01*
X041961Y007352D01*
X041961Y007252D01*
X041959Y007226D01*
X041954Y007200D01*
X041946Y007175D01*
X041934Y007152D01*
X041920Y007130D01*
X041902Y007111D01*
X041883Y007093D01*
X041861Y007079D01*
X041838Y007067D01*
X041813Y007059D01*
X041787Y007054D01*
X041761Y007052D01*
X039761Y007052D01*
X039731Y007050D01*
X039701Y007045D01*
X039672Y007036D01*
X039645Y007023D01*
X039619Y007008D01*
X039595Y006989D01*
X039574Y006968D01*
X039555Y006944D01*
X039540Y006918D01*
X039527Y006891D01*
X039518Y006862D01*
X039513Y006832D01*
X039511Y006802D01*
X034261Y005322D02*
X034264Y005381D01*
X034272Y005440D01*
X034285Y005497D01*
X034304Y005554D01*
X034327Y005608D01*
X034356Y005660D01*
X034389Y005709D01*
X034426Y005755D01*
X034467Y005797D01*
X034512Y005835D01*
X034561Y005870D01*
X034612Y005899D01*
X034666Y005924D01*
X034721Y005944D01*
X034779Y005958D01*
X034837Y005968D01*
X034896Y005972D01*
X034955Y005970D01*
X035014Y005964D01*
X035072Y005952D01*
X035129Y005934D01*
X035183Y005912D01*
X035236Y005885D01*
X035286Y005853D01*
X035333Y005817D01*
X035376Y005776D01*
X035415Y005732D01*
X035450Y005685D01*
X035481Y005634D01*
X035507Y005581D01*
X035528Y005526D01*
X035544Y005469D01*
X035555Y005411D01*
X035560Y005352D01*
X035560Y005292D01*
X035555Y005233D01*
X035544Y005175D01*
X035528Y005118D01*
X035507Y005063D01*
X035481Y005010D01*
X035450Y004959D01*
X035415Y004912D01*
X035376Y004868D01*
X035333Y004827D01*
X035286Y004791D01*
X035236Y004759D01*
X035183Y004732D01*
X035129Y004710D01*
X035072Y004692D01*
X035014Y004680D01*
X034955Y004674D01*
X034896Y004672D01*
X034837Y004676D01*
X034779Y004686D01*
X034721Y004700D01*
X034666Y004720D01*
X034612Y004745D01*
X034561Y004774D01*
X034512Y004809D01*
X034467Y004847D01*
X034426Y004889D01*
X034389Y004935D01*
X034356Y004984D01*
X034327Y005036D01*
X034304Y005090D01*
X034285Y005147D01*
X034272Y005204D01*
X034264Y005263D01*
X034261Y005322D01*
X017511Y012752D02*
X017511Y017252D01*
X016661Y017252D01*
X016659Y017221D01*
X016653Y017190D01*
X016643Y017160D01*
X016630Y017132D01*
X016613Y017105D01*
X016593Y017081D01*
X016570Y017059D01*
X016545Y017041D01*
X016517Y017026D01*
X016488Y017014D01*
X016458Y017006D01*
X016427Y017002D01*
X016395Y017002D01*
X016364Y017006D01*
X016334Y017014D01*
X016305Y017026D01*
X016277Y017041D01*
X016252Y017059D01*
X016229Y017081D01*
X016209Y017105D01*
X016192Y017132D01*
X016179Y017160D01*
X016169Y017190D01*
X016163Y017221D01*
X016161Y017252D01*
X015311Y017252D01*
X015311Y012752D01*
X017511Y012752D01*
X017111Y014552D02*
X017111Y014802D01*
X016911Y014802D01*
X016911Y014952D02*
X017311Y014952D01*
X017311Y015052D01*
X016911Y015052D01*
X016911Y014952D01*
X016911Y015202D02*
X017111Y015202D01*
X017311Y015202D01*
X017111Y015202D02*
X017111Y015452D01*
X017111Y014802D02*
X017311Y014802D01*
X005841Y014422D02*
X005841Y013782D01*
X005414Y014422D01*
X005414Y013782D01*
X005196Y013782D02*
X005196Y014209D01*
X004983Y014422D01*
X004769Y014209D01*
X004769Y013782D01*
X004552Y013889D02*
X004445Y013782D01*
X004232Y013782D01*
X004125Y013889D01*
X004125Y014316D01*
X004232Y014422D01*
X004445Y014422D01*
X004552Y014316D01*
X004769Y014102D02*
X005196Y014102D01*
X003907Y014102D02*
X003801Y013995D01*
X003480Y013995D01*
X003480Y013782D02*
X003480Y014422D01*
X003801Y014422D01*
X003907Y014316D01*
X003907Y014102D01*
X003694Y013995D02*
X003907Y013782D01*
X003263Y013782D02*
X003263Y014422D01*
X002836Y014422D02*
X002836Y013782D01*
X003049Y013995D01*
X003263Y013782D01*
X002618Y014102D02*
X002511Y013995D01*
X002191Y013995D01*
X002191Y013782D02*
X002191Y014422D01*
X002511Y014422D01*
X002618Y014316D01*
X002618Y014102D01*
D15*
X015019Y011491D02*
X017919Y011491D01*
X017919Y007041D01*
X015019Y007041D01*
X015019Y011491D01*
X015169Y011101D02*
X015171Y011130D01*
X015177Y011159D01*
X015187Y011186D01*
X015201Y011212D01*
X015218Y011236D01*
X015238Y011257D01*
X015262Y011275D01*
X015287Y011290D01*
X015314Y011301D01*
X015343Y011308D01*
X015372Y011311D01*
X015401Y011310D01*
X015430Y011305D01*
X015458Y011296D01*
X015484Y011283D01*
X015508Y011266D01*
X015530Y011247D01*
X015549Y011224D01*
X015564Y011200D01*
X015576Y011173D01*
X015584Y011145D01*
X015588Y011116D01*
X015588Y011086D01*
X015584Y011057D01*
X015576Y011029D01*
X015564Y011002D01*
X015549Y010978D01*
X015530Y010955D01*
X015508Y010936D01*
X015484Y010919D01*
X015458Y010906D01*
X015430Y010897D01*
X015401Y010892D01*
X015372Y010891D01*
X015343Y010894D01*
X015314Y010901D01*
X015287Y010912D01*
X015262Y010927D01*
X015238Y010945D01*
X015218Y010966D01*
X015201Y010990D01*
X015187Y011016D01*
X015177Y011043D01*
X015171Y011072D01*
X015169Y011101D01*
X015553Y016659D02*
X015436Y016775D01*
X015786Y016775D01*
X015786Y016659D02*
X015786Y016892D01*
X015736Y017387D02*
X015586Y017537D01*
X015511Y017387D02*
X015436Y017462D01*
X015436Y017762D01*
X015511Y017837D01*
X015661Y017837D01*
X015736Y017762D01*
X015736Y017462D01*
X015661Y017387D01*
X015511Y017387D01*
X015897Y017462D02*
X015972Y017387D01*
X016122Y017387D01*
X016197Y017462D01*
X016197Y017612D01*
X016047Y017612D01*
X016197Y017762D02*
X016122Y017837D01*
X015972Y017837D01*
X015897Y017762D01*
X015897Y017462D01*
X016357Y017387D02*
X016657Y017387D01*
X016507Y017387D02*
X016507Y017837D01*
X016357Y017687D01*
X017036Y016834D02*
X017211Y016659D01*
X017211Y016892D01*
X017386Y016834D02*
X017036Y016834D01*
X029586Y016092D02*
X029811Y015867D01*
X029811Y016167D01*
X030036Y016092D02*
X029586Y016092D01*
X029661Y015706D02*
X029586Y015631D01*
X029586Y015481D01*
X029661Y015406D01*
X029961Y015406D01*
X030036Y015481D01*
X030036Y015631D01*
X029961Y015706D01*
X030036Y015249D02*
X030036Y015099D01*
X030036Y015174D02*
X029586Y015174D01*
X029586Y015099D02*
X029586Y015249D01*
X034186Y012967D02*
X034336Y012817D01*
X034186Y012967D02*
X034636Y012967D01*
X034636Y012817D02*
X034636Y013117D01*
X035186Y013117D02*
X035261Y012967D01*
X035411Y012817D01*
X035411Y013042D01*
X035486Y013117D01*
X035561Y013117D01*
X035636Y013042D01*
X035636Y012892D01*
X035561Y012817D01*
X035411Y012817D01*
X038286Y012892D02*
X038361Y012817D01*
X038436Y012817D01*
X038511Y012892D01*
X038511Y013117D01*
X038361Y013117D02*
X038286Y013042D01*
X038286Y012892D01*
X038361Y013117D02*
X038661Y013117D01*
X038736Y013042D01*
X038736Y012892D01*
X038661Y012817D01*
X038661Y012656D02*
X038736Y012581D01*
X038736Y012431D01*
X038661Y012356D01*
X038361Y012656D01*
X038661Y012656D01*
X038661Y012356D02*
X038361Y012356D01*
X038286Y012431D01*
X038286Y012581D01*
X038361Y012656D01*
X038286Y012196D02*
X038286Y011896D01*
X038736Y011896D01*
X038511Y011896D02*
X038511Y012046D01*
X035561Y007367D02*
X035261Y007367D01*
X035186Y007292D01*
X035186Y007142D01*
X035261Y007067D01*
X035336Y007067D01*
X035411Y007142D01*
X035411Y007367D01*
X035561Y007367D02*
X035636Y007292D01*
X035636Y007142D01*
X035561Y007067D01*
X034636Y007142D02*
X034561Y007067D01*
X034636Y007142D02*
X034636Y007292D01*
X034561Y007367D01*
X034411Y007367D01*
X034336Y007292D01*
X034336Y007217D01*
X034411Y007067D01*
X034186Y007067D01*
X034186Y007367D01*
X036011Y004827D02*
X035936Y004752D01*
X036011Y004827D02*
X036161Y004827D01*
X036236Y004752D01*
X036236Y004677D01*
X035936Y004377D01*
X036236Y004377D01*
X036397Y004227D02*
X036547Y004377D01*
X036472Y004377D01*
X036472Y004452D01*
X036547Y004452D01*
X036547Y004377D01*
X036704Y004452D02*
X036779Y004377D01*
X036929Y004377D01*
X037004Y004452D01*
X037004Y004602D01*
X036929Y004677D01*
X036854Y004677D01*
X036704Y004602D01*
X036704Y004827D01*
X037004Y004827D01*
X037164Y004602D02*
X037464Y004602D01*
X037389Y004377D02*
X037389Y004827D01*
X037164Y004602D01*
X028911Y003732D02*
X028911Y002732D01*
X028911Y002482D01*
X022911Y002482D01*
X022911Y002732D01*
X022911Y003732D01*
X028911Y003732D01*
X028911Y002732D02*
X022911Y002732D01*
X006661Y004552D02*
X006661Y000452D01*
X001761Y000452D01*
X001761Y000802D01*
X001161Y000802D01*
X001161Y000452D01*
X000411Y000452D01*
X000411Y004552D01*
X001161Y004552D01*
X001161Y004202D01*
X001761Y004202D01*
X001761Y004552D01*
X006661Y004552D01*
X001051Y002502D02*
X001054Y002567D01*
X001063Y002631D01*
X001077Y002694D01*
X001098Y002755D01*
X001123Y002814D01*
X001154Y002871D01*
X001190Y002925D01*
X001231Y002975D01*
X001276Y003021D01*
X001326Y003063D01*
X001378Y003100D01*
X001434Y003132D01*
X001493Y003159D01*
X001554Y003181D01*
X001617Y003197D01*
X001680Y003207D01*
X001745Y003212D01*
X001809Y003210D01*
X001874Y003203D01*
X001937Y003190D01*
X001999Y003171D01*
X002059Y003147D01*
X002116Y003117D01*
X002170Y003082D01*
X002221Y003042D01*
X002269Y002998D01*
X002312Y002950D01*
X002350Y002898D01*
X002384Y002843D01*
X002412Y002785D01*
X002435Y002724D01*
X002453Y002662D01*
X002464Y002599D01*
X002470Y002534D01*
X002470Y002470D01*
X002464Y002405D01*
X002453Y002342D01*
X002435Y002280D01*
X002412Y002219D01*
X002384Y002161D01*
X002350Y002106D01*
X002312Y002054D01*
X002269Y002006D01*
X002221Y001962D01*
X002170Y001922D01*
X002116Y001887D01*
X002059Y001857D01*
X001999Y001833D01*
X001937Y001814D01*
X001874Y001801D01*
X001809Y001794D01*
X001745Y001792D01*
X001680Y001797D01*
X001617Y001807D01*
X001554Y001823D01*
X001493Y001845D01*
X001434Y001872D01*
X001378Y001904D01*
X001326Y001941D01*
X001276Y001983D01*
X001231Y002029D01*
X001190Y002079D01*
X001154Y002133D01*
X001123Y002190D01*
X001098Y002249D01*
X001077Y002310D01*
X001063Y002373D01*
X001054Y002437D01*
X001051Y002502D01*
D16*
X003161Y004302D02*
X003161Y000702D01*
X006411Y000702D01*
X006411Y004302D01*
X003161Y004302D01*
X001161Y007352D02*
X001161Y013152D01*
X025411Y016132D02*
X029411Y016132D01*
D17*
X032446Y015853D02*
X032656Y015642D01*
X032446Y015853D02*
X033076Y015853D01*
X033076Y016063D02*
X033076Y015642D01*
X033076Y015418D02*
X032446Y014998D01*
X032446Y015418D02*
X033076Y014998D01*
X004376Y003282D02*
X004376Y002861D01*
X003956Y003282D01*
X003851Y003282D01*
X003746Y003176D01*
X003746Y002966D01*
X003851Y002861D01*
X003851Y002637D02*
X003746Y002532D01*
X003746Y002322D01*
X003851Y002217D01*
X004271Y002217D01*
X004376Y002322D01*
X004376Y002532D01*
X004271Y002637D01*
X004376Y001997D02*
X004376Y001787D01*
X004376Y001892D02*
X003746Y001892D01*
X003746Y001787D02*
X003746Y001997D01*
D18*
X023411Y003232D03*
X024411Y003232D03*
X025411Y003232D03*
X026411Y003232D03*
X027411Y003232D03*
X028411Y003232D03*
D19*
X007165Y007293D02*
X000157Y007293D01*
X000157Y013211D01*
X007165Y013211D01*
X007165Y012102D01*
X007161Y012102D02*
X006061Y012102D01*
X006061Y011902D02*
X007165Y011902D01*
X007161Y011902D02*
X007161Y011602D01*
X007161Y011402D02*
X007161Y011102D01*
X006061Y011102D01*
X006061Y010902D02*
X007165Y010902D01*
X007161Y010902D02*
X007161Y010602D01*
X007161Y010402D02*
X007161Y010102D01*
X006061Y010102D01*
X006061Y009902D02*
X007161Y009902D01*
X007161Y009602D01*
X007161Y009402D02*
X007161Y009102D01*
X006061Y009102D01*
X006061Y008902D02*
X007165Y008902D01*
X007161Y008902D02*
X007161Y008602D01*
X007165Y008402D02*
X007165Y007293D01*
X007161Y007602D02*
X006761Y007602D01*
X006761Y007952D01*
X007161Y007952D01*
X006261Y008402D02*
X006261Y008602D01*
X005311Y008902D02*
X005211Y008902D01*
X005211Y009102D01*
X005311Y009102D01*
X006261Y009402D02*
X006261Y009602D01*
X005311Y009902D02*
X005211Y009902D01*
X005211Y010102D01*
X005311Y010102D01*
X006261Y010402D02*
X006261Y010602D01*
X005311Y010902D02*
X005211Y010902D01*
X005211Y011102D01*
X005311Y011102D01*
X006261Y011402D02*
X006261Y011602D01*
X005311Y011902D02*
X005211Y011902D01*
X005211Y012102D01*
X005311Y012102D01*
X006761Y012552D02*
X007161Y012552D01*
X007161Y012902D02*
X006761Y012902D01*
X006761Y012552D01*
X007161Y009902D02*
X007165Y009902D01*
X001299Y007254D02*
X001299Y006978D01*
X001083Y006978D01*
X001083Y007234D01*
X001299Y013250D02*
X001299Y013526D01*
X001083Y013526D01*
X001083Y013270D01*
D20*
X000411Y008252D03*
D21*
X037761Y010252D03*
D22*
X039411Y010252D03*
D23*
X036186Y010262D03*
X036186Y011332D03*
X036186Y012412D03*
X036186Y009172D03*
X036186Y008092D03*
D24*
X036686Y008632D03*
X036686Y009722D03*
X036686Y010792D03*
X036686Y011872D03*
M02*
