%
M48
M72
T01C0.0236
T02C0.0240
T03C0.0320
T04C0.0350
T05C0.0394
T06C0.0400
T07C0.0420
T08C0.1280
T09C0.1300
%
T01
X13161Y4752
X14661Y4752
X15411Y9252
X16911Y10752
X25286Y9627
T02
X22411Y11002
X26661Y12127
X27161Y11502
T03
X17911Y13502
X14911Y13502
X14911Y16502
X17911Y16502
T04
X6711Y11502
X5711Y12002
X5711Y11002
X6711Y10502
X5711Y10002
X6711Y9502
X5711Y9002
X6711Y8502
T05
X7661Y3502
X7661Y2502
X7661Y1502
T06
X34411Y8092
X35411Y8632
X34411Y9172
X35411Y9712
X34411Y10252
X35411Y10792
X34411Y11332
X35411Y11872
X34411Y12412
T07
X28411Y3232
X27411Y3232
X26411Y3232
X25411Y3232
X24411Y3232
X23411Y3232
T08
X3211Y8002
X3211Y12502
T09
X1761Y2502
X34911Y5322
X34911Y15182
M30
