G75*
G70*
%OFA0B0*%
%FSLAX24Y24*%
%IPPOS*%
%LPD*%
%AMOC8*
5,1,8,0,0,1.08239X$1,22.5*
%
%ADD10C,0.0060*%
%ADD11C,0.0000*%
%ADD12C,0.0100*%
%ADD13C,0.0040*%
D10*
X002429Y027025D02*
X002856Y027452D01*
X002856Y027559D01*
X002749Y027666D01*
X002536Y027666D01*
X002429Y027559D01*
X002429Y027025D02*
X002856Y027025D01*
X003074Y027132D02*
X003501Y027559D01*
X003501Y027132D01*
X003394Y027025D01*
X003180Y027025D01*
X003074Y027132D01*
X003074Y027559D01*
X003180Y027666D01*
X003394Y027666D01*
X003501Y027559D01*
X004363Y027666D02*
X004363Y027025D01*
X004683Y027025D01*
X004790Y027132D01*
X004790Y027559D01*
X004683Y027666D01*
X004363Y027666D01*
X005007Y027452D02*
X005114Y027452D01*
X005114Y027025D01*
X005007Y027025D02*
X005221Y027025D01*
X005437Y027025D02*
X005437Y027452D01*
X005544Y027452D01*
X005650Y027346D01*
X005757Y027452D01*
X005864Y027346D01*
X005864Y027025D01*
X005650Y027025D02*
X005650Y027346D01*
X006081Y027346D02*
X006081Y027132D01*
X006188Y027025D01*
X006402Y027025D01*
X006508Y027239D02*
X006081Y027239D01*
X006081Y027346D02*
X006188Y027452D01*
X006402Y027452D01*
X006508Y027346D01*
X006508Y027239D01*
X006726Y027452D02*
X007046Y027452D01*
X007153Y027346D01*
X007153Y027025D01*
X007370Y027025D02*
X007691Y027025D01*
X007797Y027132D01*
X007691Y027239D01*
X007477Y027239D01*
X007370Y027346D01*
X007477Y027452D01*
X007797Y027452D01*
X008015Y027452D02*
X008122Y027452D01*
X008122Y027025D01*
X008228Y027025D02*
X008015Y027025D01*
X008445Y027132D02*
X008551Y027025D01*
X008765Y027025D01*
X008872Y027132D01*
X008872Y027346D01*
X008765Y027452D01*
X008551Y027452D01*
X008445Y027346D01*
X008445Y027132D01*
X009089Y027025D02*
X009089Y027452D01*
X009409Y027452D01*
X009516Y027346D01*
X009516Y027025D01*
X008122Y027666D02*
X008122Y027773D01*
X006726Y027452D02*
X006726Y027025D01*
X005114Y027666D02*
X005114Y027773D01*
D11*
X002165Y023951D02*
X002169Y024040D01*
X002181Y024129D01*
X002201Y024216D01*
X002230Y024302D01*
X002265Y024384D01*
X002308Y024462D01*
X002358Y024537D01*
X002415Y024606D01*
X002477Y024670D01*
X002546Y024728D01*
X002619Y024780D01*
X002696Y024825D01*
X002778Y024862D01*
X002862Y024892D01*
X002949Y024914D01*
X003037Y024929D01*
X003127Y024935D01*
X003216Y024933D01*
X003305Y024923D01*
X003393Y024904D01*
X003479Y024878D01*
X003561Y024844D01*
X003641Y024803D01*
X003716Y024755D01*
X003787Y024700D01*
X003853Y024639D01*
X003912Y024572D01*
X003966Y024500D01*
X004012Y024423D01*
X004052Y024343D01*
X004083Y024259D01*
X004108Y024173D01*
X004124Y024085D01*
X004132Y023996D01*
X004132Y023906D01*
X004124Y023817D01*
X004108Y023729D01*
X004083Y023643D01*
X004052Y023559D01*
X004012Y023479D01*
X003966Y023402D01*
X003912Y023330D01*
X003853Y023263D01*
X003787Y023202D01*
X003716Y023147D01*
X003641Y023099D01*
X003561Y023058D01*
X003479Y023024D01*
X003393Y022998D01*
X003305Y022979D01*
X003216Y022969D01*
X003127Y022967D01*
X003037Y022973D01*
X002949Y022988D01*
X002862Y023010D01*
X002778Y023040D01*
X002696Y023077D01*
X002619Y023122D01*
X002546Y023174D01*
X002477Y023232D01*
X002415Y023296D01*
X002358Y023365D01*
X002308Y023440D01*
X002265Y023518D01*
X002230Y023600D01*
X002201Y023686D01*
X002181Y023773D01*
X002169Y023862D01*
X002165Y023951D01*
X002559Y021001D02*
X002562Y021059D01*
X002570Y021117D01*
X002583Y021174D01*
X002601Y021229D01*
X002624Y021282D01*
X002652Y021334D01*
X002685Y021382D01*
X002721Y021427D01*
X002762Y021469D01*
X002807Y021507D01*
X002854Y021540D01*
X002905Y021569D01*
X002957Y021594D01*
X003012Y021613D01*
X003069Y021628D01*
X003126Y021637D01*
X003184Y021641D01*
X003243Y021640D01*
X003301Y021633D01*
X003358Y021621D01*
X003413Y021604D01*
X003467Y021582D01*
X003519Y021555D01*
X003568Y021524D01*
X003614Y021488D01*
X003657Y021448D01*
X003695Y021405D01*
X003730Y021358D01*
X003760Y021308D01*
X003786Y021256D01*
X003807Y021202D01*
X003822Y021145D01*
X003833Y021088D01*
X003838Y021030D01*
X003838Y020972D01*
X003833Y020914D01*
X003822Y020857D01*
X003807Y020800D01*
X003786Y020746D01*
X003760Y020694D01*
X003730Y020644D01*
X003695Y020597D01*
X003657Y020554D01*
X003614Y020514D01*
X003568Y020478D01*
X003519Y020447D01*
X003467Y020420D01*
X003413Y020398D01*
X003358Y020381D01*
X003301Y020369D01*
X003243Y020362D01*
X003184Y020361D01*
X003126Y020365D01*
X003069Y020374D01*
X003012Y020389D01*
X002957Y020408D01*
X002905Y020433D01*
X002854Y020462D01*
X002807Y020495D01*
X002762Y020533D01*
X002721Y020575D01*
X002685Y020620D01*
X002652Y020668D01*
X002624Y020720D01*
X002601Y020773D01*
X002583Y020828D01*
X002570Y020885D01*
X002562Y020943D01*
X002559Y021001D01*
X002559Y016501D02*
X002562Y016559D01*
X002570Y016617D01*
X002583Y016674D01*
X002601Y016729D01*
X002624Y016782D01*
X002652Y016834D01*
X002685Y016882D01*
X002721Y016927D01*
X002762Y016969D01*
X002807Y017007D01*
X002854Y017040D01*
X002905Y017069D01*
X002957Y017094D01*
X003012Y017113D01*
X003069Y017128D01*
X003126Y017137D01*
X003184Y017141D01*
X003243Y017140D01*
X003301Y017133D01*
X003358Y017121D01*
X003413Y017104D01*
X003467Y017082D01*
X003519Y017055D01*
X003568Y017024D01*
X003614Y016988D01*
X003657Y016948D01*
X003695Y016905D01*
X003730Y016858D01*
X003760Y016808D01*
X003786Y016756D01*
X003807Y016702D01*
X003822Y016645D01*
X003833Y016588D01*
X003838Y016530D01*
X003838Y016472D01*
X003833Y016414D01*
X003822Y016357D01*
X003807Y016300D01*
X003786Y016246D01*
X003760Y016194D01*
X003730Y016144D01*
X003695Y016097D01*
X003657Y016054D01*
X003614Y016014D01*
X003568Y015978D01*
X003519Y015947D01*
X003467Y015920D01*
X003413Y015898D01*
X003358Y015881D01*
X003301Y015869D01*
X003243Y015862D01*
X003184Y015861D01*
X003126Y015865D01*
X003069Y015874D01*
X003012Y015889D01*
X002957Y015908D01*
X002905Y015933D01*
X002854Y015962D01*
X002807Y015995D01*
X002762Y016033D01*
X002721Y016075D01*
X002685Y016120D01*
X002652Y016168D01*
X002624Y016220D01*
X002601Y016273D01*
X002583Y016328D01*
X002570Y016385D01*
X002562Y016443D01*
X002559Y016501D01*
X001999Y011951D02*
X002002Y012010D01*
X002010Y012069D01*
X002023Y012126D01*
X002042Y012183D01*
X002065Y012237D01*
X002094Y012289D01*
X002127Y012338D01*
X002164Y012384D01*
X002205Y012426D01*
X002250Y012464D01*
X002299Y012499D01*
X002350Y012528D01*
X002404Y012553D01*
X002459Y012573D01*
X002517Y012587D01*
X002575Y012597D01*
X002634Y012601D01*
X002693Y012599D01*
X002752Y012593D01*
X002810Y012581D01*
X002867Y012563D01*
X002921Y012541D01*
X002974Y012514D01*
X003024Y012482D01*
X003071Y012446D01*
X003114Y012405D01*
X003153Y012361D01*
X003188Y012314D01*
X003219Y012263D01*
X003245Y012210D01*
X003266Y012155D01*
X003282Y012098D01*
X003293Y012040D01*
X003298Y011981D01*
X003298Y011921D01*
X003293Y011862D01*
X003282Y011804D01*
X003266Y011747D01*
X003245Y011692D01*
X003219Y011639D01*
X003188Y011588D01*
X003153Y011541D01*
X003114Y011497D01*
X003071Y011456D01*
X003024Y011420D01*
X002974Y011388D01*
X002921Y011361D01*
X002867Y011339D01*
X002810Y011321D01*
X002752Y011309D01*
X002693Y011303D01*
X002634Y011301D01*
X002575Y011305D01*
X002517Y011315D01*
X002459Y011329D01*
X002404Y011349D01*
X002350Y011374D01*
X002299Y011403D01*
X002250Y011438D01*
X002205Y011476D01*
X002164Y011518D01*
X002127Y011564D01*
X002094Y011613D01*
X002065Y011665D01*
X002042Y011719D01*
X002023Y011776D01*
X002010Y011833D01*
X002002Y011892D01*
X001999Y011951D01*
X003372Y007117D02*
X003374Y007144D01*
X003380Y007170D01*
X003390Y007196D01*
X003404Y007219D01*
X003421Y007240D01*
X003442Y007258D01*
X003464Y007272D01*
X003489Y007284D01*
X003515Y007291D01*
X003542Y007294D01*
X003569Y007293D01*
X003596Y007288D01*
X003621Y007279D01*
X003645Y007266D01*
X003667Y007249D01*
X003686Y007230D01*
X003701Y007207D01*
X003713Y007183D01*
X003721Y007157D01*
X003725Y007131D01*
X003725Y007103D01*
X003721Y007077D01*
X003713Y007051D01*
X003701Y007027D01*
X003686Y007004D01*
X003667Y006985D01*
X003645Y006968D01*
X003621Y006955D01*
X003596Y006946D01*
X003569Y006941D01*
X003542Y006940D01*
X003515Y006943D01*
X003489Y006950D01*
X003464Y006962D01*
X003442Y006976D01*
X003421Y006994D01*
X003404Y007015D01*
X003390Y007038D01*
X003380Y007064D01*
X003374Y007090D01*
X003372Y007117D01*
X003372Y005385D02*
X003374Y005412D01*
X003380Y005438D01*
X003390Y005464D01*
X003404Y005487D01*
X003421Y005508D01*
X003442Y005526D01*
X003464Y005540D01*
X003489Y005552D01*
X003515Y005559D01*
X003542Y005562D01*
X003569Y005561D01*
X003596Y005556D01*
X003621Y005547D01*
X003645Y005534D01*
X003667Y005517D01*
X003686Y005498D01*
X003701Y005475D01*
X003713Y005451D01*
X003721Y005425D01*
X003725Y005399D01*
X003725Y005371D01*
X003721Y005345D01*
X003713Y005319D01*
X003701Y005295D01*
X003686Y005272D01*
X003667Y005253D01*
X003645Y005236D01*
X003621Y005223D01*
X003596Y005214D01*
X003569Y005209D01*
X003542Y005208D01*
X003515Y005211D01*
X003489Y005218D01*
X003464Y005230D01*
X003442Y005244D01*
X003421Y005262D01*
X003404Y005283D01*
X003390Y005306D01*
X003380Y005332D01*
X003374Y005358D01*
X003372Y005385D01*
X002265Y002251D02*
X002269Y002340D01*
X002281Y002429D01*
X002301Y002516D01*
X002330Y002602D01*
X002365Y002684D01*
X002408Y002762D01*
X002458Y002837D01*
X002515Y002906D01*
X002577Y002970D01*
X002646Y003028D01*
X002719Y003080D01*
X002796Y003125D01*
X002878Y003162D01*
X002962Y003192D01*
X003049Y003214D01*
X003137Y003229D01*
X003227Y003235D01*
X003316Y003233D01*
X003405Y003223D01*
X003493Y003204D01*
X003579Y003178D01*
X003661Y003144D01*
X003741Y003103D01*
X003816Y003055D01*
X003887Y003000D01*
X003953Y002939D01*
X004012Y002872D01*
X004066Y002800D01*
X004112Y002723D01*
X004152Y002643D01*
X004183Y002559D01*
X004208Y002473D01*
X004224Y002385D01*
X004232Y002296D01*
X004232Y002206D01*
X004224Y002117D01*
X004208Y002029D01*
X004183Y001943D01*
X004152Y001859D01*
X004112Y001779D01*
X004066Y001702D01*
X004012Y001630D01*
X003953Y001563D01*
X003887Y001502D01*
X003816Y001447D01*
X003741Y001399D01*
X003661Y001358D01*
X003579Y001324D01*
X003493Y001298D01*
X003405Y001279D01*
X003316Y001269D01*
X003227Y001267D01*
X003137Y001273D01*
X003049Y001288D01*
X002962Y001310D01*
X002878Y001340D01*
X002796Y001377D01*
X002719Y001422D01*
X002646Y001474D01*
X002577Y001532D01*
X002515Y001596D01*
X002458Y001665D01*
X002408Y001740D01*
X002365Y001818D01*
X002330Y001900D01*
X002301Y001986D01*
X002281Y002073D01*
X002269Y002162D01*
X002265Y002251D01*
X037565Y008251D02*
X037569Y008340D01*
X037581Y008429D01*
X037601Y008516D01*
X037630Y008602D01*
X037665Y008684D01*
X037708Y008762D01*
X037758Y008837D01*
X037815Y008906D01*
X037877Y008970D01*
X037946Y009028D01*
X038019Y009080D01*
X038096Y009125D01*
X038178Y009162D01*
X038262Y009192D01*
X038349Y009214D01*
X038437Y009229D01*
X038527Y009235D01*
X038616Y009233D01*
X038705Y009223D01*
X038793Y009204D01*
X038879Y009178D01*
X038961Y009144D01*
X039041Y009103D01*
X039116Y009055D01*
X039187Y009000D01*
X039253Y008939D01*
X039312Y008872D01*
X039366Y008800D01*
X039412Y008723D01*
X039452Y008643D01*
X039483Y008559D01*
X039508Y008473D01*
X039524Y008385D01*
X039532Y008296D01*
X039532Y008206D01*
X039524Y008117D01*
X039508Y008029D01*
X039483Y007943D01*
X039452Y007859D01*
X039412Y007779D01*
X039366Y007702D01*
X039312Y007630D01*
X039253Y007563D01*
X039187Y007502D01*
X039116Y007447D01*
X039041Y007399D01*
X038961Y007358D01*
X038879Y007324D01*
X038793Y007298D01*
X038705Y007279D01*
X038616Y007269D01*
X038527Y007267D01*
X038437Y007273D01*
X038349Y007288D01*
X038262Y007310D01*
X038178Y007340D01*
X038096Y007377D01*
X038019Y007422D01*
X037946Y007474D01*
X037877Y007532D01*
X037815Y007596D01*
X037758Y007665D01*
X037708Y007740D01*
X037665Y007818D01*
X037630Y007900D01*
X037601Y007986D01*
X037581Y008073D01*
X037569Y008162D01*
X037565Y008251D01*
X037465Y017651D02*
X037469Y017740D01*
X037481Y017829D01*
X037501Y017916D01*
X037530Y018002D01*
X037565Y018084D01*
X037608Y018162D01*
X037658Y018237D01*
X037715Y018306D01*
X037777Y018370D01*
X037846Y018428D01*
X037919Y018480D01*
X037996Y018525D01*
X038078Y018562D01*
X038162Y018592D01*
X038249Y018614D01*
X038337Y018629D01*
X038427Y018635D01*
X038516Y018633D01*
X038605Y018623D01*
X038693Y018604D01*
X038779Y018578D01*
X038861Y018544D01*
X038941Y018503D01*
X039016Y018455D01*
X039087Y018400D01*
X039153Y018339D01*
X039212Y018272D01*
X039266Y018200D01*
X039312Y018123D01*
X039352Y018043D01*
X039383Y017959D01*
X039408Y017873D01*
X039424Y017785D01*
X039432Y017696D01*
X039432Y017606D01*
X039424Y017517D01*
X039408Y017429D01*
X039383Y017343D01*
X039352Y017259D01*
X039312Y017179D01*
X039266Y017102D01*
X039212Y017030D01*
X039153Y016963D01*
X039087Y016902D01*
X039016Y016847D01*
X038941Y016799D01*
X038861Y016758D01*
X038779Y016724D01*
X038693Y016698D01*
X038605Y016679D01*
X038516Y016669D01*
X038427Y016667D01*
X038337Y016673D01*
X038249Y016688D01*
X038162Y016710D01*
X038078Y016740D01*
X037996Y016777D01*
X037919Y016822D01*
X037846Y016874D01*
X037777Y016932D01*
X037715Y016996D01*
X037658Y017065D01*
X037608Y017140D01*
X037565Y017218D01*
X037530Y017300D01*
X037501Y017386D01*
X037481Y017473D01*
X037469Y017562D01*
X037465Y017651D01*
D12*
X040519Y000151D02*
X001149Y000151D01*
X001149Y025742D01*
X040519Y025742D01*
X040519Y000151D01*
D13*
X024187Y012495D02*
X024110Y012419D01*
X023803Y012419D01*
X023727Y012495D01*
X023727Y012649D01*
X023803Y012726D01*
X023803Y012879D02*
X023727Y012956D01*
X023727Y013109D01*
X023803Y013186D01*
X023880Y013186D01*
X023957Y013109D01*
X023957Y013032D01*
X023957Y013109D02*
X024034Y013186D01*
X024110Y013186D01*
X024187Y013109D01*
X024187Y012956D01*
X024110Y012879D01*
X024110Y012726D02*
X024187Y012649D01*
X024187Y012495D01*
X028069Y013527D02*
X028146Y013450D01*
X028453Y013450D01*
X028529Y013527D01*
X028529Y013681D01*
X028453Y013757D01*
X028453Y013911D02*
X028376Y013911D01*
X028299Y013987D01*
X028299Y014218D01*
X028146Y014218D02*
X028453Y014218D01*
X028529Y014141D01*
X028529Y013987D01*
X028453Y013911D01*
X028146Y013911D02*
X028069Y013987D01*
X028069Y014141D01*
X028146Y014218D01*
X028146Y013757D02*
X028069Y013681D01*
X028069Y013527D01*
X034212Y016448D02*
X034288Y016371D01*
X034442Y016371D01*
X034519Y016448D01*
X034672Y016371D02*
X034826Y016525D01*
X034749Y016525D02*
X034979Y016525D01*
X034979Y016371D02*
X034979Y016832D01*
X034749Y016832D01*
X034672Y016755D01*
X034672Y016601D01*
X034749Y016525D01*
X034519Y016755D02*
X034442Y016832D01*
X034288Y016832D01*
X034212Y016755D01*
X034212Y016678D01*
X034288Y016601D01*
X034212Y016525D01*
X034212Y016448D01*
X034288Y016601D02*
X034365Y016601D01*
X006450Y011405D02*
X006450Y011098D01*
X006373Y011021D01*
X006220Y011021D01*
X006143Y011098D01*
X005989Y011021D02*
X005682Y011021D01*
X005836Y011021D02*
X005836Y011482D01*
X005989Y011328D01*
X006143Y011405D02*
X006220Y011482D01*
X006373Y011482D01*
X006450Y011405D01*
X006153Y006718D02*
X006076Y006718D01*
X005999Y006641D01*
X005999Y006487D01*
X006076Y006411D01*
X006153Y006411D01*
X006229Y006487D01*
X006229Y006641D01*
X006153Y006718D01*
X005999Y006641D02*
X005922Y006718D01*
X005846Y006718D01*
X005769Y006641D01*
X005769Y006487D01*
X005846Y006411D01*
X005922Y006411D01*
X005999Y006487D01*
X005846Y006257D02*
X005769Y006181D01*
X005769Y006027D01*
X005846Y005950D01*
X006153Y005950D01*
X006229Y006027D01*
X006229Y006181D01*
X006153Y006257D01*
M02*
