G75*
G70*
%OFA0B0*%
%FSLAX24Y24*%
%IPPOS*%
%LPD*%
%AMOC8*
5,1,8,0,0,1.08239X$1,22.5*
%
%ADD10C,0.0060*%
%ADD11R,0.0640X0.0160*%
%ADD12O,0.1200X0.0600*%
%ADD13R,0.0591X0.0512*%
%ADD14O,0.0709X0.1417*%
%ADD15R,0.0709X0.0630*%
%ADD16R,0.1063X0.0630*%
%ADD17R,0.0197X0.0591*%
%ADD18R,0.0591X0.0197*%
%ADD19R,0.0137X0.0550*%
%ADD20R,0.0984X0.0787*%
%ADD21R,0.1299X0.0787*%
%ADD22R,0.1220X0.0197*%
%ADD23R,0.0472X0.0472*%
%ADD24C,0.0550*%
%ADD25O,0.0520X0.1040*%
%ADD26R,0.0394X0.0551*%
%ADD27R,0.0512X0.0591*%
%ADD28R,0.0709X0.0787*%
%ADD29C,0.0396*%
%ADD30C,0.0160*%
%ADD31C,0.0100*%
D10*
X002429Y028025D02*
X002856Y028025D01*
X002642Y028025D02*
X002642Y028666D01*
X002429Y028452D01*
X002429Y029025D02*
X002856Y029025D01*
X002642Y029025D02*
X002642Y029666D01*
X002429Y029452D01*
X003074Y029666D02*
X003501Y029666D01*
X003501Y029559D01*
X003074Y029132D01*
X003074Y029025D01*
X003180Y028666D02*
X003394Y028666D01*
X003501Y028559D01*
X003501Y028452D01*
X003394Y028346D01*
X003180Y028346D01*
X003074Y028452D01*
X003074Y028559D01*
X003180Y028666D01*
X003180Y028346D02*
X003074Y028239D01*
X003074Y028132D01*
X003180Y028025D01*
X003394Y028025D01*
X003501Y028132D01*
X003501Y028239D01*
X003394Y028346D01*
X004363Y028239D02*
X004576Y028025D01*
X004790Y028239D01*
X004790Y028666D01*
X005007Y028452D02*
X005114Y028452D01*
X005114Y028025D01*
X005007Y028025D02*
X005221Y028025D01*
X005437Y028132D02*
X005544Y028239D01*
X005864Y028239D01*
X005864Y028346D02*
X005864Y028025D01*
X005544Y028025D01*
X005437Y028132D01*
X005544Y028452D02*
X005757Y028452D01*
X005864Y028346D01*
X006081Y028346D02*
X006188Y028452D01*
X006508Y028452D01*
X006402Y028239D02*
X006188Y028239D01*
X006081Y028346D01*
X006081Y028025D02*
X006402Y028025D01*
X006508Y028132D01*
X006402Y028239D01*
X006296Y029025D02*
X006616Y029025D01*
X006723Y029132D01*
X006616Y029239D01*
X006403Y029239D01*
X006296Y029346D01*
X006403Y029452D01*
X006723Y029452D01*
X006079Y029452D02*
X005758Y029452D01*
X005652Y029346D01*
X005652Y029132D01*
X005758Y029025D01*
X006079Y029025D01*
X006079Y029666D01*
X005434Y029346D02*
X005434Y029025D01*
X005114Y029025D01*
X005007Y029132D01*
X005114Y029239D01*
X005434Y029239D01*
X005434Y029346D02*
X005327Y029452D01*
X005114Y029452D01*
X004790Y029346D02*
X004790Y029559D01*
X004683Y029666D01*
X004363Y029666D01*
X004363Y029025D01*
X004363Y029239D02*
X004683Y029239D01*
X004790Y029346D01*
X005114Y028773D02*
X005114Y028666D01*
X004363Y028666D02*
X004363Y028239D01*
X005007Y030812D02*
X005007Y031452D01*
X005327Y031452D01*
X005434Y031346D01*
X005434Y031132D01*
X005327Y031025D01*
X005007Y031025D01*
X004790Y031132D02*
X004683Y031025D01*
X004469Y031025D01*
X004363Y031132D01*
X004363Y031346D01*
X004469Y031452D01*
X004683Y031452D01*
X004790Y031346D01*
X004790Y031132D01*
X004145Y031666D02*
X003718Y031666D01*
X003932Y031666D02*
X003932Y031025D01*
X002856Y031025D02*
X002429Y031025D01*
X002642Y031025D02*
X002642Y031666D01*
X002429Y031452D01*
D11*
X010844Y017962D03*
X010844Y017462D03*
X010844Y016962D03*
X010844Y016462D03*
X013154Y016462D03*
X013154Y016962D03*
X013154Y017462D03*
X013154Y017962D03*
D12*
X008549Y012951D03*
X008549Y011951D03*
X008549Y010951D03*
X033007Y010899D03*
X033007Y011899D03*
X033007Y012899D03*
X033007Y013899D03*
X033007Y014899D03*
X033007Y015899D03*
D13*
X015857Y016775D03*
X015857Y017523D03*
X008449Y017625D03*
X008449Y016877D03*
X007197Y004647D03*
X007197Y003899D03*
D14*
X015991Y002804D03*
X016991Y002804D03*
X017991Y002804D03*
X018991Y002804D03*
X019991Y002804D03*
X020991Y002804D03*
X021991Y002804D03*
X022991Y002804D03*
X023991Y002804D03*
X024991Y002804D03*
X025991Y002804D03*
X026991Y002804D03*
X028601Y002809D03*
X029601Y002809D03*
X030601Y002809D03*
X031601Y002809D03*
X032601Y002809D03*
X033601Y002809D03*
X034601Y002809D03*
X035601Y002809D03*
X036601Y002809D03*
X037601Y002809D03*
X038601Y002809D03*
X039601Y002809D03*
X039596Y022994D03*
X038596Y022994D03*
X037596Y022994D03*
X036596Y022994D03*
X035596Y022994D03*
X034596Y022994D03*
X033596Y022994D03*
X032596Y022994D03*
X031596Y022994D03*
X030596Y022994D03*
X029596Y022994D03*
X028596Y022994D03*
X026996Y022994D03*
X025996Y022994D03*
X024996Y022994D03*
X023996Y022994D03*
X022996Y022994D03*
X021996Y022994D03*
X020996Y022994D03*
X019996Y022994D03*
X018996Y022994D03*
X017996Y022994D03*
X016996Y022994D03*
X015996Y022994D03*
D15*
X015249Y011002D03*
X015249Y009900D03*
D16*
X013349Y009900D03*
X013349Y011002D03*
D17*
X022952Y010998D03*
X023267Y010998D03*
X023582Y010998D03*
X023897Y010998D03*
X024212Y010998D03*
X024527Y010998D03*
X024842Y010998D03*
X025157Y010998D03*
X025472Y010998D03*
X025787Y010998D03*
X026102Y010998D03*
X026102Y015565D03*
X025787Y015565D03*
X025472Y015565D03*
X025157Y015565D03*
X024842Y015565D03*
X024527Y015565D03*
X024212Y015565D03*
X023897Y015565D03*
X023582Y015565D03*
X023267Y015565D03*
X022952Y015565D03*
D18*
X022243Y014857D03*
X022243Y014542D03*
X022243Y014227D03*
X022243Y013912D03*
X022243Y013597D03*
X022243Y013282D03*
X022243Y012967D03*
X022243Y012652D03*
X022243Y012337D03*
X022243Y012022D03*
X022243Y011707D03*
X026810Y011707D03*
X026810Y012022D03*
X026810Y012337D03*
X026810Y012652D03*
X026810Y012967D03*
X026810Y013282D03*
X026810Y013597D03*
X026810Y013912D03*
X026810Y014227D03*
X026810Y014542D03*
X026810Y014857D03*
D19*
X011712Y007891D03*
X011456Y007891D03*
X011201Y007891D03*
X010945Y007891D03*
X010689Y007891D03*
X010433Y007891D03*
X010177Y007891D03*
X009921Y007891D03*
X009665Y007891D03*
X009409Y007891D03*
X009153Y007891D03*
X008897Y007891D03*
X008641Y007891D03*
X008386Y007891D03*
X008386Y005012D03*
X008641Y005012D03*
X008897Y005012D03*
X009153Y005012D03*
X009409Y005012D03*
X009665Y005012D03*
X009921Y005012D03*
X010177Y005012D03*
X010433Y005012D03*
X010689Y005012D03*
X010945Y005012D03*
X011201Y005012D03*
X011456Y005012D03*
X011712Y005012D03*
D20*
X002368Y004499D03*
X002368Y008003D03*
D21*
X004691Y008003D03*
X004691Y004499D03*
D22*
X004730Y005621D03*
X004730Y005936D03*
X004730Y006251D03*
X004730Y006566D03*
X004730Y006881D03*
D23*
X028150Y010344D03*
X028977Y010344D03*
D24*
X006699Y017001D03*
X005699Y017501D03*
X006699Y018001D03*
X005699Y018501D03*
X006699Y019001D03*
X005699Y019501D03*
X006699Y020001D03*
X005699Y020501D03*
D25*
X018149Y020151D03*
X019149Y020151D03*
X020149Y020151D03*
X021149Y020151D03*
X022149Y020151D03*
X023149Y020151D03*
X024149Y020151D03*
X025149Y020151D03*
X030549Y020151D03*
X031549Y020151D03*
X032549Y020151D03*
X033549Y020151D03*
X034549Y020151D03*
X035549Y020151D03*
X036549Y020151D03*
X037549Y020151D03*
X037649Y005751D03*
X036649Y005751D03*
X035649Y005751D03*
X034649Y005751D03*
X033649Y005751D03*
X032649Y005751D03*
X031649Y005751D03*
X030649Y005751D03*
X025049Y005751D03*
X024049Y005751D03*
X023049Y005751D03*
X022049Y005751D03*
X021049Y005751D03*
X020049Y005751D03*
X019049Y005751D03*
X018049Y005751D03*
D26*
X030075Y015018D03*
X030823Y015018D03*
X030449Y015884D03*
D27*
X030275Y010351D03*
X031023Y010351D03*
D28*
X017733Y013424D03*
X015765Y013424D03*
X015765Y015078D03*
X017733Y015078D03*
D29*
X014349Y016451D03*
X014349Y017951D03*
X014449Y013451D03*
X016749Y011051D03*
X017549Y009951D03*
X013449Y008451D03*
X012849Y008951D03*
X012849Y007851D03*
X010949Y006951D03*
X005949Y007051D03*
X005949Y005451D03*
X022049Y009751D03*
X022049Y010951D03*
X024849Y012651D03*
X024149Y013351D03*
X024849Y013951D03*
X025349Y014551D03*
X026049Y014751D03*
X023749Y014651D03*
D30*
X023849Y014751D01*
X023849Y015551D01*
X023883Y015551D01*
X023897Y015565D01*
X024212Y015565D02*
X024212Y013351D01*
X024149Y013351D01*
X024149Y012351D01*
X024549Y011951D01*
X024549Y011051D01*
X024527Y011029D01*
X024527Y010998D01*
X024842Y010998D02*
X024842Y011044D01*
X024849Y011051D01*
X024849Y012651D01*
X024849Y013951D01*
X024849Y014551D01*
X024527Y014873D01*
X024527Y015565D01*
X024842Y015565D02*
X024842Y018758D01*
X024149Y019451D01*
X024149Y020151D01*
X024149Y020651D01*
X025996Y022499D01*
X025996Y022994D01*
X024996Y022994D02*
X024996Y024151D01*
X024949Y024151D01*
X026996Y024151D01*
X029596Y024151D01*
X031549Y024151D01*
X033549Y024151D01*
X035549Y024151D01*
X037549Y024151D01*
X039549Y024151D01*
X039549Y022951D01*
X039596Y022951D01*
X039596Y022994D01*
X038596Y023004D02*
X038596Y022994D01*
X038596Y023004D02*
X038549Y023051D01*
X038549Y022451D01*
X036549Y020451D01*
X036549Y020151D01*
X036549Y019451D01*
X034349Y017251D01*
X029949Y017251D01*
X027240Y014542D01*
X026810Y014542D01*
X026810Y014857D02*
X026810Y014912D01*
X029449Y017551D01*
X033649Y017551D01*
X035549Y019451D01*
X035549Y020151D01*
X035549Y021051D01*
X036549Y022051D01*
X036549Y022951D01*
X036591Y022994D01*
X036596Y022994D01*
X035596Y022994D02*
X035596Y024151D01*
X035549Y024151D01*
X034607Y022994D02*
X034596Y022994D01*
X034607Y022994D02*
X034649Y022951D01*
X034549Y022851D01*
X034549Y020151D01*
X034549Y019451D01*
X032949Y017851D01*
X026549Y017851D01*
X026102Y017404D01*
X026102Y015565D01*
X025787Y015565D02*
X025787Y017589D01*
X026349Y018151D01*
X032249Y018151D01*
X033549Y019451D01*
X033549Y020151D01*
X033549Y021151D01*
X032649Y022051D01*
X032649Y022951D01*
X032607Y022994D01*
X032596Y022994D01*
X033596Y022994D02*
X033596Y024151D01*
X033549Y024151D01*
X031596Y024151D02*
X031596Y022994D01*
X030596Y022994D02*
X030591Y022994D01*
X030549Y022951D01*
X030549Y022451D01*
X032549Y020451D01*
X032549Y020151D01*
X032549Y019551D01*
X031449Y018451D01*
X026149Y018451D01*
X025472Y017774D01*
X025472Y015565D01*
X025157Y015565D02*
X025157Y017959D01*
X025949Y018751D01*
X030749Y018751D01*
X031549Y019551D01*
X031549Y020151D01*
X031549Y020451D01*
X030549Y021451D01*
X029249Y021451D01*
X028549Y022151D01*
X028549Y023051D01*
X028596Y023004D01*
X028596Y022994D01*
X029596Y022994D02*
X029596Y024151D01*
X031549Y024151D02*
X031596Y024151D01*
X026996Y024151D02*
X026996Y022994D01*
X024949Y024151D02*
X022949Y024151D01*
X022996Y024151D01*
X022996Y022994D01*
X022149Y022851D02*
X022007Y022994D01*
X021996Y022994D01*
X022149Y022851D02*
X022149Y020151D01*
X022149Y019451D01*
X023267Y018333D01*
X023267Y015565D01*
X023582Y015565D02*
X023582Y019118D01*
X023149Y019551D01*
X023149Y020151D01*
X023149Y021251D01*
X024049Y022151D01*
X024049Y023051D01*
X023996Y022999D01*
X023996Y022994D01*
X022949Y024151D02*
X020949Y024151D01*
X020996Y024151D01*
X020996Y022994D01*
X020049Y023051D02*
X019996Y022999D01*
X019949Y022951D01*
X019949Y022051D01*
X021149Y020851D01*
X021149Y020151D01*
X021149Y020051D01*
X021049Y019951D01*
X021049Y015051D01*
X021558Y014542D01*
X022243Y014542D01*
X022243Y014227D02*
X021273Y014227D01*
X020149Y015351D01*
X020149Y020151D01*
X020149Y020551D01*
X019249Y021451D01*
X018749Y021451D01*
X018049Y022151D01*
X018049Y022951D01*
X018096Y022999D01*
X017996Y022994D01*
X018049Y023051D02*
X018096Y022999D01*
X016996Y022994D02*
X016996Y024151D01*
X016949Y024151D01*
X018949Y024151D01*
X020949Y024151D01*
X019996Y022999D02*
X019996Y022994D01*
X018996Y022994D02*
X018996Y024151D01*
X018949Y024151D01*
X016949Y024151D02*
X015449Y024151D01*
X015049Y023751D01*
X015049Y021451D01*
X017549Y018951D01*
X017549Y016751D01*
X016817Y017483D01*
X015857Y017523D01*
X015849Y017476D01*
X015849Y017451D01*
X013165Y017451D01*
X013154Y017462D01*
X013154Y016962D02*
X012360Y016962D01*
X011849Y016451D01*
X010849Y016451D01*
X010844Y016456D01*
X010844Y016462D01*
X011838Y016462D01*
X010849Y016951D02*
X008518Y016951D01*
X008460Y016893D01*
X006837Y016893D01*
X006837Y016936D01*
X006699Y017001D01*
X005855Y017482D02*
X008407Y017482D01*
X008449Y017625D01*
X008540Y017482D01*
X010949Y017482D01*
X011019Y017482D01*
X010844Y016962D02*
X010849Y016957D01*
X010849Y016951D01*
X008460Y016893D02*
X008449Y016877D01*
X005855Y017482D02*
X005699Y017501D01*
X008049Y012951D02*
X008549Y012951D01*
X008049Y012951D02*
X007149Y012051D01*
X007149Y010751D01*
X008000Y009900D01*
X013349Y009900D01*
X013298Y009900D01*
X013249Y009851D01*
X013298Y009900D02*
X015249Y009900D01*
X015300Y009951D01*
X017549Y009951D01*
X017549Y011351D01*
X017549Y013451D01*
X017549Y013424D01*
X017733Y013424D01*
X017549Y013451D02*
X017549Y015051D01*
X017549Y015078D01*
X017733Y015078D01*
X017549Y015051D02*
X017549Y016751D01*
X016749Y015922D02*
X016749Y015051D01*
X016749Y015078D01*
X015765Y015078D01*
X016749Y015051D02*
X016749Y011051D01*
X015298Y011051D01*
X015249Y011002D01*
X015198Y010951D01*
X013349Y010951D01*
X013349Y011002D01*
X012400Y011951D01*
X008549Y011951D01*
X011249Y008951D02*
X012849Y008951D01*
X012588Y007891D02*
X011712Y007891D01*
X010949Y007851D02*
X010949Y006951D01*
X010945Y006956D01*
X010945Y007891D01*
X010945Y007856D01*
X010949Y007851D01*
X010689Y007891D02*
X010689Y008391D01*
X011249Y008951D01*
X010177Y007891D02*
X010177Y006979D01*
X009149Y005951D01*
X009149Y004951D01*
X009153Y004956D01*
X009153Y005012D01*
X009153Y004556D01*
X009149Y003951D01*
X009849Y003951D01*
X009921Y004023D01*
X009921Y005012D01*
X009665Y005012D02*
X009488Y005012D01*
X009449Y005051D01*
X009410Y005012D01*
X009409Y005012D01*
X009665Y005012D02*
X009665Y005667D01*
X010949Y006951D01*
X012588Y007891D02*
X012849Y007851D01*
X015249Y009951D02*
X015991Y009209D01*
X015991Y002804D01*
X015991Y001651D01*
X017949Y001651D01*
X019991Y001651D01*
X021949Y001651D01*
X023991Y001651D01*
X025949Y001651D01*
X028601Y001651D01*
X030601Y001651D01*
X032601Y001651D01*
X034601Y001651D01*
X036601Y001651D01*
X038601Y001651D01*
X038601Y002809D01*
X039549Y002851D02*
X039549Y003451D01*
X038549Y004451D01*
X037649Y004451D01*
X036649Y005451D01*
X036649Y005751D01*
X036649Y006451D01*
X034349Y008751D01*
X026349Y008751D01*
X025472Y009629D01*
X025472Y010998D01*
X025787Y010998D02*
X025787Y014114D01*
X025349Y014551D01*
X026049Y014751D02*
X026102Y014699D01*
X026102Y010998D01*
X025157Y010998D02*
X025157Y009444D01*
X026149Y008451D01*
X033649Y008451D01*
X035649Y006451D01*
X035649Y005751D01*
X035649Y005351D01*
X037649Y003351D01*
X037649Y002751D01*
X037601Y002799D01*
X037601Y002809D01*
X036601Y002809D02*
X036601Y001651D01*
X035649Y002751D02*
X035649Y003551D01*
X034649Y004551D01*
X034649Y005751D01*
X034649Y006451D01*
X032949Y008151D01*
X025449Y008151D01*
X024212Y009388D01*
X024212Y010998D01*
X023897Y010998D02*
X023897Y009303D01*
X025349Y007851D01*
X032149Y007851D01*
X033649Y006351D01*
X033649Y005751D01*
X033649Y002851D01*
X033607Y002809D01*
X033601Y002809D01*
X032601Y002809D02*
X032601Y001651D01*
X031601Y002809D02*
X031591Y002809D01*
X031549Y002851D01*
X031649Y002951D01*
X031649Y003651D01*
X032649Y004651D01*
X032649Y005751D01*
X032649Y006351D01*
X031449Y007551D01*
X025249Y007551D01*
X023582Y009218D01*
X023582Y010998D01*
X023267Y010998D02*
X023267Y009133D01*
X025149Y007251D01*
X030749Y007251D01*
X031549Y006451D01*
X031549Y005851D01*
X031649Y005751D01*
X031649Y005451D01*
X029549Y003351D01*
X029549Y002751D01*
X029601Y002804D01*
X029601Y002809D01*
X030601Y002809D02*
X030601Y001651D01*
X028601Y001651D02*
X028601Y002809D01*
X026991Y002794D02*
X026991Y002804D01*
X026991Y002794D02*
X026949Y002751D01*
X026949Y003651D01*
X026049Y004551D01*
X024849Y004551D01*
X024049Y005351D01*
X024049Y005751D01*
X024049Y006651D01*
X021049Y009651D01*
X021049Y011351D01*
X021720Y012022D01*
X022243Y012022D01*
X022243Y011707D02*
X022243Y011145D01*
X022049Y010951D01*
X022952Y010998D02*
X022952Y010654D01*
X022049Y009751D01*
X020649Y009351D02*
X022949Y007051D01*
X022949Y005851D01*
X023049Y005751D01*
X023049Y005351D01*
X025049Y003351D01*
X025049Y002851D01*
X024991Y002794D01*
X024991Y002804D01*
X024991Y002794D02*
X024949Y002751D01*
X025991Y002804D02*
X025991Y001651D01*
X025949Y001651D01*
X023991Y001651D02*
X023991Y002804D01*
X022991Y002804D02*
X022991Y002794D01*
X022949Y002751D01*
X022949Y003651D01*
X022049Y004551D01*
X022049Y005751D01*
X022049Y007351D01*
X020149Y009251D01*
X020149Y011651D01*
X021150Y012652D01*
X022243Y012652D01*
X022243Y012967D02*
X020865Y012967D01*
X019749Y011851D01*
X019749Y009051D01*
X021049Y007751D01*
X021049Y005751D01*
X021049Y002751D01*
X020996Y002804D01*
X020991Y002804D01*
X019991Y002804D02*
X019991Y001651D01*
X018991Y002804D02*
X018991Y002809D01*
X018949Y002851D01*
X019049Y002951D01*
X019049Y003651D01*
X020049Y004651D01*
X020049Y005751D01*
X020049Y008151D01*
X019349Y008851D01*
X019349Y012051D01*
X020549Y013251D01*
X022213Y013251D01*
X022243Y013282D01*
X022243Y013597D02*
X020295Y013597D01*
X018949Y012251D01*
X018949Y005851D01*
X019049Y005751D01*
X019049Y005451D01*
X016949Y003351D01*
X016949Y002751D01*
X016991Y002794D01*
X016991Y002804D01*
X017949Y002751D02*
X017991Y002751D01*
X017991Y002804D01*
X017991Y002751D02*
X018049Y002751D01*
X017949Y002751D02*
X017949Y001651D01*
X021949Y001651D02*
X021991Y001651D01*
X021991Y002804D01*
X025049Y005751D02*
X025054Y005746D01*
X030654Y005746D01*
X030649Y005751D01*
X030654Y005746D02*
X030682Y005746D01*
X034601Y002809D02*
X034601Y001651D01*
X035649Y002751D02*
X035601Y002799D01*
X035601Y002809D01*
X039549Y002851D02*
X039591Y002809D01*
X039601Y002809D01*
X033749Y009851D02*
X031484Y009851D01*
X031023Y010351D01*
X030349Y010351D02*
X030341Y010344D01*
X028977Y010344D01*
X028150Y010344D02*
X028150Y010350D01*
X028149Y010351D01*
X028149Y011451D01*
X027263Y012337D01*
X026810Y012337D01*
X026810Y012652D02*
X030448Y012652D01*
X032249Y010851D01*
X032959Y010851D01*
X033007Y010899D01*
X033007Y011899D02*
X032954Y011951D01*
X032149Y011951D01*
X031133Y012967D01*
X026810Y012967D01*
X026810Y013282D02*
X032018Y013282D01*
X032449Y012851D01*
X032959Y012851D01*
X033007Y012899D01*
X033007Y013899D02*
X033001Y013899D01*
X032949Y013951D01*
X033749Y013951D01*
X034349Y013351D01*
X034349Y010451D01*
X033749Y009851D01*
X030349Y010351D02*
X030275Y010351D01*
X027349Y013651D02*
X026949Y013651D01*
X027349Y013651D02*
X029582Y015884D01*
X030449Y015884D01*
X030496Y015899D02*
X033007Y015899D01*
X032882Y015018D02*
X030823Y015018D01*
X030549Y020151D02*
X025149Y020151D01*
X019149Y020151D02*
X019149Y015651D01*
X020888Y013912D01*
X022243Y013912D01*
X022243Y012337D02*
X021435Y012337D01*
X020649Y011551D01*
X020649Y009351D01*
X017549Y011351D02*
X017549Y011451D01*
X015765Y013424D02*
X014449Y013424D01*
X014449Y013451D01*
X016749Y015922D02*
X015857Y016775D01*
X015749Y016922D01*
X015749Y016951D01*
X013165Y016951D01*
X013154Y016962D01*
X013154Y016462D02*
X014338Y016462D01*
X014349Y016451D01*
X014349Y017951D02*
X014449Y017951D01*
X014438Y017962D01*
X013154Y017962D01*
X016849Y021551D02*
X015949Y022451D01*
X015949Y022951D01*
X015991Y022994D01*
X015996Y022994D01*
X016849Y021551D02*
X018049Y021551D01*
X019149Y020451D01*
X019149Y020151D01*
X005949Y007051D02*
X005779Y006881D01*
X004730Y006881D01*
X004730Y006566D02*
X007634Y006566D01*
X008649Y005551D01*
X008649Y005051D01*
X008641Y005044D01*
X008641Y005012D01*
X008386Y005015D02*
X008386Y005012D01*
X008386Y005015D02*
X008349Y005051D01*
X008349Y005451D01*
X007549Y006251D01*
X004730Y006251D01*
X004730Y005621D02*
X005779Y005621D01*
X005803Y005619D01*
X005827Y005614D01*
X005850Y005606D01*
X005871Y005594D01*
X005890Y005579D01*
X005907Y005562D01*
X005922Y005543D01*
X005934Y005522D01*
X005942Y005499D01*
X005947Y005475D01*
X005949Y005451D01*
X005949Y003951D01*
X007249Y003951D01*
X007236Y003938D01*
X007197Y003899D01*
X007249Y003951D02*
X009149Y003951D01*
X008749Y004451D02*
X007349Y004451D01*
X007197Y004603D01*
X007197Y004647D01*
X008749Y004451D02*
X008897Y004600D01*
X008897Y005012D01*
X009849Y003951D02*
X010949Y003951D01*
X010945Y004447D01*
X010945Y005012D01*
X010945Y004956D01*
X010949Y004951D01*
X011010Y005012D01*
X011201Y005012D01*
X037596Y022994D02*
X037596Y024151D01*
X037549Y024151D01*
D31*
X030496Y015899D02*
X030449Y015851D01*
X030449Y015884D01*
X030823Y015018D02*
X030849Y015018D01*
X030849Y014951D01*
X030849Y015018D02*
X030075Y015018D01*
X032882Y015018D02*
X033001Y014899D01*
X033007Y014899D01*
X026949Y013651D02*
X026849Y013551D01*
X026810Y013590D01*
X026810Y013597D01*
X013449Y008451D02*
X011649Y008451D01*
X011456Y008259D01*
X011456Y007891D01*
X010949Y017451D02*
X010855Y017451D01*
X010844Y017462D01*
X010949Y017451D02*
X010949Y017482D01*
M02*
