G75*
G70*
%OFA0B0*%
%FSLAX24Y24*%
%IPPOS*%
%LPD*%
%AMOC8*
5,1,8,0,0,1.08239X$1,22.5*
%
%ADD10C,0.0060*%
%ADD11C,0.2362*%
%ADD12O,0.1320X0.0720*%
%ADD13C,0.1560*%
%ADD14O,0.0850X0.1559*%
%ADD15R,0.0756X0.0835*%
%ADD16R,0.0693X0.0614*%
%ADD17C,0.0425*%
%ADD18C,0.1536*%
%ADD19C,0.0660*%
%ADD20O,0.0624X0.1144*%
%ADD21R,0.0614X0.0693*%
%ADD22C,0.0475*%
D10*
X010072Y027062D02*
X010072Y027702D01*
X009752Y027702D01*
X009645Y027596D01*
X009645Y027382D01*
X009752Y027275D01*
X010072Y027275D01*
X010290Y027382D02*
X010290Y027596D01*
X010396Y027702D01*
X010610Y027702D01*
X010717Y027596D01*
X010717Y027382D01*
X010610Y027275D01*
X010396Y027275D01*
X010290Y027382D01*
X010933Y027275D02*
X011040Y027382D01*
X011040Y027809D01*
X011146Y027702D02*
X010933Y027702D01*
X011364Y027809D02*
X011471Y027916D01*
X011684Y027916D01*
X011791Y027809D01*
X011791Y027702D01*
X011684Y027596D01*
X011471Y027596D01*
X011364Y027489D01*
X011364Y027382D01*
X011471Y027275D01*
X011684Y027275D01*
X011791Y027382D01*
X012008Y027382D02*
X012008Y027596D01*
X012115Y027702D01*
X012435Y027702D01*
X012435Y027916D02*
X012435Y027275D01*
X012115Y027275D01*
X012008Y027382D01*
X013297Y027382D02*
X013404Y027275D01*
X013618Y027275D01*
X013724Y027382D01*
X013297Y027809D01*
X013297Y027382D01*
X013297Y027809D02*
X013404Y027916D01*
X013618Y027916D01*
X013724Y027809D01*
X013724Y027382D01*
X013942Y027382D02*
X014049Y027275D01*
X014262Y027275D01*
X014369Y027382D01*
X014155Y027596D02*
X014049Y027596D01*
X013942Y027489D01*
X013942Y027382D01*
X014049Y027596D02*
X013942Y027702D01*
X013942Y027809D01*
X014049Y027916D01*
X014262Y027916D01*
X014369Y027809D01*
D11*
X003249Y002251D03*
X003149Y023951D03*
X038449Y017651D03*
X038549Y008251D03*
D12*
X033007Y010899D03*
X033007Y011899D03*
X033007Y012899D03*
X033007Y013899D03*
X033007Y014899D03*
X033007Y015899D03*
X008549Y012951D03*
X008549Y011951D03*
X008549Y010951D03*
D13*
X002649Y011951D03*
D14*
X015991Y002804D03*
X016991Y002804D03*
X017991Y002804D03*
X018991Y002804D03*
X019991Y002804D03*
X020991Y002804D03*
X021991Y002804D03*
X022991Y002804D03*
X023991Y002804D03*
X024991Y002804D03*
X025991Y002804D03*
X026991Y002804D03*
X028601Y002809D03*
X029601Y002809D03*
X030601Y002809D03*
X031601Y002809D03*
X032601Y002809D03*
X033601Y002809D03*
X034601Y002809D03*
X035601Y002809D03*
X036601Y002809D03*
X037601Y002809D03*
X038601Y002809D03*
X039601Y002809D03*
X039596Y022994D03*
X038596Y022994D03*
X037596Y022994D03*
X036596Y022994D03*
X035596Y022994D03*
X034596Y022994D03*
X033596Y022994D03*
X032596Y022994D03*
X031596Y022994D03*
X030596Y022994D03*
X029596Y022994D03*
X028596Y022994D03*
X026996Y022994D03*
X025996Y022994D03*
X024996Y022994D03*
X023996Y022994D03*
X022996Y022994D03*
X021996Y022994D03*
X020996Y022994D03*
X019996Y022994D03*
X018996Y022994D03*
X017996Y022994D03*
X016996Y022994D03*
X015996Y022994D03*
D15*
X006600Y011951D03*
X005498Y011951D03*
D16*
X006749Y006725D03*
X006749Y005977D03*
X023207Y012525D03*
X023207Y013273D03*
X029049Y013477D03*
X029049Y014225D03*
D17*
X003549Y007117D03*
X003549Y005385D03*
D18*
X003199Y016501D03*
X003199Y021001D03*
D19*
X005699Y020501D03*
X006699Y020001D03*
X005699Y019501D03*
X006699Y019001D03*
X005699Y018501D03*
X006699Y018001D03*
X005699Y017501D03*
X006699Y017001D03*
D20*
X018149Y020151D03*
X019149Y020151D03*
X020149Y020151D03*
X021149Y020151D03*
X022149Y020151D03*
X023149Y020151D03*
X024149Y020151D03*
X025149Y020151D03*
X030549Y020151D03*
X031549Y020151D03*
X032549Y020151D03*
X033549Y020151D03*
X034549Y020151D03*
X035549Y020151D03*
X036549Y020151D03*
X037549Y020151D03*
X037649Y005751D03*
X036649Y005751D03*
X035649Y005751D03*
X034649Y005751D03*
X033649Y005751D03*
X032649Y005751D03*
X031649Y005751D03*
X030649Y005751D03*
X025049Y005751D03*
X024049Y005751D03*
X023049Y005751D03*
X022049Y005751D03*
X021049Y005751D03*
X020049Y005751D03*
X019049Y005751D03*
X018049Y005751D03*
D21*
X034375Y015851D03*
X035123Y015851D03*
D22*
X026049Y014751D03*
X025349Y014551D03*
X024849Y013951D03*
X024149Y013351D03*
X024849Y012651D03*
X023749Y014651D03*
X022049Y010951D03*
X022049Y009751D03*
X017549Y009951D03*
X016749Y011051D03*
X014449Y013451D03*
X014349Y016451D03*
X014349Y017951D03*
X012849Y008951D03*
X013449Y008451D03*
X012849Y007851D03*
X010949Y006951D03*
X005949Y007051D03*
X005949Y005451D03*
M02*
